<svg width="91" height="88" viewBox="0 0 91 88" fill="none" xmlns="http://www.w3.org/2000/svg">
    <g opacity="0.5">
        <path opacity="0.5"
            d="M41.1354 1.29347C40.9805 0.912547 40.7212 0.587017 40.3896 0.35713C40.0579 0.127243 39.6685 0.00308197 39.2695 0H2.01914C1.48371 0.000281009 0.970294 0.220742 0.591692 0.612949C0.21309 1.00516 0.000271261 1.53702 0 2.09169V50.9083C0.000271261 51.463 0.21309 51.9948 0.591692 52.387C0.970294 52.7792 1.48371 52.9997 2.01914 53H39.2695C39.8048 52.9993 40.318 52.7786 40.6965 52.3865C41.075 51.9944 41.2879 51.4628 41.2887 50.9083V2.09169C41.2895 1.81769 41.2374 1.5463 41.1354 1.29347ZM40.8403 50.9087C40.8395 51.3397 40.6738 51.7528 40.3796 52.0576C40.0854 52.3623 39.6866 52.5339 39.2706 52.5348H2.01914C1.60282 52.5348 1.20356 52.3635 0.90918 52.0585C0.614801 51.7535 0.449417 51.3399 0.449417 50.9087V2.09169C0.450229 1.66067 0.615873 1.24755 0.910076 0.942774C1.20428 0.637999 1.60307 0.466402 2.01914 0.465562H39.2695C39.5834 0.466895 39.8898 0.56514 40.1495 0.747747C40.4093 0.930354 40.6105 1.18903 40.7277 1.49073C40.7505 1.55075 40.7702 1.61199 40.7867 1.6742C40.8224 1.81112 40.8406 1.95232 40.8406 2.09416L40.8403 50.9087Z"
            fill="#B7C0C2" />
        <path opacity="0.5"
            d="M33.3599 11.5258H22.1398C21.9018 11.5258 21.6734 11.4278 21.5051 11.2534C21.3368 11.0791 21.2422 10.8425 21.2422 10.5959C21.2422 10.3493 21.3368 10.1128 21.5051 9.93837C21.6734 9.76398 21.9018 9.66602 22.1398 9.66602H33.3596C33.5976 9.66602 33.8259 9.76398 33.9943 9.93837C34.1626 10.1128 34.2572 10.3493 34.2572 10.5959C34.2572 10.8425 34.1626 11.0791 33.9943 11.2534C33.8259 11.4278 33.5976 11.5258 33.3596 11.5258H33.3599Z"
            fill="#CCCCCC" />
        <path
            d="M33.3599 16.4069H22.1398C21.9018 16.4069 21.6734 16.3089 21.5051 16.1345C21.3368 15.9602 21.2422 15.7236 21.2422 15.477C21.2422 15.2304 21.3368 14.9939 21.5051 14.8195C21.6734 14.6451 21.9018 14.5471 22.1398 14.5471H33.3596C33.5976 14.5471 33.8259 14.6451 33.9943 14.8195C34.1626 14.9939 34.2572 15.2304 34.2572 15.477C34.2572 15.7236 34.1626 15.9602 33.9943 16.1345C33.8259 16.3089 33.5976 16.4069 33.3596 16.4069H33.3599Z"
            fill="#CCCCCC" />
        <path opacity="0.5"
            d="M16.3829 19.187H8.18357C7.91585 19.1868 7.65917 19.0765 7.46987 18.8804C7.28057 18.6843 7.1741 18.4184 7.17383 18.141V8.11738C7.1741 7.84004 7.28057 7.57414 7.46987 7.37804C7.65917 7.18193 7.91585 7.07163 8.18357 7.07135H16.3829C16.6506 7.07172 16.9073 7.18205 17.0965 7.37813C17.2858 7.57422 17.3923 7.84007 17.3927 8.11738V18.141C17.3924 18.4184 17.2859 18.6843 17.0966 18.8804C16.9073 19.0765 16.6507 19.1868 16.3829 19.187Z"
            fill="#B7C0C2" />
        <path opacity="0.5"
            d="M33.2817 26.403H7.92499C7.68692 26.403 7.4586 26.305 7.29026 26.1307C7.12192 25.9563 7.02734 25.7197 7.02734 25.4731C7.02734 25.2265 7.12192 24.99 7.29026 24.8156C7.4586 24.6412 7.68692 24.5432 7.92499 24.5432H33.2817C33.5198 24.5432 33.7481 24.6412 33.9164 24.8156C34.0848 24.99 34.1793 25.2265 34.1793 25.4731C34.1793 25.7197 34.0848 25.9563 33.9164 26.1307C33.7481 26.305 33.5198 26.403 33.2817 26.403Z"
            fill="#CCCCCC" />
        <path opacity="0.5"
            d="M33.2817 31.2863H7.92499C7.68692 31.2863 7.4586 31.1883 7.29026 31.0139C7.12192 30.8395 7.02734 30.603 7.02734 30.3563C7.02734 30.1097 7.12192 29.8732 7.29026 29.6988C7.4586 29.5244 7.68692 29.4265 7.92499 29.4265H33.2817C33.5198 29.4265 33.7481 29.5244 33.9164 29.6988C34.0848 29.8732 34.1793 30.1097 34.1793 30.3563C34.1793 30.603 34.0848 30.8395 33.9164 31.0139C33.7481 31.1883 33.5198 31.2863 33.2817 31.2863Z"
            fill="#CCCCCC" />
        <path opacity="0.5"
            d="M33.2817 36.1668H7.92499C7.68692 36.1668 7.4586 36.0688 7.29026 35.8944C7.12192 35.72 7.02734 35.4835 7.02734 35.2369C7.02734 34.9903 7.12192 34.7538 7.29026 34.5794C7.4586 34.405 7.68692 34.307 7.92499 34.307H33.2817C33.5198 34.307 33.7481 34.405 33.9164 34.5794C34.0848 34.7538 34.1793 34.9903 34.1793 35.2369C34.1793 35.4835 34.0848 35.72 33.9164 35.8944C33.7481 36.0688 33.5198 36.1668 33.2817 36.1668Z"
            fill="#CCCCCC" />
        <path opacity="0.5"
            d="M33.2817 41.0495H7.92499C7.68692 41.0495 7.4586 40.9516 7.29026 40.7772C7.12192 40.6028 7.02734 40.3663 7.02734 40.1197C7.02734 39.873 7.12192 39.6365 7.29026 39.4621C7.4586 39.2877 7.68692 39.1898 7.92499 39.1898H33.2817C33.5198 39.1898 33.7481 39.2877 33.9164 39.4621C34.0848 39.6365 34.1793 39.873 34.1793 40.1197C34.1793 40.3663 34.0848 40.6028 33.9164 40.7772C33.7481 40.9516 33.5198 41.0495 33.2817 41.0495Z"
            fill="#CCCCCC" />
        <path opacity="0.5"
            d="M33.2817 45.9301H7.92499C7.68692 45.9301 7.4586 45.8321 7.29026 45.6577C7.12192 45.4834 7.02734 45.2468 7.02734 45.0002C7.02734 44.7536 7.12192 44.5171 7.29026 44.3427C7.4586 44.1683 7.68692 44.0703 7.92499 44.0703H33.2817C33.5198 44.0703 33.7481 44.1683 33.9164 44.3427C34.0848 44.5171 34.1793 44.7536 34.1793 45.0002C34.1793 45.2468 34.0848 45.4834 33.9164 45.6577C33.7481 45.8321 33.5198 45.9301 33.2817 45.9301Z"
            fill="#CCCCCC" />
    </g>
    <path
        d="M67.1178 87.9432H21.1128C20.0224 87.942 18.977 87.5083 18.206 86.7373C17.4349 85.9662 17.0012 84.9208 17 83.8304V17.1128C17.0012 16.0224 17.4349 14.977 18.206 14.206C18.977 13.4349 20.0224 13.0012 21.1128 13H67.1178C68.2082 13.0012 69.2536 13.4349 70.0247 14.206C70.7957 14.977 71.2294 16.0224 71.2306 17.1128V83.8304C71.2294 84.9208 70.7957 85.9662 70.0247 86.7373C69.2536 87.5083 68.2082 87.942 67.1178 87.9432Z"
        fill="#E5E5E5" />
    <path
        d="M67.1985 85.3192H21.0315C20.6954 85.3188 20.3731 85.1851 20.1354 84.9474C19.8978 84.7097 19.7641 84.3875 19.7637 84.0514V16.8919C19.7641 16.5558 19.8978 16.2335 20.1354 15.9958C20.3731 15.7582 20.6954 15.6245 21.0315 15.6241H67.1985C67.5346 15.6245 67.8568 15.7582 68.0945 15.9958C68.3322 16.2335 68.4659 16.5558 68.4663 16.8919V84.0514C68.4659 84.3875 68.3322 84.7097 68.0945 84.9474C67.8568 85.1851 67.5346 85.3188 67.1985 85.3192Z"
        fill="white" />
    <path
        d="M43.9397 14.6096C44.1329 14.6096 44.2896 14.453 44.2896 14.2597C44.2896 14.0665 44.1329 13.9099 43.9397 13.9099C43.7465 13.9099 43.5898 14.0665 43.5898 14.2597C43.5898 14.453 43.7465 14.6096 43.9397 14.6096Z"
        fill="white" />
    <path d="M63.2498 36.2209H37.5723V37.6963H63.2498V36.2209Z" fill="#E5E5E5" />
    <path d="M63.2498 40.893H37.5723V42.3684H63.2498V40.893Z" fill="#E5E5E5" />
    <path d="M63.2498 45.5646H37.5723V47.04H63.2498V45.5646Z" fill="#E5E5E5" />
    <path d="M33.9772 37.1327H24.9814V46.1284H33.9772V37.1327Z" fill="#E5E5E5" />
    <path
        d="M35.4816 64.7225C37.4557 64.7225 39.056 63.1222 39.056 61.1482C39.056 59.1741 37.4557 57.5738 35.4816 57.5738C33.5075 57.5738 31.9072 59.1741 31.9072 61.1482C31.9072 63.1222 33.5075 64.7225 35.4816 64.7225Z"
        fill="#657277" />
    <path
        d="M45.0145 64.0685C46.6276 64.0685 47.9353 62.7609 47.9353 61.1478C47.9353 59.5347 46.6276 58.227 45.0145 58.227C43.4014 58.227 42.0938 59.5347 42.0938 61.1478C42.0938 62.7609 43.4014 64.0685 45.0145 64.0685Z"
        fill="#889499" />
    <path
        d="M54.5465 62.9251C55.5279 62.9251 56.3235 62.1295 56.3235 61.1481C56.3235 60.1667 55.5279 59.3712 54.5465 59.3712C53.5651 59.3712 52.7695 60.1667 52.7695 61.1481C52.7695 62.1295 53.5651 62.9251 54.5465 62.9251Z"
        fill="#B7C0C2" />
    <path
        d="M73.7272 86.4544C82.9654 86.4544 90.4544 78.9654 90.4544 69.7272C90.4544 60.489 82.9654 53 73.7272 53C64.489 53 57 60.489 57 69.7272C57 78.9654 64.489 86.4544 73.7272 86.4544Z"
        fill="#0053D7" />
    <path
        d="M78.6841 70.8701L74.5244 75.1546C74.4339 75.2458 74.3257 75.3177 74.2065 75.3657C74.0873 75.4137 73.9596 75.4369 73.8311 75.4339H73.8173C73.6885 75.4367 73.5605 75.4134 73.441 75.3654C73.3215 75.3174 73.213 75.2457 73.122 75.1546L68.9643 70.8701C68.9505 70.8543 68.9346 70.8404 68.9207 70.8266C68.7548 70.6486 68.6662 70.412 68.6743 70.1688C68.6825 69.9256 68.7868 69.6956 68.9643 69.5291C69.1542 69.3507 69.4049 69.2513 69.6655 69.2513C69.9261 69.2513 70.1769 69.3507 70.3667 69.5291L72.8308 72.1042V65.4645C72.8423 65.2088 72.952 64.9673 73.137 64.7904C73.3221 64.6134 73.5682 64.5147 73.8242 64.5147C74.0802 64.5147 74.3263 64.6134 74.5114 64.7904C74.6964 64.9673 74.8061 65.2088 74.8176 65.4645V72.1042L77.2797 69.5291C77.47 69.3506 77.7211 69.2513 77.9819 69.2513C78.2428 69.2513 78.4939 69.3506 78.6841 69.5291C78.698 69.543 78.7119 69.5569 78.7277 69.5727C78.8932 69.7509 78.9815 69.9873 78.9733 70.2304C78.9652 70.4735 78.8612 70.7034 78.6841 70.8701Z"
        fill="white" />
</svg>