<svg width="16" height="16" viewBox="0 0 16 16" fill="none" xmlns="http://www.w3.org/2000/svg">
  <path fill-rule="evenodd" clip-rule="evenodd" d="M5.33333 7.99999C5.33333 9.47275 6.52723 10.6667 7.99999 10.6667C9.47275 10.6667 10.6667 9.47275 10.6667 7.99999C10.6667 6.52723 9.47275 5.33332 7.99999 5.33332C6.52723 5.33332 5.33333 6.52723 5.33333 7.99999ZM9.33333 7.99999C9.33333 8.73637 8.73637 9.33332 7.99999 9.33332C7.26361 9.33332 6.66666 8.73637 6.66666 7.99999C6.66666 7.26361 7.26361 6.66666 7.99999 6.66666C8.73637 6.66666 9.33333 7.26361 9.33333 7.99999Z" fill="currentColor"/>
  <path fill-rule="evenodd" clip-rule="evenodd" d="M7.99998 2.66666C9.81835 2.66666 11.5571 3.62041 13.1775 5.18742C13.7303 5.72202 14.2304 6.29276 14.6707 6.86374C14.9364 7.20828 15.125 7.47932 15.2283 7.64079L15.458 7.99999L15.2283 8.35919C15.125 8.52066 14.9364 8.7917 14.6707 9.13624C14.2304 9.70722 13.7303 10.278 13.1775 10.8126C11.5571 12.3796 9.81835 13.3333 7.99998 13.3333C6.18162 13.3333 4.44287 12.3796 2.82246 10.8126C2.26965 10.278 1.76952 9.70722 1.32926 9.13624C1.06359 8.7917 0.874968 8.52066 0.771695 8.35919L0.541962 7.99999L0.771695 7.64079C0.874968 7.47932 1.06359 7.20828 1.32926 6.86374C1.76952 6.29276 2.26965 5.72202 2.82246 5.18742C4.44287 3.62041 6.18162 2.66666 7.99998 2.66666ZM13.6148 7.67791C13.2117 7.15514 12.7534 6.63212 12.2506 6.14589C10.855 4.79624 9.40337 3.99999 7.99999 3.99999C6.5966 3.99999 5.14498 4.79624 3.74935 6.14589C3.24654 6.63212 2.78824 7.15514 2.38515 7.67791C2.29809 7.79081 2.21764 7.89854 2.1441 7.99999C2.21764 8.10144 2.29809 8.20917 2.38515 8.32207C2.78824 8.84484 3.24654 9.36786 3.74935 9.85409C5.14498 11.2037 6.5966 12 7.99999 12C9.40337 12 10.855 11.2037 12.2506 9.85409C12.7534 9.36786 13.2117 8.84484 13.6148 8.32207C13.7019 8.20917 13.7823 8.10144 13.8559 7.99999C13.7823 7.89854 13.7019 7.79081 13.6148 7.67791Z" fill="currentColor"/>
</svg>
