<svg width="24" height="24" viewBox="0 0 24 24" fill="none" xmlns="http://www.w3.org/2000/svg">
  <path d="M2 6.5C2 5.67157 2.67157 5 3.5 5H20.5C21.3284 5 22 5.67157 22 6.5C22 7.32843 21.3284 8 20.5 8H3.5C2.67157 8 2 7.32843 2 6.5Z" fill="currentColor"/>
  <path d="M5 12.5C5 11.6716 5.67157 11 6.5 11H17.5C18.3284 11 19 11.6716 19 12.5C19 13.3284 18.3284 14 17.5 14H6.5C5.67157 14 5 13.3284 5 12.5Z" fill="currentColor"/>
  <path d="M10.5 17C9.67157 17 9 17.6716 9 18.5C9 19.3284 9.67157 20 10.5 20H13.5C14.3284 20 15 19.3284 15 18.5C15 17.6716 14.3284 17 13.5 17H10.5Z" fill="currentColor"/>
</svg>
