<svg width="24" height="24" viewBox="0 0 24 24" fill="none" xmlns="http://www.w3.org/2000/svg">
<path d="M12.4051 7.27539C16.4542 4.07879 14.3761 2 14.3761 2C14.9356 4.20339 13.4323 5.38047 11.9631 6.53087C11.2305 7.10448 10.5064 7.67146 10.0507 8.35573C9.1176 9.75675 10.5085 11.2621 12.4038 12.9721C12.2362 12.5934 11.9778 12.2254 11.7162 11.8528C10.8239 10.582 9.89435 9.25824 12.4051 7.27539Z" fill="#F58219"/>
<path d="M13.0515 13.6732C13.0515 13.6732 14.2697 12.6737 13.305 11.563C10.0348 7.79498 16.8816 6.08496 16.8816 6.08496C12.7071 8.50607 13.2658 9.28211 14.2425 10.6388C14.2863 10.6997 14.331 10.7617 14.3761 10.8252C15.5011 12.4087 13.0515 13.6732 13.0515 13.6732Z" fill="#F58219"/>
<path d="M16.6389 16.6534C20.3912 14.7035 18.6563 12.8297 17.4453 13.0822C17.1485 13.1439 17.0162 13.1975 17.0162 13.1975C17.0162 13.1975 17.1264 13.0249 17.3368 12.9501C19.7325 12.1079 21.5749 15.4342 16.5635 16.7516C16.5635 16.7517 16.6215 16.6998 16.6389 16.6534Z" fill="#4E7896"/>
<path d="M8.83112 14.1855C6.48339 13.872 10.1183 13.0086 10.1183 13.0086C10.1183 13.0086 8.70676 12.9134 6.97065 13.7526C4.91778 14.7457 12.0486 15.1973 15.7398 14.2265C16.1236 13.9644 16.654 13.7373 16.654 13.7373C16.654 13.7373 15.1435 14.0071 13.6392 14.134C11.7985 14.2882 9.8224 14.3182 8.83112 14.1855Z" fill="#4E7896"/>
<path d="M9.72393 16.0475C8.41476 15.912 9.27198 15.2775 9.27198 15.2775C5.88428 16.4019 11.1568 17.677 15.8906 16.2927C15.3874 16.1153 15.0674 15.7909 15.0674 15.7909C12.7539 16.2364 11.4169 16.2221 9.72393 16.0475Z" fill="#4E7896"/>
<path d="M10.2944 18.0621C8.98619 17.9117 9.75047 17.4672 9.75047 17.4672C6.67527 18.3265 11.621 20.1017 15.5362 18.4237C14.8949 18.1743 14.4357 17.8864 14.4357 17.8864C12.6892 18.2169 11.8792 18.2429 10.2944 18.0621Z" fill="#4E7896"/>
<path d="M18.4835 19.0867C18.4835 19.0867 19.0491 19.5527 17.8607 19.9133C15.6007 20.5979 8.45463 20.8046 6.46948 19.9405C5.75586 19.6301 7.09409 19.1993 7.51504 19.1089C7.95406 19.0137 8.20494 19.0314 8.20494 19.0314C7.41133 18.4723 3.07537 20.1292 6.00248 20.6036C13.9852 21.8982 20.5541 20.0207 18.4835 19.0867Z" fill="#4E7896"/>
<path d="M19.7506 20.105C19.6196 21.8092 14.0887 22.1677 10.487 21.9372C8.13736 21.7865 7.66642 21.4099 7.6595 21.4044C9.90832 21.7752 13.6998 21.8427 16.774 21.2641C19.4988 20.7511 19.7506 20.105 19.7506 20.105Z" fill="#4E7896"/>
</svg>
