<svg width="16" height="16" viewBox="0 0 16 16" fill="none" xmlns="http://www.w3.org/2000/svg">
    <path
        d="M4.12123 9.69826L4.44516 10.9159H5.57322L3.78967 5.08411H2.81786L1 10.9159H2.12806L2.45581 9.69826H4.12123ZM2.71877 8.74099L3.30186 6.59413L3.8697 8.74099H2.71877Z"
        fill="currentColor" />
    <path
        d="M5.76027 10.9159H7.78392C8.0888 10.9159 8.3632 10.8798 8.6071 10.8077C8.85101 10.7356 9.05807 10.6275 9.2283 10.4833C9.39852 10.3391 9.52937 10.1602 9.62083 9.9466C9.7123 9.73298 9.75803 9.48598 9.75803 9.20561C9.75803 9.05875 9.73897 8.91722 9.70086 8.78104C9.66529 8.64219 9.6094 8.51402 9.53318 8.39653C9.4595 8.28705 9.36804 8.19092 9.25879 8.10814C9.15208 8.02537 9.00726 7.95728 8.82433 7.90387V7.89987C8.91833 7.86248 9.00345 7.81709 9.07967 7.76368C9.15843 7.71028 9.2283 7.65154 9.28927 7.58745C9.40106 7.46996 9.48491 7.33378 9.5408 7.17891C9.59924 7.02136 9.62973 6.85447 9.63227 6.67824C9.63227 6.40587 9.58399 6.16956 9.48745 5.96929C9.39344 5.76903 9.25879 5.60347 9.08348 5.47263C8.90817 5.34179 8.69603 5.24433 8.44704 5.18024C8.20059 5.11615 7.9262 5.08411 7.62386 5.08411H5.76027V10.9159ZM6.83498 8.34446H7.83346C7.98336 8.34713 8.11294 8.36849 8.22219 8.40854C8.33144 8.4486 8.42036 8.50601 8.48896 8.58077C8.55756 8.65287 8.6071 8.74099 8.63759 8.84513C8.67062 8.94927 8.68713 9.06676 8.68713 9.1976C8.68713 9.3231 8.66554 9.43658 8.62235 9.53805C8.58169 9.63952 8.52072 9.7263 8.43942 9.7984C8.36574 9.86248 8.273 9.91322 8.16121 9.9506C8.05196 9.98798 7.92747 10.0067 7.78773 10.0067H6.83498V8.34446ZM6.83498 7.53138V6.00134H7.62767C7.80044 6.00401 7.95034 6.02403 8.07737 6.06142C8.20694 6.0988 8.30984 6.15888 8.38606 6.24166C8.4445 6.3004 8.48769 6.37383 8.51564 6.46195C8.54612 6.55007 8.56137 6.65287 8.56137 6.77036C8.56137 6.88251 8.54358 6.98264 8.50801 7.07076C8.47499 7.15888 8.42671 7.23364 8.3632 7.29506C8.28698 7.3725 8.18662 7.43124 8.06213 7.4713C7.93763 7.50868 7.79408 7.52871 7.63148 7.53138H6.83498Z"
        fill="currentColor" />
    <path
        d="M13.9962 9.08945H12.9253C12.9151 9.26569 12.8872 9.41656 12.8414 9.54206C12.7957 9.66756 12.7335 9.77036 12.6547 9.85047C12.5759 9.93057 12.4807 9.98932 12.3689 10.0267C12.2571 10.0641 12.1313 10.0828 11.9916 10.0828C11.8874 10.0828 11.7921 10.0708 11.7058 10.0467C11.6219 10.02 11.5457 9.97997 11.4771 9.92657C11.4136 9.8785 11.3564 9.81842 11.3056 9.74633C11.2573 9.67423 11.2154 9.59146 11.1798 9.498C11.129 9.36182 11.0909 9.20294 11.0655 9.02136C11.0426 8.83712 11.0312 8.62884 11.0312 8.39653V7.60347C11.0312 7.43258 11.0388 7.2737 11.0541 7.12684C11.0693 6.9773 11.0935 6.84112 11.1265 6.71829C11.1697 6.56075 11.2268 6.42323 11.298 6.30574C11.3717 6.18558 11.4606 6.09346 11.5648 6.02937C11.6257 5.99199 11.6918 5.96395 11.7629 5.94526C11.8366 5.92657 11.9154 5.91722 11.9992 5.91722C12.1567 5.91722 12.2914 5.93992 12.4032 5.98531C12.5175 6.02804 12.6128 6.09212 12.689 6.17757C12.7627 6.26569 12.8186 6.37517 12.8567 6.50601C12.8973 6.63685 12.9228 6.78905 12.9329 6.96262H14C13.9746 6.65821 13.9136 6.38451 13.8171 6.14152C13.7205 5.89853 13.5884 5.69292 13.4207 5.5247C13.253 5.35648 13.0498 5.22697 12.811 5.13618C12.5747 5.04539 12.3041 5 11.9992 5C11.7934 5 11.6003 5.02804 11.4199 5.08411C11.2421 5.13752 11.0782 5.21495 10.9283 5.31642C10.7606 5.43658 10.6107 5.58344 10.4786 5.75701C10.3465 5.93057 10.2398 6.12817 10.1585 6.3498C10.0874 6.53138 10.034 6.72897 9.99843 6.94259C9.96286 7.15354 9.94507 7.3765 9.94507 7.61148V8.39653C9.94507 8.64753 9.96413 8.88518 10.0022 9.10948C10.0429 9.33378 10.1001 9.53939 10.1737 9.7263C10.25 9.91322 10.3427 10.0841 10.4519 10.239C10.5637 10.3939 10.6908 10.526 10.833 10.6355C10.988 10.753 11.1621 10.8438 11.3552 10.9079C11.5508 10.9693 11.7629 11 11.9916 11C12.2812 11 12.5455 10.9559 12.7843 10.8678C13.0231 10.777 13.2289 10.6489 13.4017 10.4833C13.5744 10.3178 13.7116 10.1175 13.8133 9.88251C13.9174 9.64753 13.9784 9.38318 13.9962 9.08945Z"
        fill="currentColor" />
</svg>