<svg width="20" height="20" viewBox="0 0 20 20" fill="none" xmlns="http://www.w3.org/2000/svg">
    <path fill-rule="evenodd" clip-rule="evenodd"
        d="M7.49996 3.33333C7.49996 2.87309 7.87305 2.49999 8.33329 2.49999H11.6666C12.1269 2.49999 12.5 2.87309 12.5 3.33333V4.16666H7.49996V3.33333ZM5.83329 4.16666V3.33333C5.83329 1.95262 6.95258 0.833328 8.33329 0.833328H11.6666C13.0473 0.833328 14.1666 1.95262 14.1666 3.33333V4.16666H15.8327L15.8333 4.16666L15.8339 4.16666H17.5C17.9602 4.16666 18.3333 4.53976 18.3333 5C18.3333 5.46023 17.9602 5.83333 17.5 5.83333H16.6666V16.6667C16.6666 18.0474 15.5473 19.1667 14.1666 19.1667H5.83329C4.45258 19.1667 3.33329 18.0474 3.33329 16.6667V5.83333H2.49996C2.03972 5.83333 1.66663 5.46023 1.66663 5C1.66663 4.53976 2.03972 4.16666 2.49996 4.16666H4.16599L4.16663 4.16666L4.16726 4.16666H5.83329ZM6.66663 5.83333H13.3333L15 5.83333V16.6667C15 17.1269 14.6269 17.5 14.1666 17.5H5.83329C5.37305 17.5 4.99996 17.1269 4.99996 16.6667V5.83333L6.66663 5.83333ZM8.33329 8.33333C8.79353 8.33333 9.16663 8.70642 9.16663 9.16666V14.1667C9.16663 14.6269 8.79353 15 8.33329 15C7.87306 15 7.49996 14.6269 7.49996 14.1667V9.16666C7.49996 8.70642 7.87306 8.33333 8.33329 8.33333ZM12.5 9.16666C12.5 8.70642 12.1269 8.33333 11.6666 8.33333C11.2064 8.33333 10.8333 8.70642 10.8333 9.16666V14.1667C10.8333 14.6269 11.2064 15 11.6666 15C12.1269 15 12.5 14.6269 12.5 14.1667V9.16666Z"
        fill="currentColor" />
</svg>