<svg width="20" height="20" viewBox="0 0 20 20" fill="none" xmlns="http://www.w3.org/2000/svg">
  <path fill-rule="evenodd" clip-rule="evenodd" d="M18.3333 8.75001C18.3333 10.8321 16.5673 12.5 14.4118 12.5H10.8333V13.4756C11.5437 13.7267 12.1067 14.2897 12.3577 15H16.6667V16.6667H12.3577C12.0145 17.6377 11.0885 18.3333 10 18.3333C8.91148 18.3333 7.98545 17.6377 7.64225 16.6667H3.33333V15H7.64225C7.89332 14.2897 8.45632 13.7267 9.16666 13.4756V12.5H6.02941C3.63025 12.5 1.66666 10.6455 1.66666 8.33334C1.66666 6.38009 3.0766 4.72823 4.99788 4.28387C5.98227 2.68399 7.8921 1.66667 10 1.66667C12.4839 1.66667 14.661 3.07821 15.411 5.12285C17.0977 5.54618 18.3333 7.01295 18.3333 8.75001ZM10.8333 15.8333C10.8333 16.2936 10.4602 16.6667 10 16.6667C9.53976 16.6667 9.16666 16.2936 9.16666 15.8333C9.16666 15.3731 9.53976 15 10 15C10.4602 15 10.8333 15.3731 10.8333 15.8333ZM14.6723 6.68038C15.8118 6.80121 16.6667 7.69851 16.6667 8.75001C16.6667 9.88961 15.6674 10.8333 14.4118 10.8333H6.02941C4.53009 10.8333 3.33333 9.70306 3.33333 8.33334C3.33333 7.09485 4.31736 6.03444 5.64399 5.85863L6.08343 5.80039L6.28074 5.40344C6.89246 4.17279 8.34461 3.33334 10 3.33334C11.9553 3.33334 13.5928 4.5005 13.9482 6.03922L14.0818 6.61777L14.6723 6.68038Z" fill="currentColor"/>
</svg>
