<svg width="16" height="16" viewBox="0 0 16 16" fill="none" xmlns="http://www.w3.org/2000/svg">
<path fill-rule="evenodd" clip-rule="evenodd" d="M9.00001 5.41421V13C9.00001 13.5523 8.5523 14 8.00001 14C7.44773 14 7.00001 13.5523 7.00001 13V5.41421L4.41423 8C4.0237 8.39052 3.39054 8.39052 3.00001 8C2.60949 7.60947 2.60949 6.97631 3.00001 6.58578L7.29291 2.29289C7.68343 1.90237 8.3166 1.90237 8.70712 2.29289L13 6.58578C13.3905 6.97631 13.3905 7.60947 13 8C12.6095 8.39052 11.9763 8.39052 11.5858 8L9.00001 5.41421Z" fill="currentColor"/>
<path fill-rule="evenodd" clip-rule="evenodd" d="M8.99999 5.41421V13C8.99999 13.5523 8.55227 14 7.99999 14C7.4477 14 6.99999 13.5523 6.99999 13V5.41421L4.4142 8C4.02367 8.39052 3.39051 8.39052 2.99999 8C2.60946 7.60948 2.60946 6.97631 2.99999 6.58579L7.29288 2.29289C7.6834 1.90237 8.31657 1.90237 8.70709 2.29289L13 6.58579C13.3905 6.97631 13.3905 7.60948 13 8C12.6095 8.39052 11.9763 8.39052 11.5858 8L8.99999 5.41421Z" fill="currentColor"/>
</svg>
