<svg width="16" height="16" viewBox="0 0 16 16" fill="none" xmlns="http://www.w3.org/2000/svg">
    <rect x="1.6" y="4.6" width="12.8" height="6.8" rx="3.4" stroke="currentColor" stroke-width="1.2" />
    <path
        d="M6.83398 8.00001C6.83398 8.94678 6.05048 9.71429 5.08398 9.71429C4.11749 9.71429 3.33398 8.94678 3.33398 8.00001C3.33398 7.05323 4.11749 6.28572 5.08398 6.28572C6.05048 6.28572 6.83398 7.05323 6.83398 8.00001Z"
        fill="currentColor" />
    <path fill-rule="evenodd" clip-rule="evenodd"
        d="M5 7C4.44772 7 4 7.44772 4 8C4 8.55228 4.44772 9 5 9C5.55228 9 6 8.55228 6 8C6 7.44772 5.55228 7 5 7ZM3 8C3 6.89543 3.89543 6 5 6C6.10457 6 7 6.89543 7 8C7 9.10457 6.10457 10 5 10C3.89543 10 3 9.10457 3 8Z"
        fill="currentColor" />
</svg>