<svg width="24" height="24" viewBox="0 0 24 24" fill="none" xmlns="http://www.w3.org/2000/svg">
  <path fill-rule="evenodd" clip-rule="evenodd" d="M12 23C18.0751 23 23 18.0751 23 12C23 5.92487 18.0751 1 12 1C5.92487 1 1 5.92487 1 12C1 18.0751 5.92487 23 12 23ZM10.7471 13.2929L15.3329 8.70708C15.7234 8.31655 16.3566 8.31655 16.7471 8.70708C17.1376 9.0976 17.1376 9.73077 16.7471 10.1213L11.4542 15.4142C11.0637 15.8047 10.4305 15.8047 10.04 15.4142L7.74712 13.1213C7.35659 12.7308 7.35659 12.0976 7.74712 11.7071C8.13764 11.3166 8.77081 11.3166 9.16133 11.7071L10.7471 13.2929Z" fill="currentColor"/>
</svg>
