<svg width="24" height="24" viewBox="0 0 24 24" fill="none" xmlns="http://www.w3.org/2000/svg">
  <g id="close-circle">
    <path id="icon" fill-rule="evenodd" clip-rule="evenodd" d="M12 23C5.92487 23 1 18.0751 1 12C1 5.92487 5.92487 1 12 1C18.0751 1 23 5.92487 23 12C23 18.0751 18.0751 23 12 23ZM12 21C16.9706 21 21 16.9706 21 12C21 7.02944 16.9706 3 12 3C7.02944 3 3 7.02944 3 12C3 16.9706 7.02944 21 12 21ZM9.41421 16L12 13.4142L14.5858 16C14.9763 16.3905 15.6095 16.3905 16 16C16.3905 15.6095 16.3905 14.9763 16 14.5858L13.4142 12L16 9.41421C16.3905 9.02369 16.3905 8.39052 16 8C15.6095 7.60948 14.9763 7.60948 14.5858 8L12 10.5858L9.41421 8C9.02369 7.60948 8.39052 7.60948 8 8C7.60948 8.39052 7.60948 9.02369 8 9.41421L10.5858 12L8 14.5858C7.60948 14.9763 7.60948 15.6095 8 16C8.39052 16.3905 9.02369 16.3905 9.41421 16Z" fill="currentColor"/>
  </g>
</svg>
