<svg width="24" height="24" viewBox="0 0 24 24" fill="none" xmlns="http://www.w3.org/2000/svg">
  <g id="close">
    <path id="icon" fill-rule="evenodd" clip-rule="evenodd" d="M12 14.1213L6.62134 19.4999C6.03556 20.0857 5.08581 20.0857 4.50002 19.4999C3.91424 18.9141 3.91424 17.9644 4.50002 17.3786L9.8787 11.9999L4.50002 6.62125C3.91423 6.03546 3.91424 5.08572 4.50002 4.49993C5.08581 3.91414 6.03556 3.91414 6.62134 4.49993L12 9.87861L17.3787 4.49993C17.9645 3.91414 18.9142 3.91414 19.5 4.49993C20.0858 5.08572 20.0858 6.03546 19.5 6.62125L14.1213 11.9999L19.5 17.3786C20.0858 17.9644 20.0858 18.9141 19.5 19.4999C18.9142 20.0857 17.9645 20.0857 17.3787 19.4999L12 14.1213Z" fill="currentColor"/>
  </g>
</svg>
