<svg width="16" height="16" viewBox="0 0 16 16" fill="none" xmlns="http://www.w3.org/2000/svg">
  <path fill-rule="evenodd" clip-rule="evenodd" d="M0 8C0 12.4183 3.58172 16 8 16C12.4183 16 16 12.4183 16 8C16 3.58172 12.4183 0 8 0C3.58172 0 0 3.58172 0 8ZM6.41417 11L7.99995 9.41423L9.58574 11C9.97626 11.3905 10.6094 11.3905 11 11C11.3905 10.6095 11.3905 9.97633 11 9.5858L9.41417 8.00001L11 6.41423C11.3905 6.0237 11.3905 5.39054 11 5.00001C10.6094 4.60949 9.97626 4.60949 9.58574 5.00002L7.99995 6.5858L6.41417 5.00001C6.02364 4.60949 5.39048 4.60949 4.99995 5.00001C4.60943 5.39054 4.60943 6.0237 4.99995 6.41423L6.58574 8.00001L4.99995 9.5858C4.60943 9.97633 4.60943 10.6095 4.99995 11C5.39048 11.3905 6.02364 11.3905 6.41417 11Z" fill="currentColor"/>
</svg>
