<svg width="48" height="48" viewBox="0 0 48 48" fill="none" xmlns="http://www.w3.org/2000/svg">
    <path fill-rule="evenodd" clip-rule="evenodd"
        d="M34 34V38H36C41.5228 38 46 33.5228 46 28C46 22.9699 42.2861 18.8073 37.4509 18.1045C35.75 12.2112 30.3172 8 24 8C19.3069 8 15.018 10.3301 12.4398 14.1005C6.53406 14.8669 2 19.9175 2 26C2 32.6274 7.37258 38 14 38V34C9.58172 34 6 30.4183 6 26C6 21.7009 9.39868 18.1743 13.6793 18.0063L14.7813 17.963L15.3328 17.008C17.1086 13.9329 20.3848 12 24 12C28.9023 12 33.0607 15.5525 33.8619 20.3323L34.1475 22.0364L35.875 22.0013C35.9061 22.0007 35.9217 22.0005 35.9373 22.0003C35.953 22.0002 35.9686 22.0001 36 22C39.3137 22 42 24.6863 42 28C42 31.3137 39.3137 34 36 34H34ZM26 42V28.8284L30.5858 33.4142L33.4142 30.5858L24 21.1716L14.5858 30.5858L17.4142 33.4142L22 28.8284V42H26Z"
        fill="currentColor" />
</svg>