<svg width="24" height="24" viewBox="0 0 24 24" fill="none" xmlns="http://www.w3.org/2000/svg">
  <path d="M21.7071 3.70711L16.4142 9H20C20.5523 9 21 9.44772 21 10C21 10.5523 20.5523 11 20 11H14C13.4477 11 13 10.5523 13 10V4C13 3.44772 13.4477 3 14 3C14.5523 3 15 3.44772 15 4V7.58579L20.2929 2.29289C20.6834 1.90237 21.3166 1.90237 21.7071 2.29289C22.0976 2.68342 22.0976 3.31658 21.7071 3.70711Z" fill="currentColor"/>
  <path d="M4 13C3.44772 13 3 13.4477 3 14C3 14.5523 3.44772 15 4 15H7.58579L2.29289 20.2929C1.90237 20.6834 1.90237 21.3166 2.29289 21.7071C2.68342 22.0976 3.31658 22.0976 3.70711 21.7071L9 16.4142V20C9 20.5523 9.44772 21 10 21C10.5523 21 11 20.5523 11 20V14C11 13.4477 10.5523 13 10 13H4Z" fill="currentColor"/>
</svg>
