<svg width="64" height="64" viewBox="0 0 64 64" fill="none" xmlns="http://www.w3.org/2000/svg">
  <path fill-rule="evenodd" clip-rule="evenodd" d="M26.5 6C24.567 6 23 7.567 23 9.5V15H9.5C7.567 15 6 16.567 6 18.5V54.5C6 56.433 7.567 58 9.5 58H37.5C39.433 58 41 56.433 41 54.5V49H54.5C56.433 49 58 47.433 58 45.5V16.8787L47.1213 6H26.5ZM9 18H23V20H26V9H43V17.5C43 19.433 44.567 21 46.5 21H55V46H26V44H23V45.5C23 47.433 24.567 49 26.5 49H38V55H9V18ZM46 9.12132L54.8787 18H46V9.12132ZM35.841 27.2955H43.375C43.9963 27.2955 44.5 27.7992 44.5 28.4205C44.5 29.0418 43.9963 29.5455 43.375 29.5455H35.841L38.75 32.4545C39.1893 32.8938 39.1893 33.6062 38.75 34.0455C38.3106 34.4848 37.5983 34.4848 37.159 34.0455L32.2411 29.1276C31.8506 28.7371 31.8506 28.1039 32.2411 27.7134L37.159 22.7955C37.5983 22.3562 38.3106 22.3562 38.75 22.7955C39.1893 23.2348 39.1893 23.9471 38.75 24.3865L35.841 27.2955ZM20.125 35.5455H27.659L24.75 38.4545C24.3107 38.8938 24.3107 39.6062 24.75 40.0455C25.1893 40.4848 25.9016 40.4848 26.341 40.0455L31.2589 35.1276C31.6494 34.7371 31.6494 34.1039 31.2589 33.7134L26.341 28.7955C25.9016 28.3562 25.1893 28.3562 24.75 28.7955C24.3107 29.2348 24.3107 29.9471 24.75 30.3865L27.659 33.2955H20.125C19.5037 33.2955 19 33.7992 19 34.4205C19 35.0418 19.5037 35.5455 20.125 35.5455Z" fill="currentColor"/>
</svg>
