<svg width="16" height="16" viewBox="0 0 16 16" fill="none" xmlns="http://www.w3.org/2000/svg">
    <path fill-rule="evenodd" clip-rule="evenodd"
        d="M11.333 1.33334C11.7012 1.33334 11.9997 1.63182 11.9997 2.00001H13.333C14.0694 2.00001 14.6663 2.59696 14.6663 3.33334V13.3333C14.6663 14.0697 14.0694 14.6667 13.333 14.6667H2.66634C1.92996 14.6667 1.33301 14.0697 1.33301 13.3333V3.33334C1.33301 2.59696 1.92996 2.00001 2.66634 2.00001H3.99967C3.99967 1.63182 4.29815 1.33334 4.66634 1.33334C5.03453 1.33334 5.33301 1.63182 5.33301 2.00001H10.6663C10.6663 1.63182 10.9648 1.33334 11.333 1.33334ZM4.66634 4.00001C5.03453 4.00001 5.33301 3.70153 5.33301 3.33334H10.6663C10.6663 3.70153 10.9648 4.00001 11.333 4.00001C11.7012 4.00001 11.9997 3.70153 11.9997 3.33334H13.333V5.33334H2.66634V3.33334H3.99967C3.99967 3.70153 4.29815 4.00001 4.66634 4.00001ZM2.66634 6.66668V13.3333H13.333V6.66668H2.66634Z"
        fill="currentColor" />
</svg>