<svg width="24" height="24" viewBox="0 0 24 24" fill="none" xmlns="http://www.w3.org/2000/svg">
  <path d="M11.7071 15.2929L10.2929 16.7071L6.58579 13L10.2929 9.29289L11.7071 10.7071L9.41421 13L11.7071 15.2929Z" fill="currentColor"/>
  <path d="M17.4142 15L13.7071 11.2929L12.2929 12.7071L14.5858 15L12.2929 17.2929L13.7071 18.7071L17.4142 15Z" fill="currentColor"/>
  <path fill-rule="evenodd" clip-rule="evenodd" d="M5 1H15.4142L21 6.58579V21C21 22.1046 20.1046 23 19 23H5C3.89543 23 3 22.1046 3 21V3C3 1.89543 3.89543 1 5 1ZM13 3H5V21H19V9H15C13.8954 9 13 8.10457 13 7V3ZM15 3.41421V7H18.5858L15 3.41421Z" fill="currentColor"/>
</svg>
