<svg width="24" height="24" viewBox="0 0 24 24" fill="none" xmlns="http://www.w3.org/2000/svg">
<path fill-rule="evenodd" clip-rule="evenodd" d="M13.7542 10.5569C13.5032 10.6236 13.2486 10.6912 12.954 10.7672L12.9363 10.772C12.7923 10.8106 12.7773 10.8147 12.6434 10.6601C12.4827 10.478 12.3649 10.3602 12.1399 10.2531C11.4651 9.92103 10.8117 10.0174 10.2012 10.4138C9.47277 10.8851 9.09787 11.5813 9.10858 12.4489C9.1193 13.3058 9.70842 14.0128 10.5546 14.1306C11.283 14.227 11.8936 13.97 12.3756 13.4237C12.4471 13.3363 12.5127 13.243 12.5855 13.1395C12.6109 13.1034 12.6371 13.0661 12.6648 13.0273H10.5975C10.3725 13.0273 10.319 12.8881 10.394 12.706C10.5332 12.3739 10.7903 11.817 10.9402 11.5385C10.9724 11.4742 11.0474 11.3671 11.208 11.3671H14.6548C14.8097 10.8766 15.0609 10.4131 15.3959 9.97452C16.1779 8.94622 17.1205 8.41065 18.3951 8.18571C19.4877 7.9929 20.516 8.10001 21.4479 8.73199C22.2941 9.31041 22.819 10.0923 22.9582 11.1206C23.1403 12.5667 22.7226 13.7449 21.7264 14.7518C21.0194 15.4695 20.1518 15.9194 19.1557 16.1229C18.9656 16.1581 18.7756 16.1748 18.5886 16.1912C18.491 16.1998 18.3942 16.2083 18.2987 16.2193C17.324 16.1979 16.4349 15.9194 15.6851 15.2767C15.1579 14.8209 14.7947 14.2608 14.6141 13.6087C14.4889 13.8616 14.3392 14.1038 14.1644 14.3341C13.3932 15.3517 12.3863 15.9837 11.1116 16.1551C10.0619 16.2943 9.08716 16.0908 8.23025 15.4481C7.4376 14.8483 6.98772 14.0556 6.86989 13.0702C6.73064 11.9026 7.07341 10.8529 7.78036 9.93174C8.54088 8.93557 9.54775 8.3036 10.7796 8.07866C11.7864 7.89656 12.7505 8.01439 13.6181 8.60352C14.1858 8.97842 14.5928 9.49257 14.8606 10.1138C14.9249 10.2102 14.8821 10.2638 14.7535 10.2959C14.3781 10.3913 14.0689 10.4734 13.7542 10.5569ZM20.8406 11.7773C20.8427 11.8133 20.8449 11.8512 20.8481 11.8919C20.7945 12.8131 20.3339 13.4986 19.4877 13.9378C18.92 14.227 18.3309 14.2591 17.7417 14.002C16.9705 13.6593 16.5635 12.8131 16.7563 11.9776C16.9919 10.9707 17.6346 10.3387 18.6308 10.1138C19.6484 9.87812 20.6231 10.478 20.8159 11.5384C20.8311 11.6142 20.8355 11.6901 20.8406 11.7773Z" fill="#00ACD7"/>
<path d="M2.62814 10.4352C2.60672 10.4673 2.61743 10.4887 2.66028 10.4887L6.53782 10.4994C6.56996 10.4994 6.62351 10.4673 6.64494 10.4352L6.82703 10.1567C6.84845 10.1245 6.83774 10.0924 6.7949 10.0924H2.97091C2.92806 10.0924 2.87451 10.1138 2.85308 10.146L2.62814 10.4352Z" fill="#00ACD7"/>
<path d="M1.04285 11.4742C1 11.4742 0.989289 11.4528 1.01071 11.4206L1.23565 11.1314C1.25707 11.0993 1.31063 11.0779 1.35348 11.0779H6.2379C6.28074 11.0779 6.30217 11.11 6.29146 11.1421L6.20576 11.3992C6.19505 11.4421 6.15221 11.4635 6.10936 11.4635L1.04285 11.4742Z" fill="#00ACD7"/>
<path d="M3.63513 12.4597C3.59229 12.4597 3.58157 12.4275 3.603 12.3954L3.75296 12.1276C3.77438 12.0955 3.81723 12.0634 3.86007 12.0634H6.00236C6.04521 12.0634 6.06663 12.0955 6.06663 12.1383L6.04521 12.3954C6.04521 12.4383 6.00236 12.4704 5.97023 12.4704L3.63513 12.4597Z" fill="#00ACD7"/>
</svg>
