<svg width="16" height="16" viewBox="0 0 16 16" fill="none" xmlns="http://www.w3.org/2000/svg">
<circle cx="8" cy="8" r="1" fill="#272C2E"/>
<path d="M1.5 9.5C0.947715 9.5 0.5 9.94772 0.5 10.5C0.5 11.0523 0.947715 11.5 1.5 11.5L4.5 11.5L4.5 14.5C4.5 15.0523 4.94771 15.5 5.5 15.5C6.05228 15.5 6.5 15.0523 6.5 14.5L6.5 10.5C6.5 10.4655 6.49825 10.4314 6.49484 10.3978C6.44363 9.8935 6.01777 9.5 5.5 9.5H1.5Z" fill="currentColor"/>
<path d="M9.5 5.5C9.5 6.05228 9.94772 6.5 10.5 6.5H14.5C15.0523 6.5 15.5 6.05228 15.5 5.5C15.5 4.94772 15.0523 4.5 14.5 4.5L11.5 4.5V1.5C11.5 0.947716 11.0523 0.5 10.5 0.5C9.94772 0.5 9.5 0.947715 9.5 1.5V5.5Z" fill="currentColor"/>
<path d="M9.5 5.5C9.5 6.05228 9.94772 6.5 10.5 6.5H14.5C15.0523 6.5 15.5 6.05228 15.5 5.5C15.5 4.94772 15.0523 4.5 14.5 4.5L11.5 4.5V1.5C11.5 0.947716 11.0523 0.5 10.5 0.5C9.94772 0.5 9.5 0.947715 9.5 1.5V5.5Z" fill="currentColor"/>
</svg>
