<svg width="24" height="24" viewBox="0 0 24 24" fill="none" xmlns="http://www.w3.org/2000/svg">
<path fill-rule="evenodd" clip-rule="evenodd" d="M13.0962 18.2554L12 19.2126L10.9038 18.2554C6.98842 14.8366 5 11.8112 5 9C5 5.02141 8.10349 2 12 2C15.8965 2 19 5.02141 19 9C19 11.8112 17.0116 14.8366 13.0962 18.2554ZM5.68555 14.8034C6.09614 15.3655 6.55352 15.9373 7.05748 16.519C5.19525 16.9384 4 17.5337 4 18C4 18.8069 7.57914 20 12 20C16.4209 20 20 18.8069 20 18C20 17.5337 18.8047 16.9384 16.9425 16.519C17.4465 15.9373 17.9039 15.3655 18.3144 14.8034C20.5633 15.4858 22 16.5804 22 18C22 20.5067 17.5203 22 12 22C6.47973 22 2 20.5067 2 18C2 16.5804 3.43674 15.4858 5.68555 14.8034ZM12 3.99999C14.8037 3.99999 17 6.13815 17 8.99999C17 11.047 15.3726 13.5659 12 16.556C8.62729 13.5659 6.99996 11.047 6.99996 8.99999C6.99996 6.13815 9.1962 3.99999 12 3.99999ZM12 6.00001C13.6569 6.00001 15 7.34316 15 9.00001C15 10.6569 13.6569 12 12 12C10.3432 12 9.00004 10.6569 9.00004 9.00001C9.00004 7.34316 10.3432 6.00001 12 6.00001ZM11 9C11 8.44772 11.4477 8 12 8C12.5523 8 13 8.44772 13 9C13 9.55228 12.5523 10 12 10C11.4477 10 11 9.55228 11 9Z" fill="currentColor"/>
</svg>
