<svg width="24" height="24" viewBox="0 0 24 24" fill="none" xmlns="http://www.w3.org/2000/svg">
<path fill-rule="evenodd" clip-rule="evenodd" d="M7.67188 18.9063L8.21875 18.2344H12.2188L14.3125 20.8282L13.9531 21.7032H8.76563L8.89063 20.8282L7.67188 18.9063Z" fill="#159ECB"/>
<path fill-rule="evenodd" clip-rule="evenodd" d="M9.17188 9.90626L11.0469 6.625H13.2188L23 18.1875L22.2344 21.7032H18.0469L18.3125 20.7188L9.17188 9.90626Z" fill="#0EB399"/>
<path fill-rule="evenodd" clip-rule="evenodd" d="M11.4058 5.79689L12.2964 4.15626L14.9214 2L19.4527 5.57814L18.8745 6.18751L19.6558 7.28127V8.46877L17.4058 10.3125L13.6089 5.79689H11.4058Z" fill="#3DB664"/>
<path fill-rule="evenodd" clip-rule="evenodd" d="M4.25001 13.2969H5.48439L8.6719 10.5625L12.8907 15.5781L11.7032 17.4219H7.7969L5.10939 20.9063L4.50001 21.7032H1V17.4219L4.25001 13.2969Z" fill="#17BDCB"/>
</svg>
