<svg width="24" height="24" viewBox="0 0 24 24" fill="none" xmlns="http://www.w3.org/2000/svg">
<path d="M11.2905 9.74753L11.4265 7.34613C11.2642 7.3658 11.1013 7.39325 10.9383 7.43025C10.0463 7.6328 9.27222 8.07256 8.66705 8.66763L10.6361 10.0635L10.64 10.0615C10.7067 10.1102 10.7888 10.1388 10.8777 10.1388C11.0948 10.1388 11.2716 9.96725 11.2807 9.75242L11.2905 9.74753Z" fill="#326CE5"/>
<path d="M15.3166 8.66861C14.5785 7.94583 13.6153 7.47423 12.5738 7.34613L12.7098 9.74362L12.7118 9.7446C12.7153 9.82712 12.7444 9.90886 12.7998 9.97838C12.9351 10.1481 13.1798 10.1795 13.3534 10.0527L13.3603 10.0557L15.3166 8.66861Z" fill="#326CE5"/>
<path d="M9.75086 11.1727L7.95299 9.56461C7.41941 10.4339 7.16663 11.4765 7.28392 12.549L9.58848 11.8838L9.59044 11.876C9.67011 11.8543 9.74432 11.8076 9.79976 11.7381C9.93511 11.5684 9.91118 11.3236 9.7489 11.1825L9.75086 11.1727Z" fill="#326CE5"/>
<path d="M16.6235 11.0064C16.503 10.4822 16.3007 9.99857 16.0336 9.56559L14.2455 11.1659L14.2465 11.1708C14.1842 11.2249 14.1382 11.2983 14.1184 11.385C14.0701 11.5966 14.1976 11.8076 14.405 11.8643L14.4069 11.8741L16.7232 12.5412C16.7723 12.0415 16.7424 11.5244 16.6235 11.0064Z" fill="#326CE5"/>
<path d="M12.3675 11.2969H11.6309L11.1721 11.8682L11.3365 12.5823L11.9997 12.9011L12.6609 12.5832L12.8252 11.8692L12.3675 11.2969Z" fill="#326CE5"/>
<path d="M14.0851 13.2621C14.0547 13.2565 14.0235 13.2537 13.9922 13.2552C13.94 13.2579 13.8877 13.2712 13.8376 13.2953C13.6421 13.3895 13.557 13.6211 13.642 13.8187L13.6391 13.8226L14.5644 16.0577C15.4564 15.4895 16.1239 14.6403 16.4728 13.6602L14.089 13.2572L14.0851 13.2621Z" fill="#326CE5"/>
<path d="M10.3759 13.579C10.3336 13.3938 10.1705 13.2676 9.98855 13.265C9.96256 13.2647 9.93575 13.267 9.90932 13.2719L9.90541 13.267L7.54216 13.668C7.90688 14.6771 8.58869 15.4996 9.44469 16.0489L10.3603 13.8363L10.3534 13.8275C10.3861 13.7516 10.3957 13.6657 10.3759 13.579Z" fill="#326CE5"/>
<path d="M12.1738 14.2745C12.1127 14.2451 12.0484 14.2321 11.985 14.2344C11.8456 14.2395 11.7133 14.3173 11.6436 14.4476H11.6417L10.4796 16.5487C11.2838 16.8228 12.1719 16.8841 13.0629 16.6818C13.2219 16.6457 13.3773 16.6023 13.5285 16.5517L12.3635 14.4466H12.3547C12.3158 14.3738 12.2539 14.3131 12.1738 14.2745Z" fill="#326CE5"/>
<path fill-rule="evenodd" clip-rule="evenodd" d="M11.3632 1.14372C11.5387 1.0599 11.7292 1.01168 11.9237 1.00188C12.1684 0.989512 12.4122 1.03828 12.6329 1.14372L20.2822 4.79619C20.4801 4.89073 20.6541 5.02828 20.7911 5.19864C20.9281 5.369 21.0246 5.56778 21.0735 5.78022L22.9633 13.989C23.0122 14.2015 23.0122 14.4223 22.9633 14.6348C22.9143 14.8473 22.8177 15.0462 22.6806 15.2166L17.3888 21.7997C17.2516 21.9698 17.0776 22.1071 16.8797 22.2014C16.6817 22.2958 16.4649 22.3447 16.2453 22.3445L7.75577 22.3465C7.53608 22.3465 7.3192 22.2974 7.12124 22.203C6.92327 22.1085 6.74932 21.971 6.61229 21.8006L1.31846 15.2186C1.28886 15.1814 1.26111 15.1429 1.23531 15.1031C1.12891 14.9403 1.05651 14.758 1.0224 14.567C0.988298 14.376 0.993174 14.1801 1.03674 13.991L2.92363 5.78218C2.97254 5.56974 3.06908 5.37096 3.20608 5.2006C3.34307 5.03024 3.51701 4.89268 3.71496 4.79815L11.3632 1.14372ZM11.5419 4.30403C11.5418 4.02313 11.7468 3.79541 11.9997 3.79539C12.2525 3.79536 12.4574 4.02313 12.4574 4.30403C12.4575 4.31817 12.4578 4.33401 12.4581 4.35023C12.4587 4.3797 12.4593 4.41037 12.4584 4.43413C12.4544 4.54101 12.4377 4.63135 12.4207 4.72331C12.4119 4.77075 12.4031 4.81862 12.3958 4.86941L12.3929 4.89371C12.3556 5.20237 12.3246 5.45999 12.344 5.69988C12.3596 5.80618 12.4153 5.857 12.4686 5.90558C12.4771 5.91329 12.4855 5.92095 12.4936 5.92877C12.495 5.96195 12.5003 6.07221 12.5044 6.1332C13.9599 6.26251 15.3117 6.92812 16.3046 7.96922L16.4787 7.845C16.4857 7.84541 16.4937 7.84603 16.5025 7.8467C16.568 7.85174 16.6782 7.86022 16.7565 7.81467C16.9564 7.68008 17.1389 7.49463 17.3575 7.27263L17.3737 7.25614C17.4082 7.21956 17.4396 7.18356 17.4708 7.1479C17.533 7.07665 17.594 7.00675 17.676 6.93628C17.6962 6.91885 17.7239 6.89718 17.7496 6.87716C17.7594 6.86945 17.769 6.86198 17.7777 6.85509C17.9973 6.67992 18.3028 6.69854 18.4604 6.89618C18.6181 7.09381 18.5675 7.39594 18.348 7.57111C18.3376 7.57941 18.3263 7.58876 18.3147 7.59836C18.2914 7.61759 18.2669 7.63777 18.2472 7.6523C18.1619 7.71531 18.0809 7.75819 17.9988 7.80172C17.9554 7.82473 17.9116 7.84791 17.8667 7.87434C17.5931 8.04335 17.3658 8.18369 17.1859 8.35267C17.1122 8.43145 17.1072 8.50661 17.1023 8.57869C17.1016 8.58983 17.1008 8.60089 17.0998 8.61188C17.0876 8.62311 17.0605 8.6473 17.0304 8.67419C16.998 8.70317 16.962 8.73527 16.9374 8.75763C17.332 9.34493 17.6279 10.0115 17.7953 10.7404C17.9612 11.4625 17.987 12.1842 17.8912 12.8777L18.076 12.9315C18.0799 12.937 18.0843 12.9434 18.0891 12.9505C18.1256 13.0042 18.1888 13.0971 18.2736 13.13C18.5068 13.2035 18.769 13.2309 19.0847 13.264L19.0943 13.265C19.146 13.2693 19.1953 13.2713 19.2441 13.2732C19.3373 13.2768 19.429 13.2804 19.5335 13.3002C19.5573 13.3047 19.5879 13.3123 19.6171 13.3196C19.6347 13.3239 19.6518 13.3282 19.6665 13.3315C19.9364 13.3967 20.1096 13.6447 20.0539 13.8891C19.9981 14.1335 19.7345 14.2821 19.4631 14.2236C19.4611 14.2232 19.4583 14.2231 19.4562 14.2226C19.4532 14.2219 19.4505 14.2205 19.4474 14.2197C19.4338 14.2167 19.4188 14.2137 19.4038 14.2107C19.3772 14.2054 19.3502 14.1999 19.3291 14.1943C19.2261 14.1667 19.1418 14.1302 19.0561 14.0931C19.0115 14.0738 18.9665 14.0543 18.9182 14.0358L18.9043 14.0308C18.6076 13.9244 18.3607 13.8359 18.12 13.8011C18.0129 13.7926 17.9511 13.8356 17.892 13.8767C17.8825 13.8832 17.8732 13.8897 17.8638 13.8959C17.8303 13.8892 17.7274 13.871 17.6681 13.8617C17.2295 15.2403 16.2954 16.4339 15.029 17.1816C15.0361 17.1985 15.0446 17.2216 15.0536 17.2458C15.0727 17.2969 15.0936 17.353 15.1053 17.3665C15.1013 17.3771 15.0971 17.3878 15.0928 17.3984C15.0659 17.465 15.0381 17.534 15.0701 17.6364C15.159 17.8669 15.3027 18.0921 15.4761 18.3632C15.5048 18.4061 15.5337 18.4455 15.5624 18.4846C15.6175 18.5598 15.6717 18.6338 15.7216 18.7281C15.7342 18.7519 15.7496 18.7847 15.7638 18.8146C15.77 18.8277 15.7759 18.8403 15.7812 18.8513C15.899 19.103 15.8126 19.393 15.5866 19.5018C15.3588 19.6115 15.0756 19.4957 14.9537 19.2426C14.9485 19.2318 14.9426 19.22 14.9366 19.2078C14.9225 19.1794 14.9073 19.1489 14.897 19.1252C14.854 19.0268 14.8296 18.9376 14.8048 18.8469C14.7921 18.8007 14.7793 18.7541 14.764 18.7056L14.7597 18.6931C14.6577 18.3941 14.573 18.146 14.45 17.9358C14.3895 17.8463 14.3171 17.8245 14.2477 17.8037C14.2371 17.8005 14.2266 17.7973 14.2162 17.7939C14.2087 17.781 14.1905 17.7481 14.1707 17.7122C14.1523 17.6788 14.1324 17.6428 14.1184 17.6179C13.8655 17.7134 13.6039 17.7931 13.3329 17.8546C12.1451 18.1243 10.956 18.0149 9.89367 17.6071L9.78998 17.7949C9.7128 17.8156 9.63836 17.8365 9.59271 17.891C9.47553 18.0308 9.40783 18.23 9.3359 18.4417C9.30548 18.5312 9.27429 18.623 9.23829 18.7134C9.22265 18.7627 9.20983 18.8101 9.19712 18.8571C9.17278 18.947 9.14885 19.0354 9.10624 19.133C9.09642 19.1556 9.08213 19.184 9.06853 19.2112C9.06181 19.2246 9.05526 19.2376 9.04951 19.2494C9.0494 19.2497 9.04911 19.2508 9.04886 19.251C9.04872 19.2512 9.04893 19.2509 9.04886 19.251C8.92669 19.5033 8.64406 19.6191 8.41664 19.5096C8.19063 19.4008 8.10432 19.1109 8.22198 18.8592C8.22832 18.846 8.2354 18.8307 8.24271 18.8149C8.25556 18.7871 8.26912 18.7578 8.28067 18.7359C8.33075 18.6411 8.38528 18.5665 8.44074 18.4906C8.46913 18.4517 8.49777 18.4125 8.52619 18.3701C8.6995 18.0989 8.85169 17.8557 8.94055 17.6253C8.96287 17.5488 8.92982 17.444 8.89985 17.3665L8.98299 17.1669C7.76445 16.4449 6.80212 15.2942 6.34292 13.8705L6.14338 13.9047C6.13732 13.9014 6.13057 13.8974 6.12322 13.8932C6.0656 13.8597 5.97077 13.8047 5.88025 13.8118C5.63938 13.8467 5.39223 13.9353 5.09519 14.0419L5.08207 14.0466C5.03462 14.0648 4.99029 14.0838 4.94636 14.1027C4.85993 14.1398 4.77508 14.1763 4.67124 14.2041C4.64778 14.2103 4.61714 14.2168 4.58781 14.223C4.57575 14.2256 4.56391 14.2281 4.55288 14.2305C4.54984 14.2312 4.54714 14.2327 4.54408 14.2334C4.54306 14.2336 4.54184 14.2338 4.54063 14.2339C4.53942 14.234 4.53821 14.2342 4.53723 14.2344C4.26579 14.2929 4.00223 14.1443 3.94642 13.8998C3.89061 13.6555 4.06395 13.4075 4.33377 13.3423C4.33478 13.3421 4.33598 13.3417 4.33718 13.3413C4.33838 13.3409 4.33958 13.3406 4.34062 13.3403L4.34453 13.3394C4.35607 13.3367 4.36855 13.3336 4.38132 13.3305C4.41102 13.3233 4.44228 13.3156 4.4668 13.311C4.57126 13.2912 4.66298 13.2876 4.75612 13.2839C4.805 13.282 4.85428 13.2801 4.906 13.2758L4.91637 13.2747C5.23177 13.2416 5.49368 13.2142 5.72668 13.1408C5.79272 13.1137 5.85619 13.0303 5.90493 12.9662C5.91131 12.9578 5.91744 12.9498 5.92329 12.9422L6.11501 12.8865C5.90019 11.3988 6.2637 9.9387 7.04916 8.75665L6.90243 8.62557C6.90141 8.61932 6.90035 8.61217 6.89918 8.6043C6.88969 8.54023 6.87309 8.42821 6.81049 8.36147C6.63045 8.19243 6.40348 8.05223 6.12968 7.88315C6.08511 7.85693 6.04182 7.8339 5.9989 7.81108C5.91668 7.76736 5.83585 7.72438 5.75015 7.6611C5.73031 7.64645 5.70575 7.62624 5.68232 7.60696C5.673 7.59929 5.66386 7.59177 5.65527 7.5848C5.65303 7.58307 5.65065 7.58169 5.64842 7.57991C5.42879 7.4048 5.37833 7.10266 5.53594 6.90498C5.62459 6.79378 5.76006 6.73876 5.90079 6.74358C6.01025 6.74733 6.12358 6.78728 6.21967 6.8639C6.22813 6.87059 6.23742 6.87785 6.24703 6.88536C6.27289 6.90557 6.30105 6.92758 6.3214 6.94508C6.40272 7.01503 6.46303 7.08442 6.52449 7.15513C6.55593 7.1913 6.58767 7.22782 6.62268 7.26494L6.63071 7.2731C6.85289 7.49876 7.03747 7.68623 7.2399 7.8225C7.33322 7.87685 7.40774 7.86509 7.47921 7.85381C7.49013 7.85209 7.50099 7.85037 7.51183 7.84891C7.53813 7.86834 7.62658 7.9318 7.67714 7.96629C8.45631 7.1396 9.47972 6.52732 10.6684 6.25743C10.9446 6.19471 11.2212 6.15303 11.4959 6.13027L11.5067 5.93659C11.5676 5.87759 11.636 5.7927 11.6553 5.69988C11.6751 5.45542 11.6434 5.19254 11.6053 4.876L11.6045 4.86941C11.5972 4.81862 11.5884 4.77075 11.5796 4.72331C11.5626 4.63135 11.5459 4.54101 11.5419 4.43413C11.541 4.41144 11.5416 4.3828 11.5422 4.35476C11.5425 4.34174 11.5427 4.32885 11.5429 4.31675C11.5428 4.31473 11.5426 4.31274 11.5424 4.31076C11.5421 4.30853 11.5419 4.30631 11.5419 4.30403Z" fill="#326CE5"/>
</svg>
