<svg width="24" height="24" viewBox="0 0 24 24" fill="none" xmlns="http://www.w3.org/2000/svg">
<path fill-rule="evenodd" clip-rule="evenodd" d="M12 23C5.92487 23 1 18.0751 1 12C1 5.92487 5.92487 1 12 1H12.4142L23 11.5858V12C23 18.0751 18.0751 23 12 23ZM3 12C3 16.9706 7.02944 21 12 21C16.3064 21 19.9064 17.9754 20.7916 13.9346C20.0702 14.1241 19.32 14.2222 18.5556 14.2222C13.7077 14.2222 9.77778 10.2923 9.77778 5.44444C9.77778 4.68004 9.87589 3.92983 10.0654 3.20844C6.02459 4.09359 3 7.69358 3 12ZM12.0663 3.48056C11.8765 4.10912 11.7778 4.76909 11.7778 5.44444C11.7778 9.18771 14.8123 12.2222 18.5556 12.2222C19.2309 12.2222 19.8909 12.1235 20.5194 11.9337L12.0663 3.48056Z" fill="currentColor"/>
</svg>
