<svg width="16" height="16" viewBox="0 0 16 16" fill="none" xmlns="http://www.w3.org/2000/svg">
    <path
        d="M12.6511 9.77373H10.2953L10.6511 6.22627H12.6511C12.8438 6.22627 12.9999 6.07007 12.9999 5.87755C12.9999 5.68493 12.8438 5.52884 12.6511 5.52884H10.7209L10.9348 3.38537C10.954 3.19275 10.8135 3.02109 10.6209 3.00177C10.4282 2.98247 10.2564 3.12299 10.2372 3.3156L10.0046 5.52881H6.47448L6.69074 3.38535C6.69977 3.29236 6.67112 3.19968 6.61121 3.12807C6.55131 3.05635 6.46524 3.01172 6.37211 3.00404C6.28002 2.99366 6.18762 3.02096 6.11578 3.0796C6.04404 3.13824 5.99888 3.22334 5.99067 3.3156L5.76974 5.52881H3.34884C3.15615 5.52881 3 5.6849 3 5.87753C3 6.07005 3.15615 6.22624 3.34884 6.22624H5.70465L5.34885 9.77371H3.34884C3.15615 9.77371 3 9.9299 3 10.1224C3 10.315 3.15615 10.4711 3.34884 10.4711H5.27908L5.06511 12.6146C5.0459 12.8072 5.18647 12.9789 5.37905 12.9982C5.57174 13.0175 5.74357 12.877 5.76278 12.6844L5.98372 10.4712H9.52553L9.30927 12.6146C9.29006 12.8073 9.43064 12.9789 9.62321 12.9982C9.8159 13.0175 9.98773 12.877 10.0069 12.6844L10.2395 10.4712H12.6512C12.8439 10.4712 13 10.3151 13 10.1225C13 9.92995 12.8438 9.77373 12.6511 9.77373ZM6.0512 9.77373L6.40472 6.22627H9.94892L9.59541 9.77373H6.0512Z"
        fill="currentColor" stroke="currentColor" stroke-width="0.7" />
</svg>