<svg width="16" height="16" viewBox="0 0 16 16" fill="none" xmlns="http://www.w3.org/2000/svg">
    <path
        d="M4.71828 2.00039C4.32889 2.00039 3.88962 2.09703 3.51692 2.36026C3.14421 2.6235 2.86121 3.08399 2.86121 3.67172V6.6431C2.86121 7.19753 2.69514 7.47785 2.43166 7.69354C2.16831 7.90909 1.76815 8.04316 1.30584 8.13463C1.12889 8.16636 1 8.32039 1 8.50017C1 8.67995 1.12889 8.83398 1.30584 8.86571C1.76815 8.95717 2.16832 9.09124 2.43166 9.3068C2.69514 9.52248 2.86121 9.8028 2.86121 10.3572V13.3286C2.86121 13.9163 3.14425 14.3768 3.51692 14.6401C3.88958 14.9033 4.32885 14.9999 4.71828 14.9999C4.81763 15.0014 4.91349 14.9629 4.98422 14.8931C5.05508 14.8233 5.09497 14.7279 5.09497 14.6286C5.09497 14.5291 5.05508 14.4339 4.98422 14.364C4.91349 14.2942 4.81763 14.2557 4.71828 14.2572C4.45881 14.2572 4.15426 14.1835 3.94636 14.0366C3.73846 13.8897 3.604 13.7004 3.604 13.3286V10.3572C3.604 9.63222 3.32899 9.07712 2.9076 8.73231C2.7813 8.62893 2.63129 8.57271 2.48969 8.50017C2.63128 8.42763 2.78128 8.37141 2.9076 8.26804C3.32899 7.92322 3.604 7.36812 3.604 6.6431V3.67172C3.604 3.29995 3.73846 3.11069 3.94636 2.96378C4.15427 2.81688 4.45882 2.74318 4.71828 2.74318C4.81763 2.7446 4.91349 2.70613 4.98422 2.63631C5.05508 2.56649 5.09497 2.47127 5.09497 2.37179C5.09497 2.27243 5.05508 2.17709 4.98422 2.10727C4.91349 2.03745 4.81763 1.99897 4.71828 2.00039ZM10.851 2.0004C10.7524 2.00493 10.6598 2.04858 10.5934 2.12151C10.527 2.19444 10.4923 2.29069 10.4969 2.38927C10.5015 2.48772 10.545 2.58034 10.618 2.64679C10.6909 2.71312 10.7873 2.74783 10.8857 2.74317C11.1452 2.74317 11.4497 2.81688 11.6576 2.96377C11.8655 3.11067 12 3.29994 12 3.67171V6.64309C12 7.36811 12.275 7.92321 12.6964 8.26803C12.8227 8.3714 12.9727 8.42762 13.1143 8.50016C12.9727 8.5727 12.8227 8.62892 12.6964 8.7323C12.275 9.07711 12 9.63221 12 10.3572V13.3286C12 13.7004 11.8655 13.8896 11.6576 14.0366C11.4497 14.1834 11.1452 14.2572 10.8857 14.2572C10.7864 14.2557 10.6905 14.2942 10.6198 14.364C10.5489 14.4338 10.509 14.5291 10.509 14.6285C10.509 14.7279 10.5489 14.8232 10.6198 14.8931C10.6905 14.9629 10.7864 15.0014 10.8857 14.9999C11.2751 14.9999 11.7144 14.9033 12.0871 14.6401C12.4598 14.3768 12.7428 13.9163 12.7428 13.3286V10.3572C12.7428 9.80279 12.9089 9.52248 13.1723 9.30679C13.4357 9.09124 13.8358 8.95716 14.2982 8.8657C14.4751 8.83397 14.604 8.67994 14.604 8.50016C14.604 8.32037 14.4751 8.16635 14.2982 8.13461C13.8358 8.04316 13.4357 7.90909 13.1723 7.69353C12.9089 7.47785 12.7428 7.19752 12.7428 6.64309V3.67171C12.7428 3.08398 12.4598 2.62349 12.0871 2.36025C11.7144 2.09701 11.2751 2.00038 10.8857 2.00038C10.8742 1.99986 10.8625 1.99988 10.851 2.0004Z"
        fill="currentColor" stroke="currentColor" stroke-width="0.5" />
</svg>