<svg width="18" height="18" viewBox="0 0 18 18" fill="none" xmlns="http://www.w3.org/2000/svg">
<path fill-rule="evenodd" clip-rule="evenodd" d="M10.4113 9L15.9971 3.41421V7C15.9971 7.55228 16.4448 8 16.9971 8C17.5494 8 17.9971 7.55228 17.9971 7V1C17.9971 0.447715 17.5494 0 16.9971 0H10.9971C10.4448 0 9.9971 0.447715 9.9971 1C9.9971 1.55228 10.4448 2 10.9971 2H14.5829L8.9971 7.58579C8.60658 7.97631 8.60658 8.60948 8.9971 9C9.38762 9.39052 10.0208 9.39052 10.4113 9ZM16 12C16 11.4477 15.5523 11 15 11C14.4477 11 14 11.4477 14 12V16H2V4H6C6.55228 4 7 3.55228 7 3C7 2.44772 6.55228 2 6 2H2C0.89543 2 0 2.89543 0 4V16C0 17.1046 0.89543 18 2 18H14C15.1046 18 16 17.1046 16 16V12Z" fill="currentColor"/>
</svg>
