<svg width="16" height="16" viewBox="0 0 16 16" fill="none" xmlns="http://www.w3.org/2000/svg">
<path fill-rule="evenodd" clip-rule="evenodd" d="M1 3C1 1.89543 1.89543 1 3 1H13C14.1046 1 15 1.89543 15 3V13C15 14.1046 14.1046 15 13 15H3C1.89543 15 1 14.1046 1 13V3ZM7 5C7 4.44772 7.44772 4 8 4C8.55228 4 9 4.44772 9 5V7H11C11.5523 7 12 7.44772 12 8C12 8.55228 11.5523 9 11 9H9V11C9 11.5523 8.55228 12 8 12C7.44772 12 7 11.5523 7 11V9H5C4.44772 9 4 8.55228 4 8C4 7.44771 4.44772 7 5 7H7V5Z" fill="currentColor"/>
</svg>
