<svg width="24" height="24" viewBox="0 0 24 24" fill="none" xmlns="http://www.w3.org/2000/svg">
<path d="M11.773 2.00016C10.9573 2.00395 10.1784 2.07352 9.49296 2.1948C7.47386 2.55151 7.10727 3.29813 7.10727 4.67503V6.49349H11.8786V7.09964H7.10727H5.31661C3.92992 7.09964 2.71569 7.93313 2.33589 9.5187C1.8978 11.3361 1.87837 12.4702 2.33589 14.3679C2.67506 15.7805 3.48504 16.787 4.87173 16.787H6.51224V14.6071C6.51224 13.0322 7.87485 11.643 9.49296 11.643H14.2588C15.5854 11.643 16.6445 10.5507 16.6445 9.2184V4.67503C16.6445 3.38196 15.5536 2.41061 14.2588 2.1948C13.4391 2.05836 12.5887 1.99637 11.773 2.00016ZM9.19266 3.46272C9.68551 3.46272 10.088 3.87177 10.088 4.37473C10.088 4.87591 9.68551 5.28118 9.19266 5.28118C8.69804 5.28118 8.29733 4.87591 8.29733 4.37473C8.29733 3.87177 8.69804 3.46272 9.19266 3.46272Z" fill="url(#paint0_linear)"/>
<path d="M17.2392 7.09967V9.21843C17.2392 10.8611 15.8465 12.2436 14.2584 12.2436H9.49262C8.18719 12.2436 7.10693 13.3609 7.10693 14.6683V19.2116C7.10693 20.5047 8.23135 21.2653 9.49262 21.6362C11.003 22.0803 12.4513 22.1606 14.2584 21.6362C15.4597 21.2884 16.6441 20.5885 16.6441 19.2116V17.3932H11.8783V16.787H16.6441H19.0298C20.4165 16.787 20.9332 15.8198 21.4155 14.368C21.9136 12.8733 21.8925 11.436 21.4155 9.51872C21.0728 8.13826 20.4183 7.09967 19.0298 7.09967H17.2392ZM14.5587 18.6055C15.0534 18.6055 15.4541 19.0107 15.4541 19.5119C15.4541 20.0149 15.0534 20.4239 14.5587 20.4239C14.0659 20.4239 13.6634 20.0149 13.6634 19.5119C13.6634 19.0107 14.0659 18.6055 14.5587 18.6055Z" fill="url(#paint1_linear)"/>
<defs>
<linearGradient id="paint0_linear" x1="2" y1="2" x2="13.0023" y2="11.3755" gradientUnits="userSpaceOnUse">
<stop stop-color="#5A9FD4"/>
<stop offset="1" stop-color="#306998"/>
</linearGradient>
<linearGradient id="paint1_linear" x1="14.4441" y1="19.359" x2="10.4969" y2="13.8278" gradientUnits="userSpaceOnUse">
<stop stop-color="#FFD43B"/>
<stop offset="1" stop-color="#FFE873"/>
</linearGradient>
</defs>
</svg>
