<svg width="24" height="24" viewBox="0 0 24 24" fill="none" xmlns="http://www.w3.org/2000/svg">
<path d="M4 4C3.44772 4 3 4.44772 3 5V19C3 19.5523 3.44772 20 4 20H6C6.55228 20 7 19.5523 7 19C7 18.4477 6.55228 18 6 18H5V6H6C6.55228 6 7 5.55228 7 5C7 4.44772 6.55228 4 6 4H4Z" fill="currentColor"/>
<path d="M20 11H12.4142L15 8.41423C15.3905 8.0237 15.3905 7.39054 15 7.00001C14.6095 6.60949 13.9763 6.60949 13.5858 7.00002L9.29289 11.2929C8.90237 11.6834 8.90237 12.3166 9.29289 12.7071L13.5858 17C13.9763 17.3905 14.6095 17.3905 15 17C15.3905 16.6095 15.3905 15.9763 15 15.5858L12.4142 13H20C20.5523 13 21 12.5523 21 12C21 11.4477 20.5523 11 20 11Z" fill="currentColor"/>
</svg>
