<svg width="24" height="24" viewBox="0 0 24 24" fill="none" xmlns="http://www.w3.org/2000/svg">
<path fill-rule="evenodd" clip-rule="evenodd" d="M4 5C2.89543 5 2 5.89543 2 7V17C2 18.1046 2.89543 19 4 19H20C21.1046 19 22 18.1046 22 17V7C22 5.89543 21.1046 5 20 5H4ZM6.03185 12.6856L5.26502 13.9566L4.41252 13.3891L5.43334 12.2258L4 11.8858L4.31491 10.9382L5.68427 11.5254L5.55275 10H6.59359L6.45101 11.5514L7.80881 10.975L8.12296 11.9387L6.66667 12.2613L7.64718 13.4062L6.80142 14L6.03185 12.6856ZM11.9704 12.6856L11.2035 13.9566L10.351 13.3891L11.3719 12.2258L9.93852 11.8858L10.2534 10.9382L11.6228 11.5254L11.4913 10H12.5321L12.3895 11.5514L13.7473 10.975L14.0615 11.9387L12.6052 12.2613L13.5857 13.4062L12.7399 14L11.9704 12.6856ZM17.1421 13.9566L17.9089 12.6856L18.6785 14L19.5242 13.4062L18.5437 12.2613L20 11.9387L19.6859 10.975L18.328 11.5514L18.4706 10H17.4298L17.5613 11.5254L16.1919 10.9382L15.877 11.8858L17.3104 12.2258L16.2896 13.3891L17.1421 13.9566Z" fill="currentColor"/>
</svg>
