<svg width="10" height="15" viewBox="0 0 10 15" fill="none" xmlns="http://www.w3.org/2000/svg">
<path d="M3.55436 1.81819C3.55436 2.73466 2.79399 3.47763 1.85599 3.47763C0.918026 3.47763 0.157623 2.73469 0.157623 1.81819C0.157623 0.901726 0.917996 0.158752 1.85599 0.158752C2.79396 0.158752 3.55436 0.901697 3.55436 1.81819Z" fill="currentColor"/>
<path d="M3.39114 1.81817C3.38625 2.43825 2.98655 3.01691 2.38289 3.22734C1.77108 3.44094 1.0875 3.25603 0.669841 2.76985C0.255437 2.28685 0.211405 1.5711 0.545852 1.0371C0.873771 0.509445 1.528 0.222534 2.14959 0.34528C2.86581 0.487152 3.38624 1.10565 3.39113 1.8182C3.39276 2.02383 3.71905 2.02383 3.71744 1.8182C3.71255 1.05622 3.22148 0.373962 2.49058 0.107746C1.76782 -0.153683 0.914582 0.0726773 0.42676 0.656093C-0.0692068 1.2491 -0.145876 2.10033 0.265243 2.76029C0.673114 3.41546 1.4709 3.7486 2.23768 3.59878C3.09421 3.42981 3.71255 2.66465 3.71905 1.8182C3.71905 1.61256 3.39274 1.61256 3.39113 1.8182L3.39114 1.81817Z" fill="currentColor"/>
<path d="M3.55436 7.50106C3.55436 8.41752 2.79399 9.1605 1.85599 9.1605C0.918026 9.1605 0.157623 8.41755 0.157623 7.50106C0.157623 6.58456 0.917996 5.84161 1.85599 5.84161C2.79396 5.84161 3.55436 6.58456 3.55436 7.50106Z" fill="currentColor"/>
<path d="M3.39114 7.50103C3.38625 8.12111 2.98655 8.69977 2.38289 8.9102C1.77108 9.1238 1.0875 8.93889 0.669841 8.45271C0.255437 7.96971 0.211405 7.25396 0.545852 6.71996C0.873771 6.19231 1.528 5.9054 2.14959 6.02814C2.86581 6.17001 3.38624 6.78852 3.39113 7.50106C3.39276 7.7067 3.71905 7.7067 3.71744 7.50106C3.71255 6.73908 3.22148 6.05682 2.49058 5.79061C1.76782 5.52918 0.914582 5.75554 0.42676 6.33895C-0.0692068 6.93196 -0.145876 7.78319 0.265243 8.44315C0.673114 9.09833 1.4709 9.43147 2.23768 9.28164C3.09421 9.11267 3.71255 8.34751 3.71905 7.50106C3.71905 7.29542 3.39274 7.29542 3.39113 7.50106L3.39114 7.50103Z" fill="currentColor"/>
<path d="M3.55436 13.1839C3.55436 14.1004 2.79399 14.8434 1.85599 14.8434C0.918026 14.8434 0.157623 14.1004 0.157623 13.1839C0.157623 12.2674 0.917996 11.5245 1.85599 11.5245C2.79396 11.5245 3.55436 12.2674 3.55436 13.1839Z" fill="currentColor"/>
<path d="M3.39114 13.1839C3.38625 13.804 2.98655 14.3826 2.38289 14.5931C1.77108 14.8067 1.0875 14.6218 0.669841 14.1356C0.255437 13.6526 0.211405 12.9368 0.545852 12.4028C0.873771 11.8752 1.528 11.5883 2.14959 11.711C2.86581 11.8529 3.38624 12.4714 3.39113 13.1839C3.39276 13.3896 3.71905 13.3896 3.71744 13.1839C3.71255 12.4219 3.22148 11.7397 2.49058 11.4735C1.76782 11.212 0.914582 11.4384 0.42676 12.0218C-0.0692068 12.6148 -0.145876 13.4661 0.265243 14.126C0.673114 14.7812 1.4709 15.1143 2.23768 14.9645C3.09421 14.7955 3.71255 14.0304 3.71905 13.1839C3.71905 12.9783 3.39274 12.9783 3.39113 13.1839L3.39114 13.1839Z" fill="currentColor"/>
<path d="M9.83527 1.81819C9.83527 2.73466 9.07489 3.47763 8.13689 3.47763C7.19892 3.47763 6.43851 2.73469 6.43851 1.81819C6.43851 0.901726 7.19889 0.158752 8.13689 0.158752C9.07486 0.158752 9.83527 0.901697 9.83527 1.81819Z" fill="currentColor"/>
<path d="M9.67208 1.81817C9.66718 2.43825 9.26749 3.01691 8.66384 3.22734C8.05204 3.44094 7.36846 3.25603 6.95081 2.76985C6.53641 2.28685 6.49238 1.5711 6.82682 1.0371C7.15474 0.509445 7.80896 0.222534 8.43054 0.34528C9.14676 0.487152 9.66718 1.10565 9.67207 1.8182C9.6737 2.02383 9.99999 2.02383 9.99838 1.8182C9.99348 1.05622 9.50242 0.373962 8.77153 0.107746C8.04878 -0.153683 7.19555 0.0726773 6.70773 0.656093C6.21177 1.2491 6.1351 2.10033 6.54622 2.76029C6.95408 3.41546 7.75186 3.7486 8.51864 3.59878C9.37515 3.42981 9.99348 2.66465 9.99998 1.8182C9.99998 1.61256 9.67368 1.61256 9.67207 1.8182L9.67208 1.81817Z" fill="currentColor"/>
<path d="M9.83527 7.50106C9.83527 8.41752 9.07489 9.1605 8.13689 9.1605C7.19892 9.1605 6.43851 8.41755 6.43851 7.50106C6.43851 6.58456 7.19889 5.84161 8.13689 5.84161C9.07486 5.84161 9.83527 6.58456 9.83527 7.50106Z" fill="currentColor"/>
<path d="M9.67208 7.50103C9.66718 8.12111 9.26749 8.69977 8.66384 8.9102C8.05204 9.1238 7.36846 8.93889 6.95081 8.45271C6.53641 7.96971 6.49238 7.25396 6.82682 6.71996C7.15474 6.19231 7.80896 5.9054 8.43054 6.02814C9.14676 6.17001 9.66718 6.78852 9.67207 7.50106C9.6737 7.7067 9.99999 7.7067 9.99838 7.50106C9.99348 6.73908 9.50242 6.05682 8.77153 5.79061C8.04878 5.52918 7.19555 5.75554 6.70773 6.33895C6.21177 6.93196 6.1351 7.78319 6.54622 8.44315C6.95408 9.09833 7.75186 9.43147 8.51864 9.28164C9.37515 9.11267 9.99348 8.34751 9.99998 7.50106C9.99998 7.29542 9.67368 7.29542 9.67207 7.50106L9.67208 7.50103Z" fill="currentColor"/>
<path d="M9.83527 13.1839C9.83527 14.1004 9.07489 14.8434 8.13689 14.8434C7.19892 14.8434 6.43851 14.1004 6.43851 13.1839C6.43851 12.2674 7.19889 11.5245 8.13689 11.5245C9.07486 11.5245 9.83527 12.2674 9.83527 13.1839Z" fill="currentColor"/>
<path d="M9.67208 13.1839C9.66718 13.804 9.26749 14.3826 8.66384 14.5931C8.05204 14.8067 7.36846 14.6218 6.95081 14.1356C6.53641 13.6526 6.49238 12.9368 6.82682 12.4028C7.15474 11.8752 7.80896 11.5883 8.43054 11.711C9.14676 11.8529 9.66718 12.4714 9.67207 13.1839C9.6737 13.3896 9.99999 13.3896 9.99838 13.1839C9.99348 12.4219 9.50242 11.7397 8.77153 11.4735C8.04878 11.212 7.19555 11.4384 6.70773 12.0218C6.21177 12.6148 6.1351 13.4661 6.54622 14.126C6.95408 14.7812 7.75186 15.1143 8.51864 14.9645C9.37515 14.7955 9.99348 14.0304 9.99998 13.1839C9.99998 12.9783 9.67368 12.9783 9.67207 13.1839L9.67208 13.1839Z" fill="currentColor"/>
</svg>
