<svg width="24" height="24" viewBox="0 0 24 24" fill="none" xmlns="http://www.w3.org/2000/svg">
<g id="warning">
<path id="icon" fill-rule="evenodd" clip-rule="evenodd" d="M22.4417 15.9532L15.4363 3.97762C14.733 2.7584 13.4222 2.00166 12.0046 2C10.5868 1.99834 9.27552 2.75196 8.56348 3.97767L1.55555 15.9576C0.828873 17.1795 0.812434 18.7105 1.5163 19.9592C2.22075 21.2089 3.53978 21.9866 4.97452 21.9983L19.0124 21.9983C20.462 21.9842 21.7786 21.2089 22.4829 19.9603C23.1864 18.7132 23.1707 17.1856 22.4417 15.9532ZM3.2782 16.9737L10.2913 4.98491C10.6465 4.37354 11.2979 3.99918 12.0022 4C12.7065 4.00083 13.3577 4.37673 13.707 4.98222L20.7178 16.9672C21.0853 17.5885 21.0932 18.3533 20.741 18.9777C20.3882 19.603 19.7288 19.9913 19.0026 19.9984L4.98265 19.9983C4.27205 19.9925 3.61135 19.6029 3.25856 18.9771C2.90616 18.3519 2.91439 17.5855 3.2782 16.9737ZM12.0003 17.9984C12.5528 17.9984 13.0007 17.5506 13.0007 16.9984C13.0007 16.4461 12.5528 15.9984 12.0003 15.9984C11.4479 15.9984 11 16.4461 11 16.9984C11 17.5506 11.4479 17.9984 12.0003 17.9984ZM13.0036 7.99835H11.0029V14.9984H13.0036V7.99835Z" fill="currentColor"/>
</g>
</svg>
