<svg width="24" height="24" viewBox="0 0 24 24" fill="none" xmlns="http://www.w3.org/2000/svg">
<g clip-path="url(#clip0)">
<path d="M3 17.5798L5.12871 20.0148L5.32011 19.7929V4.21832L5.12871 3.98297L3 6.41705V17.5798Z" fill="#1A476F"/>
<path d="M5.12891 20.0148L9.1964 21.9997L9.36558 21.734L9.36835 2.20797L9.19925 2L5.12891 3.97855V20.0148Z" fill="#1F5B98"/>
<path d="M21.1819 6.41705L19.0526 3.98297L18.8145 4.05659L18.8618 19.816L19.0526 20.0148L21.1819 17.5801V6.41705Z" fill="#2D72B8"/>
<path d="M14.9849 21.9997L19.0524 20.0148V3.97855L14.982 2L14.7896 2.25421L14.7923 21.7109L14.9849 21.9997Z" fill="#5294CF"/>
<path d="M9.19922 2H14.9823V22H9.19922V2Z" fill="#2D72B8"/>
</g>
<defs>
<clipPath id="clip0">
<rect x="3" y="2" width="18.1818" height="20" fill="white"/>
</clipPath>
</defs>
</svg>
