<svg width="24" height="24" viewBox="0 0 24 24" fill="none" xmlns="http://www.w3.org/2000/svg">
<g clip-path="url(#clip0)">
<path d="M24 12.5775C24 10.569 22.752 8.80498 20.8755 8.12473C20.9566 7.70003 20.9972 7.2686 20.997 6.83623C20.997 3.08623 17.9543 0.0502319 14.2208 0.0502319C12.0308 0.0502319 10.0013 1.09498 8.72326 2.85973C8.09323 2.37208 7.31871 2.10819 6.52201 2.10973C4.53451 2.10973 2.92201 3.72223 2.92201 5.70973C2.92201 6.14623 3.00301 6.57223 3.14551 6.96748C2.22716 7.30012 1.43306 7.90665 0.870525 8.70512C0.307987 9.50359 0.00412757 10.4555 8.17475e-06 11.4322C-0.00180616 12.4086 0.29843 13.3617 0.859556 14.1607C1.42068 14.9598 2.21523 15.5657 3.13426 15.8955C3.05267 16.3201 3.01199 16.7516 3.01276 17.184C3.01455 18.9778 3.72794 20.6977 4.99637 21.9661C6.26481 23.2346 7.98467 23.9479 9.77851 23.9497C11.9685 23.9497 13.998 22.8945 15.2663 21.1297C15.8963 21.627 16.6658 21.9007 17.4675 21.9007C19.455 21.9007 21.0675 20.2882 21.0675 18.3007C21.0675 17.8642 20.9865 17.4382 20.844 17.043C21.7637 16.7112 22.5595 16.1051 23.1238 15.3067C23.6882 14.5083 23.994 13.556 24 12.5782" fill="white"/>
<path d="M9.43368 10.3463L14.6882 12.7403L19.9832 8.09477C20.0615 7.71106 20.0989 7.32013 20.0949 6.92852C20.0927 5.35798 19.4679 3.8524 18.3573 2.74186C17.2468 1.63132 15.7412 1.00646 14.1707 1.00427C13.2094 1.00512 12.2628 1.24014 11.4127 1.68902C10.5626 2.1379 9.83472 2.78712 9.29193 3.58052L8.40918 8.15552L9.43368 10.3463Z" fill="#FED10A"/>
<path d="M3.99752 15.9053C3.91898 16.2958 3.88128 16.6934 3.88502 17.0918C3.88502 20.3693 6.55277 23.0258 9.82952 23.0258C10.7975 23.0257 11.7508 22.7892 12.6064 22.3366C13.4621 21.8841 14.1942 21.2293 14.739 20.4293L15.6113 15.8745L14.445 13.6433L9.17027 11.2395L3.99752 15.9053Z" fill="#24BBB1"/>
<path d="M3.96596 6.81746L7.56596 7.66946L8.35721 3.58196C7.86971 3.20696 7.26221 3.00446 6.63221 3.00446C5.87976 3.00545 5.1584 3.30474 4.62627 3.83674C4.09414 4.36873 3.79465 5.09001 3.79346 5.84246C3.79346 6.17696 3.85346 6.51221 3.96596 6.81596" fill="#EF5098"/>
<path d="M3.65282 7.67847C2.05007 8.20572 0.924316 9.74847 0.924316 11.442C0.924316 13.0957 1.94882 14.5665 3.48032 15.1545L8.53157 10.59L7.60907 8.61222L3.65282 7.67847Z" fill="#17A8E0"/>
<path d="M15.6523 20.43C16.1446 20.8074 16.7466 21.0138 17.3668 21.018C18.1199 21.0174 18.842 20.718 19.3745 20.1855C19.9071 19.6529 20.2065 18.9308 20.2071 18.1778C20.2077 17.8422 20.1493 17.5091 20.0346 17.1938L16.4436 16.3515L15.6523 20.43Z" fill="#93C83E"/>
<path d="M16.3822 15.408L20.3384 16.3305C21.1304 16.0654 21.8194 15.5589 22.3088 14.8821C22.7981 14.2054 23.0632 13.3924 23.0669 12.5572C23.0659 11.7538 22.8209 10.9697 22.3645 10.3085C21.9081 9.64735 21.2617 9.14031 20.5109 8.85449L15.3374 13.389L16.3822 15.408Z" fill="#0779A1"/>
</g>
<defs>
<clipPath id="clip0">
<path d="M0 0H24V24H0V0Z" fill="white"/>
</clipPath>
</defs>
</svg>
