<svg width="24" height="24" viewBox="0 0 24 24" fill="none" xmlns="http://www.w3.org/2000/svg">
<path d="M15.6821 13.1853C14.8253 13.1853 14.0573 13.5648 13.5313 14.1624L12.1836 13.2083C12.3266 12.8144 12.4088 12.3914 12.4088 11.9487C12.4088 11.5137 12.3295 11.0978 12.1911 10.7097L13.5359 9.76573C14.0618 10.3603 14.8278 10.7378 15.6821 10.7378C17.2633 10.7378 18.55 9.45133 18.55 7.86985C18.55 6.28836 17.2633 5.00191 15.6821 5.00191C14.1008 5.00191 12.8141 6.28836 12.8141 7.86985C12.8141 8.15291 12.8569 8.42587 12.9336 8.68438L11.588 9.62886C11.0259 8.93151 10.2165 8.44461 9.29439 8.29598V6.67422C10.5935 6.40137 11.5723 5.24713 11.5723 3.86794C11.5723 2.28646 10.2857 1 8.70439 1C7.12311 1 5.83645 2.28646 5.83645 3.86794C5.83645 5.22866 6.78992 6.36866 8.06304 6.66099V8.30382C6.32557 8.6088 5 10.1251 5 11.9487C5 13.7812 6.3387 15.3031 8.08871 15.5977V17.3324C6.80257 17.6151 5.83645 18.7621 5.83645 20.1321C5.83645 21.7135 7.12311 23 8.70439 23C10.2857 23 11.5723 21.7135 11.5723 20.1321C11.5723 18.7621 10.6062 17.6151 9.32007 17.3324V15.5976C10.2058 15.4484 11.0072 14.9824 11.5749 14.2862L12.9316 15.2465C12.8563 15.5027 12.8141 15.773 12.8141 16.0532C12.8141 17.6347 14.1008 18.9211 15.6821 18.9211C17.2633 18.9211 18.55 17.6347 18.55 16.0532C18.55 14.4717 17.2633 13.1853 15.6821 13.1853V13.1853ZM15.6821 6.47933C16.4488 6.47933 17.0725 7.10327 17.0725 7.86985C17.0725 8.63643 16.4488 9.26031 15.6821 9.26031C14.9153 9.26031 14.2916 8.63643 14.2916 7.86985C14.2916 7.10327 14.9153 6.47933 15.6821 6.47933V6.47933ZM7.31387 3.86794C7.31387 3.10136 7.9376 2.47748 8.70439 2.47748C9.47118 2.47748 10.0948 3.10136 10.0948 3.86794C10.0948 4.63452 9.47118 5.2584 8.70439 5.2584C7.9376 5.2584 7.31387 4.63452 7.31387 3.86794ZM10.0948 20.1321C10.0948 20.8986 9.47118 21.5225 8.70439 21.5225C7.9376 21.5225 7.31387 20.8986 7.31387 20.1321C7.31387 19.3655 7.9376 18.7416 8.70439 18.7416C9.47118 18.7416 10.0948 19.3655 10.0948 20.1321ZM8.70428 13.8879C7.63484 13.8879 6.76483 13.0181 6.76483 11.9487C6.76483 10.8793 7.63484 10.0093 8.70428 10.0093C9.77367 10.0093 10.6437 10.8793 10.6437 11.9487C10.6437 13.0181 9.77367 13.8879 8.70428 13.8879ZM15.6821 17.4437C14.9153 17.4437 14.2916 16.8198 14.2916 16.0532C14.2916 15.2866 14.9153 14.6627 15.6821 14.6627C16.4488 14.6627 17.0725 15.2866 17.0725 16.0532C17.0725 16.8198 16.4488 17.4437 15.6821 17.4437Z" fill="black"/>
</svg>
