<svg width="24" height="24" viewBox="0 0 24 24" fill="none" xmlns="http://www.w3.org/2000/svg">
<path d="M11.3803 6.42254L12.1831 4.94366L14.5493 3L18.6338 6.22535L18.1127 6.77465L18.8169 7.76056V8.83099L16.7887 10.493L13.3662 6.42254H11.3803Z" fill="#003459"/>
<path d="M11.0563 7.16901L9.3662 10.1268L17.6056 19.8732L17.3662 20.7606H21.1408L21.831 17.5915L13.0141 7.16901H11.0563Z" fill="#003459"/>
<path d="M8.50704 17.6338L8.01408 18.2394L9.11268 19.9718L9 20.7606H13.6761L14 19.9718L12.1127 17.6338H8.50704Z" fill="#003459"/>
<path d="M6.04225 13.1831H4.92958L2 16.9014V20.7606H5.15493L5.70423 20.0423L8.12676 16.9014H11.6479L12.7183 15.2394L8.91549 10.7183L6.04225 13.1831Z" fill="#003459"/>
</svg>
