<svg width="24" height="24" viewBox="0 0 24 24" fill="none" xmlns="http://www.w3.org/2000/svg">
<path d="M14.6905 11.2703L10.2847 12.709L6.45173 14.4007L5.3794 14.6838C5.10629 14.9435 4.81994 15.2066 4.51023 15.473C4.17056 15.7661 3.8542 16.0325 3.61105 16.2256C3.34133 16.4388 2.94171 16.8384 2.73858 17.0914C2.43552 17.4711 2.19576 17.874 2.09252 18.1837C1.90934 18.7432 1.9993 19.3093 2.35229 19.8322C2.80519 20.4982 3.70768 21.1775 4.75997 21.6404C5.29616 21.8769 6.19862 22.1799 6.87795 22.3497C8.00685 22.6362 10.1915 22.9459 11.3936 22.9925C11.6367 23.0025 11.9631 23.0025 11.9764 22.9925C12.003 22.9758 12.1895 22.6195 12.406 22.1766C13.1453 20.668 13.6781 19.2527 13.9678 18.0439C14.141 17.3113 14.2775 16.3356 14.3674 15.18C14.3908 14.857 14.4007 13.7747 14.3807 13.4084C14.3507 12.8089 14.2974 12.3228 14.2143 11.8465C14.2009 11.7766 14.1976 11.7133 14.2042 11.71C14.2175 11.7 14.2575 11.6867 14.8003 11.5301L14.6905 11.2704V11.2704H14.6905V11.2703ZM13.6848 11.8598C13.7248 11.8598 13.8313 12.8821 13.8579 13.5282C13.8646 13.6647 13.8613 13.7547 13.8546 13.7547C13.828 13.7547 13.2918 13.4383 12.9089 13.1986C12.5759 12.9888 11.9432 12.5691 11.8433 12.4892C11.8099 12.4659 11.8132 12.4626 12.0863 12.3693C12.5492 12.2128 13.6482 11.8598 13.6848 11.8598ZM11.4403 12.5991C11.4703 12.5991 11.5468 12.6424 11.73 12.7556C12.416 13.1852 13.3485 13.7047 13.7481 13.8779C13.8713 13.9312 13.8846 13.9112 13.6015 14.1044C12.9955 14.5173 12.2395 14.9235 11.3137 15.3332C11.1505 15.4064 11.014 15.463 11.0107 15.463C11.0041 15.463 11.024 15.3798 11.0506 15.2799C11.2737 14.4506 11.4003 13.6114 11.407 12.9388C11.4103 12.6057 11.4103 12.6057 11.4403 12.5958C11.4336 12.5991 11.4369 12.5991 11.4403 12.5991ZM10.9774 12.7756C10.9973 12.7955 10.984 13.5415 10.9574 13.7446C10.8975 14.2309 10.8042 14.6837 10.6511 15.1933C10.6144 15.3164 10.5811 15.4197 10.5745 15.4264C10.5611 15.443 10.1049 14.9968 9.95502 14.8236C9.69524 14.5239 9.49215 14.2242 9.34229 13.9311C9.26569 13.7813 9.14583 13.4883 9.1558 13.4782C9.20907 13.4416 10.9641 12.7623 10.9774 12.7756ZM8.79945 13.6314C8.80277 13.6314 8.80608 13.6314 8.80946 13.6347C8.8161 13.6414 8.83945 13.6947 8.85943 13.7546C8.96596 14.0444 9.20569 14.4706 9.41222 14.7437C9.63867 15.0434 9.93508 15.3631 10.1814 15.5729C10.2614 15.6395 10.3346 15.7027 10.3446 15.7128C10.3646 15.7327 10.3713 15.7294 9.82843 15.9359C9.1991 16.1756 8.51305 16.4154 7.72711 16.6685C7.53937 16.729 7.3518 16.7901 7.1644 16.8517C7.13438 16.8617 7.14439 16.845 7.23097 16.7085C7.62058 16.099 8.21333 14.9035 8.54637 14.0577C8.60299 13.9111 8.6596 13.7646 8.66961 13.7313C8.68294 13.6847 8.69955 13.668 8.74283 13.6447C8.76614 13.6381 8.78948 13.6314 8.79945 13.6314ZM8.13348 13.9078C8.14345 13.9145 7.9736 14.2708 7.80709 14.5972C7.48405 15.2266 7.13106 15.846 6.65819 16.5986C6.57827 16.7285 6.5017 16.8484 6.49169 16.8617C6.47506 16.885 6.46836 16.8783 6.41509 16.7751C6.30187 16.552 6.20859 16.2656 6.15865 16.0025C6.10868 15.7427 6.11869 15.2898 6.17533 15.0101C6.21857 14.8037 6.21529 14.807 6.31518 14.757C6.74143 14.5406 8.12015 13.8945 8.13348 13.9078ZM13.878 14.141V14.2808C13.878 15.0234 13.7981 16.0425 13.6814 16.7851C13.6615 16.915 13.6448 17.0215 13.6415 17.0249C13.6415 17.0249 13.5449 16.9983 13.4317 16.9649C12.9322 16.8084 12.3894 16.5786 11.8998 16.3089C11.5767 16.1324 11.1072 15.8426 11.1206 15.8293C11.1239 15.826 11.2638 15.7527 11.4269 15.6661C12.0797 15.3265 12.7057 14.9602 13.2485 14.5972C13.4517 14.4606 13.758 14.2409 13.8247 14.1809L13.878 14.141ZM5.61916 15.1266C5.63247 15.1266 5.62914 15.1533 5.60916 15.2732C5.59583 15.3598 5.5792 15.5196 5.57258 15.6295C5.54588 16.1157 5.62585 16.4754 5.86562 16.9682C5.93222 17.1047 5.98554 17.218 5.98216 17.2213C5.95883 17.2413 3.75432 17.8874 3.06159 18.0772C2.85514 18.1337 2.67535 18.1837 2.66196 18.187C2.63869 18.1937 2.63534 18.1904 2.64532 18.1337C2.72191 17.6442 3.0949 17.0048 3.61439 16.4653C3.96074 16.1057 4.23716 15.8959 4.71003 15.6261C5.04971 15.433 5.57254 15.1433 5.61249 15.13C5.61253 15.1266 5.61584 15.1266 5.61916 15.1266ZM10.8142 16.0557C10.8175 16.0524 10.8975 16.0957 10.994 16.1523C11.7067 16.5653 12.6991 16.9483 13.5449 17.1447L13.6215 17.1614L13.5149 17.2213C13.072 17.4677 11.6168 18.0738 10.1282 18.63C9.91171 18.7098 9.69861 18.7898 9.65859 18.8064C9.61863 18.8231 9.58199 18.8331 9.58199 18.8298C9.58199 18.8264 9.64197 18.7098 9.71851 18.5667C10.1348 17.7874 10.5544 16.8383 10.7675 16.179C10.7942 16.1157 10.8108 16.0591 10.8142 16.0557ZM10.2847 16.2289C10.2881 16.2323 10.2614 16.3022 10.2281 16.3821C9.9384 17.0848 9.55871 17.8508 9.07254 18.7099C8.94934 18.9297 8.84609 19.1062 8.84271 19.1062C8.83944 19.1062 8.7395 19.0462 8.61962 18.973C7.91359 18.5401 7.28755 18.0073 6.87797 17.4911L6.818 17.4178L7.12102 17.3345C8.20667 17.0382 9.12908 16.7185 10.0449 16.3256C10.1748 16.2723 10.2814 16.2289 10.2847 16.2289ZM13.5749 17.3778C13.5749 17.3778 13.5783 17.3812 13.5749 17.3778C13.5782 17.4544 13.4084 18.1405 13.2685 18.6366C13.152 19.0529 13.052 19.3792 12.8689 19.9553C12.789 20.2085 12.7191 20.4182 12.7157 20.4182C12.7124 20.4182 12.6924 20.4149 12.6724 20.4083C11.6834 20.2284 10.7976 19.9786 9.96503 19.6457C9.73189 19.5524 9.39889 19.4025 9.37891 19.3859C9.37228 19.3792 9.5721 19.286 9.82518 19.1761C11.3404 18.5134 12.9122 17.7607 13.4517 17.4378C13.5149 17.3978 13.5649 17.3778 13.5749 17.3778ZM5.97884 17.6376C5.98551 17.6442 5.56257 18.2537 4.96977 19.0829C4.76332 19.3726 4.52356 19.7123 4.43366 19.8388C4.34373 19.9653 4.20721 20.1652 4.13061 20.2851L3.99068 20.5015L3.84082 20.375C3.66431 20.2284 3.35798 19.9154 3.22144 19.7422C2.93503 19.3859 2.74192 19.0096 2.66532 18.6667C2.62868 18.5068 2.62868 18.4268 2.66194 18.4169C2.71188 18.4036 3.60104 18.1938 4.43363 18.0006C4.89652 17.894 5.43264 17.7675 5.62579 17.7209C5.81896 17.6742 5.97552 17.6376 5.97884 17.6376ZM6.40508 17.8008L6.51161 17.9207C6.99121 18.4568 7.48073 18.8532 8.0735 19.1994C8.18009 19.2594 8.25999 19.3126 8.25329 19.316C8.23004 19.3327 6.19526 20.0552 5.25284 20.3816C4.72338 20.5681 4.2871 20.7179 4.28381 20.7179C4.28049 20.7179 4.2505 20.698 4.21715 20.6747L4.15724 20.6314L4.2538 20.4915C4.56682 20.0386 4.95984 19.5424 5.81568 18.5101L6.40508 17.8008ZM9.06258 19.7023C9.06585 19.699 9.21239 19.7522 9.3922 19.8189C9.82518 19.982 10.1681 20.0852 10.6277 20.2018C11.1939 20.345 12.0131 20.4849 12.496 20.5248C12.5692 20.5315 12.6092 20.5382 12.5959 20.5482C12.5725 20.5615 12.083 20.7247 11.7234 20.8379C11.1505 21.0177 9.40223 21.5338 7.97693 21.9435C7.71384 22.0201 7.48738 22.0833 7.47407 22.0867C7.4408 22.0933 7.33087 22.0633 7.33087 22.05C7.33087 22.0434 7.41078 21.9402 7.50737 21.8269C7.98688 21.2541 8.46314 20.6148 8.85943 20.0087C8.96929 19.8421 9.06258 19.7056 9.06258 19.7023ZM8.47642 19.719C8.47974 19.7223 8.24332 20.1019 7.83043 20.7546C7.65389 21.031 7.4574 21.344 7.38746 21.4539C7.32085 21.5605 7.22096 21.727 7.16437 21.8202L7.06778 21.9901L7.01784 21.9768C6.89792 21.9435 6.05541 21.647 5.83228 21.5571C5.55586 21.4472 5.26947 21.3141 5.05632 21.2008C4.78995 21.0576 4.45696 20.8445 4.48357 20.8379C4.49022 20.8345 4.94646 20.7113 5.49591 20.5615C6.95454 20.1651 7.76374 19.9354 8.29328 19.7689C8.38987 19.7389 8.47311 19.7156 8.47642 19.719ZM12.6225 20.6913H12.6258C12.6391 20.7246 12.0997 22.2232 11.9031 22.696C11.8599 22.8026 11.8433 22.8293 11.8199 22.8259C11.7633 22.8226 10.9807 22.7127 10.5045 22.6428C9.67531 22.5162 8.28328 22.2731 7.93364 22.1932L7.85373 22.1766L8.34985 22.0633C9.41554 21.8235 9.92837 21.6937 10.4479 21.5338C11.1039 21.334 11.7533 21.0842 12.4093 20.7779C12.5126 20.7313 12.5992 20.6946 12.6225 20.6913Z" fill="url(#paint0_linear)"/>
<path d="M10.1481 1.00017C10.0749 0.990235 8.89262 1.41648 8.13004 1.72615C7.10099 2.1458 6.30179 2.54543 5.8089 2.89169C5.62577 3.02162 5.39594 3.25137 5.35936 3.34127C5.34605 3.37458 5.33936 3.41453 5.33936 3.45449L5.78562 3.87742L6.84792 4.21709L9.37554 4.67L12.2661 5.1662L12.2961 4.91644C12.2861 4.91644 12.2794 4.91313 12.2695 4.91313L11.8898 4.85316L11.8133 4.71664C11.4203 4.02396 10.9874 3.16478 10.7343 2.58533C10.5378 2.13575 10.3513 1.6163 10.2481 1.24331C10.1914 1.01686 10.1848 1.00355 10.1482 1.00023V1.00016H10.1481V1.00017ZM10.0948 1.17006H10.0982C10.1015 1.17335 10.1148 1.26665 10.1282 1.37648C10.1847 1.84277 10.288 2.29227 10.4512 2.77848C10.5744 3.14481 10.5744 3.12485 10.4312 3.08153C10.0915 2.98831 8.56966 2.72523 7.46737 2.57205C7.29086 2.54872 7.14099 2.52542 7.14099 2.52211C7.12768 2.50879 7.93688 2.08583 8.29322 1.91936C8.74945 1.70952 10.0016 1.18669 10.0948 1.17006ZM6.88452 2.66194L7.01445 2.70519C7.7204 2.94499 9.49534 3.28468 10.4745 3.36459C10.5843 3.37459 10.6776 3.3846 10.6809 3.3846C10.6842 3.38792 10.591 3.43787 10.4711 3.49446C9.99827 3.73091 9.47874 4.02064 9.11907 4.24377C9.01254 4.31034 8.91592 4.36366 8.90264 4.36366C8.88931 4.36366 8.8194 4.35033 8.74613 4.34033L8.61293 4.32032L8.27995 3.99395C7.69383 3.42453 7.23425 2.98497 7.05774 2.81842L6.88452 2.66194ZM6.75136 2.76515L7.22091 3.35128C7.4773 3.6743 7.73706 3.99065 7.79373 4.06055C7.85029 4.13053 7.89694 4.18716 7.89362 4.19048C7.88029 4.20046 7.2143 4.07056 6.86125 3.99068C6.49827 3.9074 6.34841 3.86744 6.1253 3.79754L5.94212 3.73757V3.69092C5.94544 3.46779 6.22854 3.1348 6.70807 2.79516L6.75136 2.76515ZM10.7409 3.5644C10.7542 3.5644 10.7708 3.59436 10.8108 3.68427C10.924 3.93401 11.2771 4.60673 11.3636 4.73659C11.3903 4.77992 11.4369 4.78324 10.9674 4.70664C9.83846 4.52344 9.47542 4.46357 9.47542 4.4569C9.47542 4.45358 9.50873 4.43026 9.55202 4.40693C9.90171 4.21382 10.2547 3.96737 10.5677 3.70428C10.6443 3.64099 10.7143 3.58106 10.7276 3.57105C10.7309 3.5644 10.7376 3.56108 10.7409 3.5644Z" fill="url(#paint1_linear)"/>
<path d="M5.38244 3.29462C5.38244 3.29462 5.30922 3.41122 5.37914 3.5844C5.42247 3.69092 5.549 3.82078 5.69217 3.95401C5.69217 3.95401 7.17408 5.39928 7.35392 5.60578C8.1731 6.55152 8.52945 7.48397 8.56276 8.76942C8.58274 9.5953 8.42618 10.3213 8.03658 11.1638C7.34391 12.6757 5.88194 14.3441 3.62744 16.1957L3.95718 16.0858C4.1703 15.9259 4.46003 15.7561 5.13936 15.3831C6.70784 14.5239 8.47283 13.7347 10.6374 12.9221C13.7544 11.7499 18.8796 10.3778 21.7967 9.93164L22.0998 9.88498L22.0532 9.81172C21.7868 9.39877 21.6036 9.14237 21.3838 8.8693C20.7444 8.07672 19.9685 7.43403 19.0194 6.90119C17.714 6.17192 16.0255 5.60247 13.8876 5.17953C13.4847 5.09957 12.5989 4.9464 11.8796 4.83651C10.3543 4.60013 9.36861 4.43692 8.28301 4.25043C7.89341 4.18379 7.31058 4.08391 6.92429 4.00068C6.72448 3.95735 6.34155 3.86745 6.04184 3.76422C5.80207 3.67093 5.4557 3.57768 5.38244 3.29462ZM6.24167 4.12719C6.24496 4.1239 6.29823 4.14382 6.36821 4.16715C6.49475 4.21039 6.65791 4.26036 6.85111 4.31368C6.99727 4.35388 7.1438 4.39273 7.29068 4.43022C7.49048 4.48014 7.65696 4.52678 7.66028 4.52678C7.68364 4.55011 8.01999 5.62567 8.13322 6.03862C8.17645 6.19518 8.20982 6.32836 8.20649 6.32836C8.20306 6.33173 8.16648 6.27508 8.12321 6.1985C7.73356 5.51248 7.11749 4.81648 6.40482 4.257C6.31162 4.19046 6.24167 4.13051 6.24167 4.12719ZM7.8801 4.58009C7.89676 4.58009 7.97002 4.59008 8.05989 4.61005C8.62603 4.73658 9.64174 4.92974 10.2911 5.03965C10.401 5.05628 10.4876 5.0763 10.4876 5.08292C10.4876 5.08962 10.4476 5.11288 10.3976 5.13956C10.2878 5.19614 9.84485 5.4592 9.69836 5.55913C9.32868 5.80556 8.99571 6.07196 8.75591 6.31172C8.65935 6.40832 8.57606 6.48823 8.57606 6.48823C8.57606 6.48823 8.55614 6.43164 8.53942 6.36166C8.4196 5.89877 8.1698 5.21275 7.94335 4.7299C7.90671 4.65334 7.87672 4.58339 7.87672 4.57675C7.87672 4.5834 7.87672 4.58009 7.8801 4.58009ZM10.764 5.12956C10.784 5.13619 10.8173 5.24943 10.8839 5.49918C11.0071 5.98208 11.0637 6.52156 11.0437 7.02441C11.037 7.16427 11.0304 7.29413 11.0237 7.31082L11.0137 7.34408L10.8406 7.2875C10.4843 7.17427 9.90483 7.0044 9.40866 6.86456C9.12555 6.78796 8.89583 6.71803 8.89583 6.71138C8.89583 6.69137 9.30878 6.27845 9.48526 6.12195C9.82154 5.82552 10.734 5.11955 10.764 5.12956ZM10.9938 5.16282C11.0038 5.15289 12.3725 5.38927 12.9952 5.50917C13.4581 5.59907 14.1308 5.73895 14.1707 5.75563C14.1907 5.76227 14.1208 5.80222 13.8976 5.90212C13.0185 6.29844 12.3658 6.65471 11.7164 7.08768C11.5466 7.2009 11.4034 7.29413 11.4001 7.29413C11.3968 7.29413 11.3934 7.19758 11.3934 7.08101C11.3934 6.44831 11.2669 5.8089 11.0337 5.26943C11.0104 5.21614 10.9904 5.1662 10.9938 5.16282ZM14.5337 5.86219C14.5437 5.87217 14.5004 6.14194 14.4604 6.30176C14.3406 6.79796 14.0176 7.53397 13.6213 8.2266C13.5513 8.34982 13.4881 8.44973 13.4814 8.45304C13.4748 8.45636 13.3848 8.40639 13.2816 8.34646C12.8953 8.12001 12.4557 7.90689 11.9762 7.70705C11.843 7.65046 11.7264 7.60381 11.7231 7.59721C11.6997 7.5772 12.7721 6.86788 13.3382 6.52821C13.7878 6.25515 14.5204 5.84885 14.5337 5.86219ZM14.7868 5.90213C14.8168 5.90213 15.4229 6.06866 15.7392 6.1619C16.5218 6.39503 17.4209 6.72469 18.007 6.9911L18.2501 7.10104L18.0803 7.14096C16.6484 7.47062 15.4229 7.85032 14.2406 8.32984C14.1441 8.3698 14.0575 8.40311 14.0509 8.40311C14.0442 8.40311 14.0775 8.32652 14.1208 8.23325C14.4771 7.47732 14.7069 6.68807 14.7635 6.01534C14.7669 5.95206 14.7768 5.90213 14.7868 5.90213ZM8.7526 7.2875C8.76256 7.27748 9.22547 7.38741 9.47523 7.45728C9.85486 7.56388 10.6607 7.83359 10.6607 7.8536C10.6607 7.85692 10.5708 7.93352 10.4643 8.02679C10.0281 8.38978 9.60843 8.77269 9.10555 9.25891C8.95569 9.40216 8.82918 9.5187 8.82255 9.5187C8.81585 9.5187 8.81258 9.49867 8.81585 9.47205C8.89243 8.91256 8.87583 8.19327 8.76926 7.46397C8.75923 7.3707 8.74926 7.29081 8.7526 7.2875ZM18.48 7.29751C18.4866 7.30413 18.2668 7.65046 18.1269 7.84692C17.9272 8.13331 17.634 8.51301 16.9713 9.34554C16.6217 9.78508 16.2287 10.2813 16.0989 10.4478C15.9656 10.6143 15.8558 10.7541 15.8524 10.7541C15.8491 10.7541 15.8059 10.6942 15.7592 10.621C15.3862 10.0615 14.94 9.57196 14.4105 9.13239C14.3106 9.04911 14.2007 8.9592 14.1641 8.93255C14.1274 8.90593 14.0974 8.87928 14.0974 8.87597C14.0974 8.866 14.6635 8.62284 15.0932 8.44971C15.8458 8.14332 16.8714 7.77702 17.6407 7.54056C18.0437 7.41403 18.4733 7.29081 18.48 7.29751ZM18.7364 7.36406C18.7496 7.36076 18.8296 7.40072 18.9262 7.45728C19.7354 7.92017 20.528 8.5163 21.1541 9.12906C21.3306 9.30225 21.7668 9.75514 21.7601 9.75846C21.7601 9.75846 21.6069 9.77178 21.4271 9.78508C20.0251 9.89168 18.2302 10.188 16.5052 10.6043C16.3886 10.6309 16.2854 10.6542 16.2787 10.6542C16.2721 10.6542 16.402 10.5244 16.5652 10.3679C17.5775 9.39213 18.0404 8.77606 18.5865 7.67708C18.6631 7.51394 18.7297 7.37408 18.7364 7.36406C18.733 7.36406 18.733 7.36406 18.7364 7.36406ZM11.3201 8.12339C11.3668 8.13332 11.7997 8.33653 12.126 8.49967C12.4257 8.64947 12.8753 8.88929 12.8986 8.90924C12.9019 8.91256 12.7421 8.99582 12.5457 9.09242C11.9196 9.40544 11.3834 9.7018 10.8239 10.0415C10.6641 10.1381 10.5309 10.218 10.5276 10.218C10.5142 10.218 10.5176 10.2046 10.6075 10.0415C10.9072 9.49539 11.147 8.84267 11.2835 8.20659C11.2968 8.15665 11.3101 8.12339 11.3201 8.12339ZM10.8872 8.20327C10.8972 8.21328 10.784 8.62286 10.7141 8.84599C10.5775 9.26892 10.3477 9.7984 10.1246 10.198C10.0713 10.2912 9.99138 10.4278 9.94809 10.5044L9.86486 10.6376L9.67837 10.4578C9.46193 10.248 9.28539 10.1181 9.05899 10.0015C8.96902 9.95493 8.89911 9.91493 8.89911 9.90831C8.89911 9.88167 9.46857 9.3655 9.90482 8.99252C10.2178 8.72277 10.8772 8.19329 10.8872 8.20327ZM13.5347 9.29225L13.6979 9.39878C14.0708 9.64192 14.5104 9.96492 14.8468 10.248C15.0365 10.4045 15.4028 10.7342 15.4762 10.8141L15.5161 10.8574L15.2464 10.934C13.7212 11.3569 12.5423 11.7332 11.1669 12.2394C11.0137 12.296 10.8839 12.3426 10.8738 12.3426C10.8539 12.3426 10.8372 12.3593 11.1803 12.0429C12.0595 11.2337 12.8387 10.3412 13.4181 9.47203L13.5347 9.29225ZM12.8387 9.46541C12.8453 9.47205 12.3891 10.1147 12.116 10.4777C11.7897 10.9107 11.2102 11.6366 10.8106 12.1095C10.6441 12.306 10.501 12.4692 10.4943 12.4725C10.4843 12.4758 10.4809 12.4259 10.4809 12.3493C10.4809 11.9463 10.3777 11.5167 10.1979 11.1504C10.1213 10.9972 10.1079 10.9606 10.1246 10.944C10.1879 10.8873 11.157 10.3345 11.7697 10.0049C12.1826 9.78509 12.8286 9.45875 12.8387 9.46541ZM8.62934 10.4978C8.63936 10.4978 8.71596 10.5377 8.80255 10.5843C9.01567 10.7009 9.20549 10.8308 9.37532 10.9706C9.38196 10.9773 9.29541 11.0472 9.18218 11.1304C8.8658 11.3569 8.38628 11.7199 8.10659 11.943C7.81346 12.1762 7.80354 12.1828 7.83681 12.1329C8.05662 11.7965 8.16647 11.6067 8.28307 11.3636C8.38628 11.1472 8.48949 10.8907 8.56276 10.6676C8.58939 10.571 8.62271 10.4978 8.62934 10.4978ZM9.75165 11.3769C9.76825 11.3736 9.78829 11.4035 9.87816 11.5368C10.068 11.8198 10.2145 12.1995 10.2512 12.5058L10.2578 12.5725L9.80162 12.749C8.98568 13.0653 8.23311 13.3784 7.72354 13.6114C7.58038 13.6781 7.33061 13.7979 7.16746 13.8779C7.00426 13.9611 6.87106 14.0244 6.87106 14.0211C6.87106 14.0177 6.97427 13.9411 7.10081 13.8479C8.09659 13.1253 8.95907 12.3327 9.6051 11.5401C9.67505 11.4568 9.73835 11.3802 9.74495 11.3769L9.75165 11.3769ZM9.23548 11.5035C9.24881 11.5168 8.86918 11.9463 8.60943 12.2094C7.96671 12.8655 7.33064 13.3784 6.54137 13.8779C6.44148 13.9411 6.35158 13.9977 6.34157 14.0044C6.31824 14.0177 6.3482 13.9844 6.69455 13.6081C6.91437 13.3717 7.08085 13.1719 7.27067 12.9255C7.39721 12.7623 7.42053 12.739 7.60372 12.6091C8.09326 12.2561 9.22215 11.4901 9.23548 11.5035Z" fill="url(#paint2_radial)"/>
<defs>
<linearGradient id="paint0_linear" x1="5.31466" y1="20.8238" x2="6.90779" y2="19.8824" gradientUnits="userSpaceOnUse">
<stop stop-color="#909CA9"/>
<stop offset="1" stop-color="#EDEDEE"/>
</linearGradient>
<linearGradient id="paint1_linear" x1="5.35104" y1="3.07667" x2="6.63293" y2="3.07667" gradientUnits="userSpaceOnUse">
<stop stop-color="#939FAB"/>
<stop offset="1" stop-color="#DCDEE1"/>
</linearGradient>
<radialGradient id="paint2_radial" cx="0" cy="0" r="1" gradientUnits="userSpaceOnUse" gradientTransform="translate(11.8192 8.95572) rotate(-171.457) scale(1.65269 3.30621)">
<stop stop-color="#EE352C"/>
<stop offset="1" stop-color="#A91D22"/>
</radialGradient>
</defs>
</svg>
