<svg width="24" height="24" viewBox="0 0 24 24" fill="none" xmlns="http://www.w3.org/2000/svg">
<path d="M22.0414 14.895C21.9499 14.4805 21.5739 13.997 20.8154 13.997C20.6604 13.997 20.4909 14.0165 20.2979 14.0565C19.9439 14.1295 19.6424 14.165 19.3769 14.177C21.4434 10.657 22.7849 5.76751 21.4564 4.07001C19.7059 1.83351 17.3494 1.49951 16.1009 1.49951L15.9834 1.50001C15.5189 1.50751 15.0369 1.56451 14.5519 1.66951L12.7604 2.05651C12.5164 2.02601 12.2679 2.00451 12.0089 2.00001H11.9939H11.9859L11.9099 1.99951C11.1134 1.99951 10.3869 2.16851 9.73938 2.48601L9.11388 2.23951C8.25388 1.90051 6.95988 1.49701 5.67988 1.49701C5.60788 1.49701 5.53638 1.49851 5.46438 1.50101C4.20338 1.54651 3.12038 2.02501 2.33188 2.88451C1.34788 3.95751 0.899877 5.52701 1.00138 7.55001C1.00638 7.65451 2.23038 18 5.69988 18H5.71238L5.74438 17.9995C6.19488 17.9885 6.62438 17.8075 7.02588 17.461C7.33238 17.691 7.72888 17.827 8.09838 17.881C8.34238 17.9385 8.78138 18.02 9.30738 18.02C9.94938 18.02 10.5284 17.8885 11.0274 17.651C11.0269 18.091 11.0244 18.648 11.0194 19.36L11.0189 19.3975L11.0214 19.435C11.0699 20.1445 11.1924 20.784 11.3769 21.2855C11.9024 22.715 12.8099 23.5025 13.9324 23.5025C13.9789 23.5025 14.0264 23.501 14.0744 23.498C14.9974 23.441 15.9329 22.9225 16.5764 22.112C17.2729 21.2345 17.4339 20.3085 17.4959 19.599L17.4999 19.5555V19.5115V17.472L17.5514 17.477L17.7694 17.496L17.7904 17.498L17.8114 17.499C17.8734 17.502 17.9374 17.503 18.0019 17.503C18.7554 17.503 19.6829 17.3075 20.3099 17.016C20.9094 16.738 22.2794 15.974 22.0414 14.895Z" fill="white"/>
<path d="M16.4998 17C16.4998 16.8975 16.5058 16.812 16.5088 16.7175C16.5038 16.592 16.4998 16.5 16.4998 16.5C16.4998 16.5 16.5058 16.4955 16.5158 16.489C16.5903 15.1525 16.9588 14.6375 17.3533 14.344C17.2983 14.2675 17.2348 14.185 17.1753 14.1065C17.0088 13.888 16.8013 13.617 16.5793 13.2695L16.5383 13.1905C16.5048 13.1085 16.4238 12.967 16.3208 12.781C15.7293 11.711 14.4983 9.48501 15.3408 8.07901C15.7098 7.46301 16.4018 7.10801 17.4013 7.02051C16.9928 5.85901 15.4623 3.05751 11.9923 3.00001C11.9913 3.00001 11.9903 3.00001 11.9893 3.00001C8.96882 2.95101 7.97632 5.69601 7.65332 7.33601C8.09832 7.14751 8.60632 7.03301 9.07132 7.03301C9.07832 7.03301 9.08582 7.03301 9.09282 7.03301C10.2378 7.04151 11.0253 7.65251 11.2543 8.71001C11.4218 9.48601 11.5023 10.165 11.5003 10.7865C11.4953 12.146 11.2213 12.861 10.9793 13.492L10.9023 13.696C10.8403 13.863 10.7748 14.0185 10.7128 14.1645C10.6498 14.3135 10.5943 14.446 10.5538 14.5655C10.7958 14.6205 10.9858 14.698 11.1163 14.7555L11.1918 14.7885C11.2153 14.7985 11.2388 14.81 11.2603 14.823C11.6843 15.081 11.9483 15.4775 12.0048 15.9395C12.0353 16.1885 12.0303 17.886 12.0198 19.367C12.0633 20.0095 12.1723 20.549 12.3163 20.94C12.5208 21.497 13.0318 22.5605 14.0133 22.4995C14.6983 22.457 15.3568 22.04 15.7938 21.49C16.2628 20.8995 16.4358 20.2465 16.5008 19.511V17H16.4998Z" fill="#0277BD"/>
<path d="M7.55696 14.4585C6.75046 13.617 6.35746 12.485 6.50496 11.4305C6.64746 10.413 6.56696 9.41699 6.52346 8.88149C6.50896 8.70299 6.49946 8.56999 6.49996 8.49649C6.49996 8.49249 6.50096 8.48899 6.50146 8.48499C6.50146 8.48299 6.50046 8.48149 6.50046 8.47949C6.56096 6.96899 7.14346 4.58599 8.74696 3.16949C7.96596 2.86199 6.69396 2.45649 5.49996 2.49999C3.62896 2.56799 1.81796 3.86199 1.99996 7.49999C2.06846 8.86499 3.61096 17.0515 5.71996 17C6.02146 16.9925 6.33446 16.799 6.65596 16.412C7.16446 15.8005 7.65846 15.246 8.00996 14.86C7.85246 14.7405 7.70046 14.6085 7.55696 14.4585ZM18.5115 7.36549C18.519 7.44249 18.5125 7.50849 18.5005 7.56949C18.516 8.02949 18.4665 8.47599 18.416 8.90799C18.379 9.22599 18.341 9.55449 18.3305 9.88399C18.32 10.2065 18.3655 10.525 18.4135 10.862C18.526 11.651 18.643 12.5415 18.031 13.5805C18.1435 13.7285 18.2425 13.866 18.3215 13.999C20.6265 10.2615 21.5555 5.81849 20.669 4.68599C19.3275 2.97199 17.4705 2.47599 15.9995 2.49999C15.539 2.50749 15.1205 2.56949 14.763 2.64699C17.301 3.87699 18.4315 6.51299 18.5115 7.36549ZM20.5 15.0355C19.1675 15.3105 18.5265 15.164 18.2155 14.9725C18.1655 15.0085 18.1155 15.039 18.069 15.0675C17.883 15.18 17.5885 15.359 17.5165 16.4585C17.558 16.4665 17.5945 16.471 17.6395 16.4805L17.857 16.5C18.517 16.53 19.3815 16.345 19.8885 16.1095C20.981 15.6025 21.5765 14.8135 20.5 15.0355ZM11.0115 16.0595C10.993 15.9105 10.9125 15.79 10.7655 15.6935L10.7115 15.67C10.531 15.5905 10.3265 15.5 9.99996 15.5H9.99796C9.93446 15.505 9.87146 15.5095 9.80796 15.5095C9.78196 15.5095 9.75646 15.506 9.73046 15.505C9.49346 15.6875 9.15646 15.8285 8.32246 16C6.83246 16.3795 7.71196 16.8275 8.28346 16.897C8.83646 17.0355 10.151 17.204 11.024 16.4925C11.0215 16.2685 11.0175 16.1145 11.0115 16.0595Z" fill="#0277BD"/>
<path d="M10.3404 9.25049C10.1944 9.40149 9.96393 9.53349 9.70943 9.49249C9.29543 9.42549 8.97793 8.92599 9.00093 8.73849C9.02293 8.55149 9.37643 8.45399 9.78993 8.52099C9.93343 8.54449 10.0639 8.58499 10.1739 8.63499C10.0139 8.29099 9.72443 8.09249 9.28293 8.04399C8.50043 7.95699 7.66993 8.36599 7.50293 8.59249C7.50643 8.64749 7.51293 8.71799 7.51943 8.80099C7.56593 9.37449 7.65193 10.443 7.49443 11.5695C7.39043 12.312 7.69093 13.154 8.27793 13.767C8.65643 14.162 9.09843 14.412 9.53443 14.486C9.58993 14.247 9.68893 14.014 9.79093 13.7735C9.84743 13.641 9.90743 13.5 9.96393 13.3475L10.0449 13.134C10.2664 12.5565 10.4949 11.959 10.4994 10.7825C10.5014 10.33 10.4459 9.81349 10.3404 9.25049ZM17.4234 11.0035C17.3714 10.639 17.3179 10.2615 17.3309 9.85199C17.3424 9.48099 17.3834 9.13099 17.4229 8.79249C17.4539 8.52599 17.4779 8.26999 17.4919 8.01749C16.8474 8.07099 16.4194 8.25699 16.2164 8.57149C16.3004 8.54299 16.3954 8.52049 16.5004 8.50699C16.9464 8.44899 17.2719 8.57749 17.3094 8.82549C17.3369 9.00699 17.1829 9.17799 17.1154 9.24349C16.9769 9.37799 16.8024 9.46449 16.6249 9.48749C16.5929 9.49149 16.5604 9.49349 16.5289 9.49349C16.3524 9.49349 16.1839 9.43299 16.0544 9.34349C16.1104 10.33 16.8379 11.6495 17.1959 12.297C17.2724 12.4355 17.3314 12.546 17.3804 12.641C17.5769 12.0815 17.5044 11.5715 17.4234 11.0035Z" fill="#0277BD"/>
</svg>
