<svg width="24" height="24" viewBox="0 0 24 24" fill="none" xmlns="http://www.w3.org/2000/svg">
<path d="M21.4451 9.79865H14.5312C14.3653 9.79865 14.2062 9.73273 14.0888 9.6154C13.9715 9.49807 13.9056 9.33895 13.9056 9.17302V1.967C13.9056 1.43075 13.4749 1.00037 12.939 1.00037H10.4691C9.93288 1.00037 9.5025 1.43109 9.5025 1.967V9.12455C9.5025 9.49821 9.20206 9.79899 8.82806 9.79899L6.56138 9.80724C6.18772 9.80724 5.87903 9.5068 5.88694 9.1328L5.9031 1.96733C5.9031 1.43108 5.47238 1.00071 4.93647 1.00071H2.46663C1.93038 1.00071 1.5 1.43142 1.5 1.96733V22.1393C1.5 22.6102 1.88156 23.0004 2.3611 23.0004H21.4447C21.9157 23.0004 22.3058 22.6188 22.3058 22.1393V10.6594C22.3065 10.5461 22.2847 10.4338 22.2417 10.3291C22.1986 10.2243 22.1352 10.1291 22.0551 10.049C21.975 9.96889 21.8798 9.90549 21.7751 9.86246C21.6703 9.81943 21.558 9.79762 21.4447 9.7983L21.4451 9.79865ZM18.2035 17.3704C18.2027 17.6675 18.0843 17.9522 17.8742 18.1623C17.664 18.3723 17.3793 18.4907 17.0822 18.4914H15.1324C14.8354 18.4906 14.5507 18.3722 14.3407 18.1622C14.1306 17.9521 14.0123 17.6675 14.0115 17.3704V15.4207C14.0123 15.1236 14.1306 14.839 14.3407 14.6289C14.5507 14.4189 14.8354 14.3005 15.1324 14.2997H17.0822C17.3793 14.3004 17.664 14.4188 17.8742 14.6288C18.0843 14.8389 18.2027 15.1236 18.2035 15.4207V17.3704Z" fill="#FF6600"/>
</svg>
