<svg width="24" height="24" viewBox="0 0 24 24" fill="none" xmlns="http://www.w3.org/2000/svg">
<path d="M21.226 8.13476L20.9332 8.12985L12.1195 5.52047L12.1143 5.39972V1L21.2266 5.55706L21.226 8.13476Z" fill="#D9A741"/>
<path d="M12.1133 5.66343L12.1142 1L3.00121 5.55528L3 18.4431L3.00456 18.4454V18.4455L12.1123 23.0002L12.1426 22.9581L12.1309 18.6243L12.113 18.6001L11.5437 18.1942L4.49515 16.0938L4.53074 7.94175L12.1133 5.66343Z" fill="#876929"/>
<path d="M13.476 14.9047L4.16406 16.2147L4.1647 7.78369L13.4766 9.09543L13.476 14.9047Z" fill="#D9A741"/>
<path d="M8.75732 14.3718L12.113 14.799L12.1136 9.19873L8.75797 9.62556L8.75732 14.3718" fill="#876929"/>
<path d="M5.37695 13.9416L7.55467 14.2184L7.55531 9.77832L5.37695 10.0558V13.9416" fill="#876929"/>
<path d="M4.16504 7.7837L12.1144 5.39972L21.2261 8.13477L13.4827 9.09608L4.16504 7.7837Z" fill="#624A1E"/>
<path d="M21.2211 13.6287L12.1128 14.7782L12.1134 9.19873L21.2211 10.359V13.6287" fill="#D9A741"/>
<path d="M21.2207 15.8685L21.0247 15.8769L12.1409 18.5661L12.1129 18.6002L12.1123 23.0002L21.2207 18.4471V15.8685" fill="#D9A741"/>
<path d="M4.16406 16.2147L12.1129 18.6001L21.2206 15.8684L13.476 14.9047L4.16406 16.2147" fill="#FAD791"/>
</svg>
