<svg width="20" height="20" viewBox="0 0 20 20" fill="none" xmlns="http://www.w3.org/2000/svg">
<path d="M9.99995 14.9986C10.4603 14.9986 10.8336 14.6255 10.8336 14.1653C10.8336 13.7051 10.4603 13.332 9.99995 13.332C9.53956 13.332 9.16634 13.7051 9.16634 14.1653C9.16634 14.6255 9.53956 14.9986 9.99995 14.9986Z" fill="currentColor"/>
<path d="M9.16634 11.6446C9.16634 12.117 9.54928 12.5 10.0217 12.5C10.4765 12.5 10.853 12.144 10.868 11.6894C10.8733 11.5282 10.877 11.3714 10.877 11.25C10.877 10.8333 11.3709 10.5644 11.6663 10.4167C12.8565 9.82159 13.333 9.33471 13.333 7.91668C13.333 6.10053 11.9033 5.00001 9.99967 5.00001C8.44344 5.00001 7.13629 6.06648 6.7692 7.50844C6.65565 7.95445 7.03944 8.33334 7.49967 8.33334C7.95991 8.33334 8.31574 7.93791 8.53673 7.5342C8.81973 7.01724 9.36876 6.66668 9.99967 6.66668C11.064 6.66668 11.6663 7.13035 11.6663 7.91668C11.6663 8.58197 11.5618 8.70391 10.877 9.04632C9.88117 9.54423 9.16634 10.4167 9.16634 11.25C9.16634 11.3601 9.16634 11.4994 9.16634 11.6446Z" fill="currentColor"/>
<path fill-rule="evenodd" clip-rule="evenodd" d="M0.833008 10C0.833008 15.0626 4.93706 19.1667 9.99967 19.1667C15.0623 19.1667 19.1663 15.0626 19.1663 10C19.1663 4.9374 15.0623 0.833344 9.99967 0.833344C4.93706 0.833344 0.833008 4.9374 0.833008 10ZM17.4997 10C17.4997 14.1421 14.1418 17.5 9.99967 17.5C5.85754 17.5 2.49967 14.1421 2.49967 10C2.49967 5.85787 5.85754 2.50001 9.99967 2.50001C14.1418 2.50001 17.4997 5.85787 17.4997 10Z" fill="currentColor"/>
</svg>
