<svg width="24" height="24" viewBox="0 0 24 24" fill="none" xmlns="http://www.w3.org/2000/svg">
<path d="M14.4684 13.9545C14.4684 15.1594 13.6822 15.7643 12.5424 15.7643C12.133 15.7643 10.9607 15.5642 10.9607 15.0106C10.9607 14.8245 11.17 14.5733 11.3654 14.5733C11.6864 14.5733 12.04 14.885 12.6168 14.885C13.1053 14.885 13.4635 14.6012 13.4635 14.0941V13.8568H13.4496C13.2402 14.1638 12.9006 14.3313 12.4401 14.3313C11.3887 14.3313 10.8955 13.4055 10.8955 12.4099C10.8955 11.4004 11.5375 10.4606 12.5471 10.4606C12.8867 10.4606 13.2775 10.6141 13.4636 10.9212C13.5241 10.656 13.6869 10.5025 13.966 10.5025C14.2591 10.5025 14.4685 10.7258 14.4685 11.0608V13.9545H14.4684ZM12.682 11.3818C12.1609 11.3818 11.9004 11.9261 11.9004 12.3913C11.9004 12.9263 12.1563 13.4148 12.682 13.4148C13.217 13.4148 13.4682 12.9124 13.4682 12.4286C13.4682 11.9354 13.231 11.3818 12.682 11.3818H12.682ZM15.6734 12.731C15.7431 13.2241 16.1525 13.4567 16.6178 13.4567C17.1342 13.4567 17.4878 13.052 17.7529 13.052C17.9669 13.052 18.1623 13.266 18.1623 13.4846C18.1623 13.9173 17.2737 14.336 16.5247 14.336C15.3989 14.336 14.6452 13.5125 14.6452 12.41C14.6452 11.3957 15.3849 10.47 16.441 10.47C17.525 10.47 18.2414 11.4562 18.2414 12.2936C18.2414 12.5914 18.1112 12.7403 17.8041 12.7403H15.6734V12.731V12.731ZM17.2458 12.061C17.19 11.6237 16.9109 11.2934 16.4456 11.2934C15.999 11.2934 15.7013 11.633 15.6501 12.061H17.2458ZM19.4324 12.7449C19.5021 13.2381 19.9115 13.466 20.3768 13.466C20.8932 13.466 21.2468 13.0613 21.5119 13.0613C21.7259 13.0613 21.9213 13.2753 21.9213 13.4939C21.9213 13.9266 21.0327 14.3453 20.2837 14.3453C19.1579 14.3453 18.4042 13.5218 18.4042 12.4193C18.4042 11.405 19.1439 10.4793 20.2 10.4793C21.284 10.4793 22.0004 11.4655 22.0004 12.3029C22.0004 12.6007 21.8702 12.7496 21.5631 12.7496H19.4324V12.7449ZM21.0049 12.075C20.949 11.6377 20.6699 11.3074 20.2046 11.3074C19.758 11.3074 19.4603 11.647 19.4138 12.075H21.0048H21.0049Z" fill="#4A494A"/>
<path d="M5.56825 13.6336C5.56825 13.8895 5.56825 14.2896 5.0891 14.2896C4.796 14.2896 4.6797 14.1314 4.60993 13.8663C4.35405 14.1733 4.03767 14.3315 3.65622 14.3315C2.71643 14.3315 2 13.5312 2 12.4007C2 11.3028 2.7397 10.4607 3.6562 10.4607C4.0237 10.4607 4.3866 10.605 4.6099 10.9214C4.63783 10.6794 4.84715 10.5026 5.08908 10.5026C5.56825 10.5026 5.56825 10.8981 5.56825 11.1586V13.6336V13.6336ZM3.79575 13.4103C4.31682 13.4103 4.56805 12.88 4.56805 12.4008C4.56805 11.9217 4.32612 11.3773 3.7958 11.3773C3.2468 11.3773 3.00025 11.9216 3.00025 12.4008C3.00025 12.88 3.25145 13.4103 3.79575 13.4103ZM5.85205 11.061C5.85205 10.726 6.0614 10.5027 6.3545 10.5027C6.63363 10.5027 6.7918 10.6562 6.85695 10.9214C7.04305 10.6143 7.43383 10.4608 7.81065 10.4608C8.88998 10.4608 9.42497 11.4703 9.42497 12.4427C9.42497 13.3871 8.78298 14.3268 7.7734 14.3268C7.4617 14.3268 7.1174 14.2105 6.8569 13.9779V15.2014C6.8569 15.5364 6.64755 15.7597 6.35445 15.7597C6.06135 15.7597 5.85195 15.5364 5.85195 15.2014V11.0609L5.85205 11.061ZM7.64318 13.4103C8.16423 13.4103 8.42475 12.866 8.42475 12.4008C8.42475 11.9263 8.16888 11.3773 7.64318 11.3773C7.10818 11.3773 6.85693 11.8798 6.85693 12.3636C6.85693 12.8567 7.08955 13.4103 7.64318 13.4103ZM10.7229 9.549C10.7229 9.86068 10.4717 10.1258 10.16 10.1258C9.86228 10.1258 9.59713 9.85602 9.59713 9.54897C9.5971 9.26515 9.8623 9 10.16 9C10.4577 9 10.7229 9.25588 10.7229 9.549ZM9.6576 11.061C9.6576 10.726 9.86695 10.5027 10.16 10.5027C10.4531 10.5027 10.6625 10.726 10.6625 11.061V13.7313C10.6625 14.0663 10.4531 14.2896 10.16 14.2896C9.86695 14.2896 9.6576 14.0663 9.6576 13.7313V11.061Z" fill="#FC4C02"/>
</svg>
