<svg width="24" height="24" viewBox="0 0 24 24" fill="none" xmlns="http://www.w3.org/2000/svg">
<path fill-rule="evenodd" clip-rule="evenodd" d="M11.6984 21.8899L7.27116 20.3014V13.8141L11.6984 15.3219V21.8899ZM12.5051 21.8899L16.9324 20.3014V13.8141L12.5051 15.3232V21.8899ZM7.72723 13.327L12.1948 12.0655L16.3497 13.4058L12.1948 14.8162L7.72723 13.327ZM6.42914 12.8306L2 11.2372V4.74051L6.42728 6.24832L6.42914 12.8306ZM7.24013 12.8306L11.6674 11.2421V4.74051L7.23889 6.25577L7.24013 12.8306ZM2.46227 4.26768L6.92988 3L11.0848 4.34028L6.92988 5.75068L2.46227 4.26768ZM16.7661 12.8306L12.3388 11.2421V4.74051L16.7661 6.24832V12.8306ZM17.5727 12.8306L22 11.2421V4.74051L17.5727 6.24832V12.8306ZM12.7949 4.26768L17.2625 3.00621L21.4174 4.34649L17.2625 5.75689L12.7949 4.26768Z" fill="#FF9900"/>
</svg>
