<svg width="24" height="24" viewBox="0 0 24 24" fill="none" xmlns="http://www.w3.org/2000/svg">
<path fill-rule="evenodd" clip-rule="evenodd" d="M3 6C3 3.52331 7.06216 2 12 2C16.9378 2 21 3.52331 21 6V18C21 20.4767 16.9378 22 12 22C7.06216 22 3 20.4767 3 18V6ZM5 12V8.62081C6.65544 9.50509 9.18547 10 12 10C14.8145 10 17.3446 9.50509 19 8.62081V12C19 12.837 15.8987 14 12 14C8.10128 14 5 12.837 5 12ZM19 14.6208V18C19 18.837 15.8987 20 12 20C8.10128 20 5 18.837 5 18V14.6208C6.65544 15.5051 9.18547 16 12 16C14.8145 16 17.3446 15.5051 19 14.6208ZM12 8C15.8987 8 19 6.83702 19 6C19 5.16298 15.8987 4 12 4C8.10128 4 5 5.16298 5 6C5 6.83702 8.10128 8 12 8Z" fill="currentColor"/>
</svg>
