<svg width="24" height="24" viewBox="0 0 24 24" fill="none" xmlns="http://www.w3.org/2000/svg">
<g clip-path="url(#clip0)">
<path d="M19.1736 9.9163C19.3501 11.9727 16.1138 13.93 11.9451 14.2876C7.77638 14.6452 4.25518 13.2679 4.07776 11.2114C3.90033 9.155 7.13756 7.19754 11.3063 6.8399C15.475 6.48226 18.9962 7.85965 19.1736 9.9163Z" fill="#BBE6FB"/>
<g opacity="0.35">
<path opacity="0.35" d="M11.4286 7.08113C9.8385 7.05527 7.97777 7.68662 6.59325 8.27785C6.44633 8.70062 6.37139 9.14504 6.37158 9.5926C6.37158 12.032 8.57424 14.0097 11.2914 14.0097C14.0087 14.0097 16.2113 12.032 16.2113 9.5926C16.2113 8.8206 15.9902 8.0953 15.6025 7.46395C14.4947 7.29177 12.9723 7.10732 11.4287 7.08124" fill="white"/>
</g>
<path d="M11.2911 7.08055C10.4106 7.02683 8.89338 7.48622 7.62812 7.94427C7.43056 8.40959 7.32887 8.90997 7.3291 9.41549C7.3291 11.5528 9.26696 13.2855 11.3169 13.2855C13.3534 13.2855 15.1552 11.55 15.3047 9.41549C15.3533 8.72039 15.1153 8.06541 14.7818 7.50081C13.4701 7.26978 12.0781 7.12858 11.2911 7.08065" fill="white"/>
<path d="M9.03229 9.13489C9.14039 8.89572 9.30389 8.77858 9.46248 8.57809C9.44487 8.53061 9.40631 8.37525 9.40631 8.32154C9.40643 8.20612 9.45233 8.09547 9.53394 8.01386C9.61555 7.93225 9.72621 7.88635 9.84162 7.88623C9.8966 7.88629 9.95106 7.8968 10.0021 7.91721C10.7226 7.3681 11.6711 7.12872 12.6245 7.3418C12.7108 7.3616 12.7963 7.38476 12.8808 7.41123C11.9387 7.28062 10.877 7.61429 10.1546 8.19727C10.1766 8.24932 10.2378 8.39811 10.2378 8.45806C10.2378 8.69846 10.0822 8.75697 9.84185 8.75697C9.7885 8.75692 9.73562 8.74709 9.68582 8.72799C9.52266 8.9471 9.32272 9.36324 9.22487 9.62537C9.6243 9.98267 9.98517 10.1122 10.4555 10.2879C10.4544 10.2656 10.4716 10.2448 10.4716 10.2219C10.4716 9.4972 11.1097 8.9082 11.8346 8.9082C12.4842 8.9082 13.022 9.38051 13.127 10.0002C13.4511 9.79399 13.7645 9.63595 14.0033 9.33148C13.9476 9.26461 13.8874 9.07102 13.8874 8.97629C13.8874 8.75819 14.0644 8.58133 14.2825 8.58133C14.3134 8.58133 14.343 8.58578 14.3719 8.59247C14.4931 8.34327 14.5836 8.07914 14.6431 7.80676C13.5097 6.96756 11.3167 7.08213 11.3167 7.08213C11.3167 7.08213 9.5717 6.99107 8.39035 7.56692C8.46914 8.13531 8.69639 8.67806 9.03162 9.13611L9.03229 9.13489ZM14.4484 8.80801C14.5123 8.86409 14.5658 8.93088 14.6067 9.00539C14.7126 9.19485 14.5 9.37037 14.2819 9.37037C14.2602 9.36999 14.2385 9.3678 14.2171 9.3638C13.9713 9.74785 13.5409 10.2403 13.1585 10.4894C13.7447 10.5855 14.2977 10.8204 14.7377 11.1832C15.0582 10.6092 15.3039 9.77894 15.3039 9.07604C15.3039 8.54109 15.0673 8.14724 14.7101 7.85903C14.6914 8.14612 14.5381 8.54778 14.4484 8.80924V8.80801ZM9.69005 12.444C9.88542 11.9046 10.366 11.4864 10.8206 11.1187C10.754 11.0276 10.6543 10.8021 10.6127 10.6954C10.0583 10.5268 9.56768 10.2111 9.1862 9.79332L9.17706 9.82943C9.10748 10.1434 9.09091 10.4667 9.12802 10.7861C9.2591 10.8107 9.37746 10.8803 9.46263 10.9829C9.5478 11.0855 9.59443 11.2147 9.59443 11.348C9.59443 11.5152 9.44899 11.7545 9.3361 11.8591C9.45869 12.1239 9.5425 12.2516 9.68916 12.444H9.69005ZM9.65573 12.8968C9.42169 12.665 9.26154 12.2029 9.1103 11.9127C9.08156 11.9174 9.05249 11.9198 9.02337 11.9201C8.70731 11.9201 8.3762 11.6548 8.45109 11.3479C8.49255 11.1781 8.60979 11.0671 8.8007 10.9742C8.75612 10.6224 8.74542 10.1166 8.82711 9.75085C8.8494 9.64609 8.90011 9.59706 8.93299 9.49753C8.58416 8.9871 8.35903 8.31619 8.35903 7.65285C8.35903 7.62855 8.36015 7.6046 8.36082 7.58041C7.77148 7.87597 7.32959 8.3416 7.32959 9.07459C7.32959 10.6959 8.26352 12.2865 9.65283 12.9098L9.65584 12.8967L9.65573 12.8968ZM13.072 10.6566C12.8937 11.1672 12.407 11.534 11.835 11.534C11.5411 11.5342 11.2558 11.4352 11.0251 11.2532C10.5651 11.6114 10.148 12.2406 9.9358 12.7865C10.031 12.889 10.0974 12.9731 10.2041 13.0651C10.5258 13.1489 10.9689 13.0651 11.3172 13.0651C12.7181 13.0651 13.9588 12.4419 14.6702 11.349C14.1972 11.0214 13.6393 10.7098 13.072 10.6578" fill="#373535"/>
<path d="M8.996 9.32444C9.10245 9.08854 9.23737 8.86656 9.39777 8.66345C9.37329 8.59763 9.36508 8.52686 9.37384 8.45718C9.3826 8.3875 9.40808 8.32097 9.44809 8.26326C9.48811 8.20554 9.54148 8.15836 9.60366 8.12571C9.66584 8.09307 9.735 8.07594 9.80522 8.07579C9.8602 8.07585 9.91466 8.08636 9.96571 8.10677C10.6862 7.55767 11.6348 7.31828 12.5881 7.53136C12.6744 7.55116 12.7599 7.57432 12.8444 7.60079C11.9023 7.47018 10.929 7.75905 10.2067 8.34192C10.2287 8.39386 10.2408 8.45114 10.2408 8.51099C10.2406 8.6264 10.1947 8.73706 10.1131 8.81867C10.0315 8.90028 9.92086 8.94618 9.80545 8.9463C9.75211 8.94625 9.69922 8.93643 9.64942 8.91732C9.48626 9.13643 9.35297 9.3785 9.2549 9.63951C9.59793 10.0092 10.019 10.3015 10.4892 10.4773C10.4881 10.455 10.4858 10.4327 10.4858 10.4098C10.4858 9.68509 11.0732 9.09754 11.7981 9.09754C12.4477 9.09754 12.9855 9.56985 13.0905 10.1895C13.4146 9.98333 13.7026 9.71852 13.9413 9.41293C13.8832 9.34316 13.8513 9.25531 13.851 9.16452C13.851 8.94641 14.028 8.76955 14.2461 8.76955C14.277 8.76955 14.3066 8.77401 14.3355 8.78069C14.4567 8.5315 14.5472 8.26736 14.6067 7.99498C13.4733 7.15578 11.2803 7.27036 11.2803 7.27036C11.2803 7.27036 9.5353 7.1793 8.35395 7.75515C8.43275 8.32353 8.65999 8.86629 8.99522 9.32434L8.996 9.32444ZM14.5093 8.87263C14.5896 8.94485 14.6408 9.04839 14.6408 9.16463C14.6408 9.38273 14.4639 9.55971 14.2457 9.55971C14.224 9.55934 14.2023 9.55713 14.1809 9.55314C13.935 9.93729 13.6098 10.2644 13.227 10.5125C13.792 10.6011 14.3229 10.8397 14.7642 11.2036C15.0846 10.6296 15.2677 9.96828 15.2677 9.26415C15.2677 8.7292 15.0311 8.33535 14.6739 8.04714C14.6559 8.32835 14.6005 8.60591 14.5093 8.87252V8.87263ZM9.74995 12.5726C9.94531 12.0332 10.2849 11.5489 10.7394 11.1813C10.6723 11.0896 10.6175 10.9896 10.5764 10.8837C10.0287 10.7168 9.53624 10.4052 9.15091 9.98166L9.14178 10.0178C9.07206 10.3317 9.05544 10.655 9.09263 10.9744C9.35787 11.0239 9.55904 11.2564 9.55904 11.5363C9.55911 11.6153 9.54278 11.6933 9.51109 11.7656C9.47939 11.8379 9.43303 11.9028 9.37492 11.9562C9.47803 12.1742 9.60373 12.3807 9.74995 12.5725V12.5726ZM9.65377 12.8893C9.41973 12.6575 9.22514 12.3915 9.07402 12.1014C9.04526 12.106 9.0162 12.1084 8.98709 12.1086C8.67102 12.1086 8.4148 11.8523 8.4148 11.5365C8.41485 11.429 8.44517 11.3238 8.50227 11.2328C8.55937 11.1418 8.64096 11.0688 8.73767 11.022C8.69316 10.6608 8.71114 10.2946 8.79083 9.93941C8.81312 9.83488 8.84276 9.73279 8.87553 9.63293C8.5267 9.12272 8.32252 8.50586 8.32252 7.8413C8.32252 7.817 8.32364 7.79304 8.32419 7.76908C7.73486 8.06442 7.29297 8.53027 7.29297 9.26315C7.29297 10.8847 8.26123 12.2789 9.65065 12.9024L9.65365 12.8892L9.65377 12.8893ZM13.0361 10.8439C12.8578 11.3546 12.3711 11.7214 11.799 11.7214C11.5052 11.7215 11.2198 11.6226 10.9891 11.4405C10.5292 11.7987 10.182 12.2869 9.97006 12.8329C10.0651 12.9355 10.1668 13.0319 10.2735 13.1227C10.5954 13.2065 10.933 13.2514 11.2812 13.2514C12.6821 13.2514 13.9136 12.527 14.6251 11.4354C14.1521 11.1077 13.6034 10.896 13.0361 10.8441" fill="#1287B1"/>
<path d="M13.0819 10.5066L14.2944 10.2174L13.0774 10.1553L14.0679 9.39835L12.944 9.80124L13.7078 8.74282L12.6529 9.44494L13.0207 8.20597L12.2963 9.22717L12.2798 7.9366L11.8031 9.08608L11.4057 7.9229L11.4272 9.29314L10.7404 8.06499L11.112 9.36915L9.99789 8.55893L10.8705 9.65557L9.48858 9.14692L10.5802 9.95459L9.18042 9.9976L10.6116 10.3669L9.1792 10.6768L10.5931 10.7793L9.40065 11.5427L10.6285 11.0976L9.77656 12.1764L10.8531 11.3071L10.4655 12.7559L11.2966 11.5777L11.1801 12.9692L11.6519 11.7077L12.0534 13.0336L12.1511 11.7037L12.7471 12.8382L12.3949 11.5404L13.4863 12.3858L12.7817 11.3079L13.9791 11.7744L13.0636 10.8747L14.2913 10.9712L13.0819 10.5066Z" fill="white"/>
<g opacity="0.35">
<path opacity="0.35" d="M0.174162 12.8266C3.93441 9.06637 6.93759 7.90564 9.66316 7.37682C10.0238 7.30661 10.092 6.51867 10.092 6.51867C10.092 6.51867 10.1425 7.09909 10.3949 7.17476C10.6474 7.25044 10.9752 6.26624 10.9752 6.26624C10.9752 6.26624 10.6724 7.14958 10.9752 7.20018C11.278 7.25077 11.8334 6.34203 11.8334 6.34203C11.8334 6.34203 11.6064 7.12439 11.7578 7.17476C11.9093 7.22514 12.6661 6.038 12.6661 6.038C12.6661 6.038 12.2119 6.82036 12.6409 6.89614C13.07 6.97193 13.696 6.3612 13.696 6.3612C13.696 6.3612 13.2039 6.91899 13.4232 6.996C14.3571 7.32421 15.1127 6.11055 15.1127 6.11055C15.1127 6.11055 14.9378 6.64271 14.4834 7.22313C15.4675 7.47545 16.1997 5.99275 16.1997 5.99275L15.4686 7.47534C15.8472 7.6774 17.3615 5.93602 17.3615 5.93602C17.3615 5.93602 16.5792 7.29881 16.1249 7.57631C16.3772 7.77826 17.2857 6.9707 17.2857 6.9707C17.2857 6.9707 16.5539 7.879 16.8315 7.9296C17.2353 8.2577 18.7241 6.23894 18.7241 6.23894C18.7241 6.23894 18.1438 7.42496 17.2857 8.35867C18.0029 8.71753 19.7842 6.41547 19.7842 6.41547C19.7842 6.41547 19.7337 7.14735 18.4466 8.30819C19.4056 8.18203 20.6421 6.36499 20.6421 6.36499C20.6421 6.36499 20.1878 7.72776 19.1026 8.68666C20.0443 8.58859 21.5504 6.26401 21.5504 6.26401C21.5504 6.26401 20.9701 7.87911 19.784 8.81282C21.0963 9.10303 22.989 7.14724 22.989 7.14724C22.989 7.14724 22.2445 8.53532 21.2727 9.10314C22.358 9.51951 23.8469 7.80344 23.8469 7.80344C23.8469 7.80344 22.358 10.1 19.9858 9.99896C19.2074 9.96586 16.8541 7.63761 11.8091 7.82863C5.14663 8.08117 3.73347 10.9064 0.173828 12.8255" fill="#373535"/>
</g>
<path d="M0.328374 12.541C4.08862 8.78074 7.09169 7.62012 9.81726 7.09119C10.178 7.02098 10.2463 6.23304 10.2463 6.23304C10.2463 6.23304 10.2967 6.81257 10.5492 6.88913C10.8018 6.9657 11.1296 5.98083 11.1296 5.98083C11.1296 5.98083 10.8268 6.86417 11.1296 6.91454C11.4324 6.96491 11.9877 6.0564 11.9877 6.0564C11.9877 6.0564 11.7607 6.83876 11.9119 6.88913C12.0632 6.93951 12.8204 5.75237 12.8204 5.75237C12.8204 5.75237 12.3662 6.53473 12.7953 6.61051C13.2243 6.6863 13.8503 6.07557 13.8503 6.07557C13.8503 6.07557 13.3582 6.63336 13.5775 6.71037C14.5114 7.03847 15.2667 5.82492 15.2667 5.82492C15.2667 5.82492 15.0917 6.35708 14.6376 6.9375C15.6217 7.18993 16.3539 5.70712 16.3539 5.70712L15.6206 7.18993C15.9992 7.39053 17.5133 5.65062 17.5133 5.65062C17.5133 5.65062 16.7311 7.01318 16.2769 7.29079C16.5292 7.49274 17.4377 6.68518 17.4377 6.68518C17.4377 6.68518 16.7058 7.5937 16.9835 7.64408C17.3872 7.97229 18.8761 5.95342 18.8761 5.95342C18.8761 5.95342 18.2965 7.13956 17.4377 8.07316C18.1549 8.43202 19.9362 6.12995 19.9362 6.12995C19.9362 6.12995 19.8857 6.86194 18.5986 8.02278C19.5576 7.89651 20.7941 6.07946 20.7941 6.07946C20.7941 6.07946 20.3398 7.44225 19.2545 8.40126C20.1963 8.30318 21.7024 5.97861 21.7024 5.97861C21.7024 5.97861 21.1221 7.59371 19.9359 8.52742C21.2482 8.81763 23.141 6.86194 23.141 6.86194C23.141 6.86194 22.3965 8.2498 21.4247 8.81763C22.5099 9.234 23.9989 7.51792 23.9989 7.51792C23.9989 7.51792 22.5099 9.81452 20.1375 9.71344C19.3594 9.68023 17.0051 7.35075 11.961 7.54311C5.29861 7.79542 3.88545 10.6219 0.327148 12.5398" fill="#373535"/>
<g opacity="0.35">
<path opacity="0.35" d="M0.0756836 13.2378C2.06302 14.2347 3.88018 13.0865 6.17032 13.7319C7.91146 14.2227 10.0314 14.8277 12.9082 14.4112C15.785 13.9948 18.2458 12.7458 19.4194 10.5122C19.7853 9.51557 21.2742 10.7396 21.2742 10.7396C21.2742 10.7396 20.1891 10.2853 20.2154 10.5C20.2417 10.7146 21.8431 11.4589 21.8431 11.4589C21.8431 11.4589 20.3921 11.0046 20.4803 11.3452C20.5686 11.6858 22.2971 13.0487 22.2971 13.0487C22.2971 13.0487 20.3415 11.5597 20.1774 11.7615C20.0134 11.9632 21.0101 12.7837 21.0101 12.7837C21.0101 12.7837 19.3571 11.7615 18.7767 12.0629C18.3592 12.2795 20.493 13.6796 20.493 13.6796C20.493 13.6796 19.1049 12.6195 18.7767 12.8972C18.4485 13.175 20.3415 15.446 20.3415 15.446C20.3415 15.446 18.1949 13.1241 17.9809 13.2378C17.7669 13.3515 18.5738 14.4618 18.5738 14.4618C18.5738 14.4618 17.515 13.3009 17.2238 13.5028C16.9326 13.7048 18.7379 16.7203 18.7379 16.7203C18.7379 16.7203 16.782 13.629 15.9746 14.1461C17.2429 16.9285 16.7696 17.3261 16.7696 17.3261C16.7696 17.3261 16.6077 14.4875 15.0282 14.5626C14.2332 14.6005 15.4067 16.6823 15.4067 16.6823C15.4067 16.6823 14.3256 14.7808 13.6073 14.8187C14.933 17.3263 14.4605 18.3479 14.4605 18.3479C14.4605 18.3479 14.6797 16.2052 12.8817 15.0128C13.563 15.6183 12.4542 18.3479 12.4542 18.3479C12.4542 18.3479 13.4296 14.3247 11.7348 15.0936C11.467 15.2146 11.7158 17.0999 11.7158 17.0999C11.7158 17.0999 11.3751 14.9421 10.8644 15.0558C10.5665 15.1218 8.97156 18.0462 8.97156 18.0462C8.97156 18.0462 10.2777 14.8853 9.88019 15.0179C9.59065 15.1145 9.04734 16.4185 9.04734 16.4185C9.04734 16.4185 9.31225 15.1313 9.04734 15.0558C8.78243 14.9802 7.30597 16.4185 7.30597 16.4185C7.30597 16.4185 8.40373 15.1313 8.21449 14.8664C7.92762 14.4649 7.59038 14.446 7.19251 14.6015C6.61299 14.8277 5.82984 15.8885 5.82984 15.8885C5.82984 15.8885 6.60953 14.8145 6.47323 14.4121C6.25446 13.7657 4.0128 15.6604 4.0128 15.6604C4.0128 15.6604 5.33769 14.4121 5.03477 14.1461C4.73186 13.8801 3.08778 13.9631 2.57423 13.9617C1.0601 13.957 0.535406 13.6017 0.075795 13.2377" fill="#373535"/>
</g>
<path d="M0 13.0107C1.98734 14.0076 3.80438 12.8594 6.09452 13.5049C7.83567 13.9955 9.95574 14.6006 12.8327 14.1841C15.7096 13.7677 18.171 12.5186 19.3437 10.2853C19.7095 9.28846 21.1984 10.5123 21.1984 10.5123C21.1984 10.5123 20.1133 10.0581 20.1396 10.2727C20.1659 10.4872 21.7673 11.2316 21.7673 11.2316C21.7673 11.2316 20.3163 10.7774 20.4045 11.1181C20.4928 11.4588 22.2216 12.8215 22.2216 12.8215C22.2216 12.8215 20.2657 11.3325 20.1018 11.5345C19.938 11.7364 20.9347 12.5564 20.9347 12.5564C20.9347 12.5564 19.2816 11.5345 18.7013 11.8357C18.2837 12.0524 20.4173 13.4524 20.4173 13.4524C20.4173 13.4524 19.0293 12.3936 18.7013 12.67C18.3733 12.9464 20.266 15.2188 20.266 15.2188C20.266 15.2188 18.1206 12.897 17.9062 13.0106C17.6918 13.1242 18.4993 14.2345 18.4993 14.2345C18.4993 14.2345 17.4392 13.0737 17.1491 13.2756C16.859 13.4776 18.6633 16.4931 18.6633 16.4931C18.6633 16.4931 16.7074 13.4016 15.8999 13.919C17.1682 16.7013 16.6949 17.0988 16.6949 17.0988C16.6949 17.0988 16.5331 14.2603 14.9535 14.3355C14.1585 14.3734 15.332 16.4552 15.332 16.4552C15.332 16.4552 14.2509 14.5536 13.5328 14.5915C14.8585 17.1004 14.3858 18.1208 14.3858 18.1208C14.3858 18.1208 14.605 15.978 12.807 14.7856C13.4883 15.3912 12.3795 18.1208 12.3795 18.1208C12.3795 18.1208 13.3551 14.0975 11.6603 14.8665C11.3925 14.9876 11.6414 16.8728 11.6414 16.8728C11.6414 16.8728 11.3004 14.7152 10.7897 14.8286C10.4917 14.8947 8.89676 17.8191 8.89676 17.8191C8.89676 17.8191 10.2029 14.6582 9.8054 14.7909C9.51586 14.8873 8.97255 16.1913 8.97255 16.1913C8.97255 16.1913 9.23757 14.9043 8.97255 14.8286C8.70753 14.753 7.23129 16.1913 7.23129 16.1913C7.23129 16.1913 8.32905 14.9043 8.13959 14.6393C7.85272 14.2377 7.51548 14.2191 7.11761 14.3745C6.53808 14.6007 5.75483 15.6614 5.75483 15.6614C5.75483 15.6614 6.53452 14.5872 6.39833 14.185C6.17944 13.5386 3.9379 15.4332 3.9379 15.4332C3.9379 15.4332 5.26279 14.185 4.95987 13.9191C4.65696 13.6532 3.01288 13.7361 2.49933 13.7346C0.985198 13.7298 0.460613 13.3746 0.0010029 13.0106" fill="#373535"/>
</g>
<defs>
<clipPath id="clip0">
<path d="M0 0H24V24H0V0Z" fill="white"/>
</clipPath>
</defs>
</svg>
