<svg width="24" height="24" viewBox="0 0 24 24" fill="none" xmlns="http://www.w3.org/2000/svg">
    <path fill-rule="evenodd" clip-rule="evenodd"
        d="M11 8.99992H18.5858L16 11.5857C15.6095 11.9762 15.6095 12.6094 16 12.9999C16.3905 13.3904 17.0237 13.3904 17.4142 12.9999L21.7071 8.70703C22.0976 8.31651 22.0976 7.68334 21.7071 7.29282L17.4142 2.99992C17.0237 2.6094 16.3905 2.6094 16 2.99992C15.6095 3.39045 15.6095 4.02361 16 4.41414L18.5858 6.99992H11C10.4477 6.99992 10 7.44764 10 7.99992C10 8.55221 10.4477 8.99992 11 8.99992ZM13 14.9999H5.41421L8 12.4141C8.39052 12.0236 8.39052 11.3904 8 10.9999C7.60948 10.6094 6.97631 10.6094 6.58579 10.9999L2.29289 15.2928C1.90237 15.6833 1.90237 16.3165 2.29289 16.707L6.58579 20.9999C6.97631 21.3904 7.60948 21.3904 8 20.9999C8.39052 20.6094 8.39052 19.9762 8 19.5857L5.41421 16.9999H13C13.5523 16.9999 14 16.5522 14 15.9999C14 15.4476 13.5523 14.9999 13 14.9999Z"
        fill="currentColor" />
</svg>