<svg width="24" height="24" viewBox="0 0 24 24" fill="none" xmlns="http://www.w3.org/2000/svg">
<path fill-rule="evenodd" clip-rule="evenodd" d="M3 6C3 3.52331 7.06216 2 12 2C16.9378 2 21 3.52331 21 6V18C21 20.4767 16.9378 22 12 22C7.06216 22 3 20.4767 3 18V6ZM5 12V8.62081C6.65544 9.50509 9.18547 10 12 10C14.8145 10 17.3446 9.50509 19 8.62081V12C19 12.837 15.8987 14 12 14C8.10128 14 5 12.837 5 12ZM19 14.6208V18C19 18.837 15.8987 20 12 20C8.10128 20 5 18.837 5 18V14.6208C6.65544 15.5051 9.18547 16 12 16C14.8145 16 17.3446 15.5051 19 14.6208ZM12 8C15.8987 8 19 6.83702 19 6C19 5.16298 15.8987 4 12 4C8.10128 4 5 5.16298 5 6C5 6.83702 8.10128 8 12 8Z" fill="currentColor"/>
<rect x="2" y="15" width="20" height="8" rx="1" fill="#FB8B24"/>
<path d="M7.12255 17.04H6.29455V19.428C6.29455 20.064 6.12055 20.382 5.59855 20.382C5.10055 20.382 4.92655 20.088 5.02255 19.386L4.21855 19.53C4.06255 20.436 4.52455 21.06 5.58055 21.06C6.55855 21.06 7.12255 20.496 7.12255 19.542V17.04Z" fill="white"/>
<path d="M9.62234 17.04H8.09234V21H9.62234C10.8643 21 11.5723 20.286 11.5723 19.02C11.5723 17.754 10.8643 17.04 9.62234 17.04ZM9.58034 20.34H8.92034V17.7H9.58034C10.3363 17.7 10.7143 18.168 10.7143 19.02C10.7143 19.872 10.3363 20.34 9.58034 20.34Z" fill="white"/>
<path d="M12.4048 21H14.1988C15.1408 21 15.6448 20.598 15.6448 19.914C15.6448 19.452 15.3388 19.08 14.7868 19.002V18.996C15.2848 18.912 15.5428 18.546 15.5428 18.12C15.5428 17.436 15.0988 17.04 14.1388 17.04H12.4048V21ZM13.2088 18.702V17.682H14.0308C14.4688 17.682 14.6848 17.85 14.6848 18.192C14.6848 18.534 14.4688 18.702 14.0308 18.702H13.2088ZM13.2088 20.376V19.338H14.1268C14.5708 19.338 14.7868 19.524 14.7868 19.854C14.7868 20.184 14.5708 20.376 14.1268 20.376H13.2088Z" fill="white"/>
<path d="M19.8261 19.908L19.0641 19.68C18.9381 20.154 18.6081 20.382 18.1701 20.382C17.4741 20.382 17.0961 19.896 17.0961 19.02C17.0961 18.138 17.5101 17.658 18.1701 17.658C18.6141 17.658 18.8901 17.844 19.0221 18.324L19.7721 18.006C19.5501 17.316 18.9441 16.98 18.1341 16.98C16.9761 16.98 16.2381 17.748 16.2381 19.02C16.2381 20.292 16.9701 21.06 18.1461 21.06C18.9501 21.06 19.5861 20.682 19.8261 19.908Z" fill="white"/>
</svg>
