<svg width="24" height="24" viewBox="0 0 24 24" fill="none" xmlns="http://www.w3.org/2000/svg">
<path d="M12.4816 1.05978L13.0687 2.16245C13.2007 2.36593 13.3437 2.54605 13.5121 2.71378C14.0036 3.20531 14.4704 3.72021 14.8897 4.27154C15.8845 5.57769 16.5554 7.02821 17.0346 8.59696C17.3219 9.55526 17.478 10.5383 17.4897 11.5324C17.5378 14.5042 16.519 17.056 14.4649 19.1768C14.1294 19.5123 13.7706 19.823 13.3856 20.0993C13.1821 20.0993 13.0859 19.9433 13.002 19.7996C12.8459 19.5363 12.7504 19.2359 12.7023 18.9369C12.6301 18.5773 12.5827 18.2178 12.606 17.8466V17.6788C12.5895 17.6431 12.4101 1.14434 12.4816 1.05978Z" fill="#599636"/>
<path d="M12.4814 1.02335C12.4573 0.975224 12.4333 1.01166 12.4092 1.03503C12.4209 1.27564 12.337 1.49012 12.2057 1.69498C12.0613 1.89847 11.8702 2.05452 11.6784 2.22225C10.6129 3.14481 9.7742 4.25916 9.10256 5.5055C8.20888 7.18288 7.74829 8.98055 7.61768 10.8731C7.55787 11.5557 7.83354 13.9646 8.04871 14.6596C8.63579 16.5047 9.69033 18.0507 11.0563 19.3926C11.3918 19.7157 11.7506 20.0155 12.1218 20.3035C12.2298 20.3035 12.2415 20.2073 12.2662 20.1358C12.3135 19.9828 12.3496 19.8265 12.3741 19.6683L12.6147 17.8713L12.4814 1.02335Z" fill="#6CAC48"/>
<path d="M13.0687 20.8294C13.0927 20.5544 13.2247 20.3262 13.3684 20.0987C13.2241 20.0388 13.1168 19.9199 13.0329 19.7872C12.9608 19.6676 12.9009 19.5239 12.8542 19.392C12.6865 18.8887 12.6507 18.3608 12.6026 17.8466V17.5352C12.5428 17.5833 12.5304 17.9902 12.5304 18.0507C12.4954 18.5942 12.4233 19.1347 12.3146 19.6683C12.2788 19.8842 12.2547 20.0993 12.1221 20.2911C12.1221 20.3152 12.1221 20.3393 12.1338 20.375C12.3496 21.0102 12.4087 21.6571 12.4452 22.3164V22.557C12.4452 22.8443 12.4335 22.7838 12.672 22.8801C12.7683 22.9158 12.8755 22.9282 12.9718 22.9997C13.0439 22.9997 13.0556 22.9399 13.0556 22.8918L13.0199 22.4965V21.3938C13.0082 21.2013 13.0439 21.0102 13.068 20.8301L13.0687 20.8294Z" fill="#C2BFBF"/>
</svg>
