<svg width="24" height="24" viewBox="0 0 24 24" fill="none" xmlns="http://www.w3.org/2000/svg">
<g clip-path="url(#clip0)">
<path fill-rule="evenodd" clip-rule="evenodd" d="M22.1067 18.6947C20.8014 18.6583 19.7887 18.7921 18.94 19.1492C18.6956 19.2473 18.3034 19.2473 18.2712 19.5549C18.4018 19.684 18.4176 19.8952 18.5321 20.0741C18.7278 20.3988 19.071 20.8361 19.3808 21.063L20.4253 21.8094C21.0619 22.1984 21.78 22.4257 22.4001 22.8151C22.7594 23.0423 23.1182 23.3342 23.4775 23.5778C23.6604 23.7076 23.7713 23.9189 23.9999 23.9996V23.9505C23.8858 23.8051 23.8528 23.5942 23.7391 23.4313L23.2488 22.9612C22.7758 22.3286 22.1879 21.7767 21.5514 21.323C21.0289 20.9659 19.8868 20.4795 19.6746 19.8796L19.6424 19.8432C20.0009 19.8069 20.4253 19.6807 20.7685 19.5833C21.3238 19.4378 21.8294 19.4698 22.4001 19.324L23.1841 19.0968V18.9514C22.8903 18.6594 22.6781 18.27 22.3683 17.9945C21.536 17.2808 20.6214 16.5831 19.6746 15.9992C19.1686 15.6749 18.5156 15.4636 17.9771 15.1884C17.7806 15.091 17.4547 15.0423 17.3405 14.8801C17.046 14.5238 16.8832 14.053 16.6711 13.6309L15.3328 10.8085C15.039 10.1758 14.859 9.54323 14.5005 8.95934C12.8191 6.20164 10.9907 4.53103 8.1832 2.89241C7.57957 2.55174 6.86142 2.40522 6.09792 2.22707L4.87381 2.16163C4.61224 2.0482 4.3514 1.73989 4.12275 1.59373C3.19242 1.00984 0.792875 -0.255395 0.106925 1.41195C-0.333912 2.4663 0.759947 3.5043 1.13127 4.03984C1.40931 4.41287 1.76784 4.83461 1.96429 5.25636C2.07404 5.53194 2.11063 5.82426 2.22514 6.1162C2.48598 6.8299 2.73109 7.62503 3.07389 8.29036C3.25681 8.63103 3.44887 8.98842 3.67752 9.29637C3.80813 9.47815 4.03677 9.55596 4.08543 9.84791C3.85678 10.1726 3.84105 10.6587 3.71045 11.0648C3.12254 12.8979 3.35119 15.1688 4.18348 16.5184C4.44505 16.9237 5.06149 17.8163 5.8978 17.4753C6.63241 17.1833 6.46851 16.2588 6.6807 15.4476C6.73009 15.2531 6.69716 15.1233 6.79484 14.9932V15.0295L7.46433 16.3758C7.97028 17.1706 8.85196 17.9981 9.5862 18.55C9.97765 18.8419 10.2879 19.3451 10.7774 19.5233V19.4742H10.7452C10.6471 19.3288 10.5001 19.2633 10.3695 19.1499C10.0757 18.8579 9.74936 18.5009 9.52071 18.1766C8.8355 17.2684 8.23186 16.2624 7.69298 15.2244C7.4314 14.7216 7.20275 14.17 6.9913 13.6672C6.89252 13.4724 6.89252 13.18 6.72972 13.0833C6.48461 13.4396 6.12609 13.7487 5.94573 14.1864C5.63549 14.8837 5.6033 15.7436 5.48916 16.6358C5.42331 16.6522 5.45258 16.6358 5.42331 16.6721C4.90162 16.5427 4.72163 16.0068 4.5259 15.5531C4.03641 14.4013 3.95446 12.5522 4.37883 11.2218C4.49298 10.8812 4.9832 9.81046 4.78748 9.48615C4.6887 9.17784 4.3631 8.99969 4.18311 8.7561C3.97092 8.44779 3.743 8.05877 3.59594 7.7181C3.20449 6.80917 3.00876 5.80389 2.58402 4.89533C2.38757 4.47359 2.04514 4.03548 1.76747 3.64646C1.45724 3.20835 1.11518 2.90005 0.870066 2.38123C0.788484 2.19944 0.674342 1.91077 0.804946 1.71589C0.83714 1.5861 0.902992 1.53411 1.03286 1.50502C1.24505 1.32323 1.84942 1.55374 2.06161 1.65045C2.66524 1.89404 3.1712 2.12091 3.67715 2.46122C3.9058 2.62337 4.15092 2.93168 4.44469 3.01312H4.78784C5.31026 3.12655 5.89744 3.04947 6.38656 3.1949C7.25178 3.47122 8.03504 3.87624 8.73745 4.3147C10.8754 5.66101 12.6388 7.57522 13.8299 9.86281C14.0257 10.2358 14.1072 10.5765 14.2872 10.9659C14.6304 11.761 15.0548 12.5718 15.3968 13.3509C15.74 14.1133 16.0663 14.8925 16.5558 15.5251C16.8009 15.8657 17.7799 16.0439 18.2204 16.2224C18.5471 16.3678 19.0527 16.4987 19.3472 16.6769C19.9018 17.0175 20.4568 17.4069 20.9788 17.78C21.2397 17.9741 22.0562 18.3798 22.1049 18.7034L22.1067 18.6947ZM5.46099 4.59829C5.23547 4.59631 5.01066 4.62356 4.79223 4.67937V4.71572H4.82443C4.95503 4.97531 5.18369 5.15383 5.34685 5.38106L5.72256 6.15983L5.75476 6.12347C5.98341 5.96132 6.09792 5.70173 6.09792 5.31271C5.99987 5.19927 5.98377 5.08548 5.90219 4.97204C5.80415 4.80989 5.59196 4.72845 5.46099 4.59902V4.59829Z" fill="#00678C"/>
</g>
<defs>
<clipPath id="clip0">
<path d="M0 0H24V24H0V0Z" fill="white"/>
</clipPath>
</defs>
</svg>
