<svg width="24" height="24" viewBox="0 0 24 24" fill="none" xmlns="http://www.w3.org/2000/svg">
<path d="M21.5 17.556V6.66801L12 1.22351L2.5 6.66801V17.556L12 23L21.5 17.556Z" fill="#43A047"/>
<path d="M16.25 6.49997C15.5595 6.49997 15 7.05947 15 7.74997V13.388L9.492 7.22647L9.4265 7.15047C8.8045 6.46897 8.0935 6.49997 7.75 6.49997C7.0595 6.49997 6.5 7.05947 6.5 7.74997V16.25C6.5 16.9405 7.0595 17.5 7.75 17.5C8.4405 17.5 9 16.9405 9 16.25V10.5705L14.639 16.884L14.694 16.955C15.31 17.5665 16.1475 17.5 16.25 17.5C16.9405 17.5 17.5 16.9405 17.5 16.25V7.74997C17.5 7.05947 16.9405 6.49997 16.25 6.49997Z" fill="white"/>
</svg>
