<svg width="20" height="20" viewBox="0 0 20 20" fill="none" xmlns="http://www.w3.org/2000/svg">
  <path fill-rule="evenodd" clip-rule="evenodd" d="M2.00059 14.3079C2.00059 14.4744 2.06697 14.5746 2.20029 14.6578L9.62685 18.9376C9.77705 19.0208 9.92724 19.0208 10.0769 18.9376C10.4191 18.7496 10.7578 18.5553 11.0928 18.3548L17.4871 14.6589C17.5509 14.6222 17.6033 14.5686 17.6386 14.504C17.6738 14.4393 17.6905 14.3662 17.6868 14.2927V5.71691C17.6905 5.6434 17.6738 5.57029 17.6386 5.50567C17.6033 5.44104 17.5509 5.38742 17.4871 5.3507L10.0437 1.05464C9.91037 0.971385 9.76073 0.988262 9.62741 1.07152L2.21717 5.35127C2.14887 5.38401 2.09183 5.43629 2.05327 5.50148C2.01471 5.56668 1.99638 5.64185 2.00059 5.71748V14.3079ZM7.24566 13.4208V8.41425L7.24454 8.40806C7.26141 8.42494 7.27829 8.44181 7.27829 8.45869L11.4917 13.5046C11.5488 13.5679 11.601 13.6337 11.6529 13.6991C11.7376 13.8057 11.8216 13.9114 11.9248 14.0041C12.2282 14.279 12.6155 14.4433 13.024 14.4705C13.3064 14.4874 13.573 14.4542 13.8228 14.3208C14.1558 14.1375 14.3392 13.8483 14.3392 13.4545V6.36663C14.2728 5.88285 13.8397 5.41707 13.1905 5.50033C12.673 5.55039 12.3073 5.96667 12.3073 6.49938V11.5622C12.2884 11.5432 12.2747 11.5238 12.2633 11.5076C12.2551 11.496 12.248 11.486 12.241 11.4789L7.81157 6.16693C7.58374 5.90029 7.31766 5.68427 6.96777 5.58414C6.601 5.4677 6.23479 5.43395 5.86858 5.58414C5.50237 5.73434 5.21942 6.06623 5.21942 6.53314V13.4877C5.21942 13.6711 5.2526 13.8376 5.35274 13.9873C5.54737 14.3034 5.83089 14.453 6.19653 14.4699C6.79563 14.4862 7.24566 13.9867 7.24566 13.4208Z" fill="#009639"/>
</svg>
