<svg width="24" height="24" viewBox="0 0 24 24" fill="none" xmlns="http://www.w3.org/2000/svg">
<g id="clock / alarm">
<path id="icon" fill-rule="evenodd" clip-rule="evenodd" d="M6.20718 2.70712L4.79297 1.29291L1.29297 4.79291L2.70718 6.20712L6.20718 2.70712ZM19.2072 1.29291L22.7072 4.79291L21.293 6.20712L17.793 2.70712L19.2072 1.29291ZM12.0001 22C6.47723 22 2.00008 17.5229 2.00008 12C2.00008 6.47717 6.47723 2.00001 12.0001 2.00001C17.5229 2.00001 22.0001 6.47717 22.0001 12C22.0001 17.5229 17.5229 22 12.0001 22ZM12.0001 20C16.4184 20 20.0001 16.4183 20.0001 12C20.0001 7.58174 16.4184 4.00001 12.0001 4.00001C7.5818 4.00001 4.00008 7.58174 4.00008 12C4.00008 16.4183 7.5818 20 12.0001 20ZM17.0001 11H13.0001V6.00001H11.0001V13H17.0001V11Z" fill="currentColor"/>
</g>
</svg>
