<svg width="14" height="14" viewBox="0 0 14 14" fill="none" xmlns="http://www.w3.org/2000/svg">
<path d="M3.66671 8.33334V7H5.00004V8.33334H3.66671Z" fill="currentColor"/>
<path d="M6.33337 8.33334H7.66671V7H6.33337V8.33334Z" fill="currentColor"/>
<path d="M9.00004 8.33334V7H10.3334V8.33334H9.00004Z" fill="currentColor"/>
<path d="M3.66671 9.66667V11H5.00004V9.66667H3.66671Z" fill="currentColor"/>
<path d="M7.66671 11H6.33337V9.66667H7.66671V11Z" fill="currentColor"/>
<path fill-rule="evenodd" clip-rule="evenodd" d="M11 1C11 0.631813 10.7016 0.333336 10.3334 0.333336C9.96518 0.333336 9.66671 0.631813 9.66671 1H4.33337C4.33337 0.631813 4.0349 0.333336 3.66671 0.333336C3.29852 0.333336 3.00004 0.631813 3.00004 1H1.66671C0.930328 1 0.333374 1.59696 0.333374 2.33334V12.3333C0.333374 13.0697 0.930328 13.6667 1.66671 13.6667H12.3334C13.0698 13.6667 13.6667 13.0697 13.6667 12.3333V2.33334C13.6667 1.59696 13.0698 1 12.3334 1H11ZM4.33337 2.33334C4.33337 2.70153 4.0349 3 3.66671 3C3.29852 3 3.00004 2.70153 3.00004 2.33334H1.66671V4.33334H12.3334V2.33334H11C11 2.70153 10.7016 3 10.3334 3C9.96518 3 9.66671 2.70153 9.66671 2.33334H4.33337ZM12.3334 5.66667H1.66671V12.3333H12.3334V5.66667Z" fill="currentColor"/>
</svg>
