<svg width="16" height="16" viewBox="0 0 16 16" fill="none" xmlns="http://www.w3.org/2000/svg">
<path fill-rule="evenodd" clip-rule="evenodd" d="M7.33334 12C7.69652 12.0606 8.04 11.8152 8.10053 11.452L9.21467 4.76721C9.2752 4.40403 9.02985 4.06055 8.66667 4.00002C8.30349 3.93949 7.96001 4.18484 7.89948 4.54802L6.78534 11.2328C6.72481 11.596 6.97016 11.9395 7.33334 12ZM10.6666 6.27615C10.4063 6.0158 10.4063 5.59369 10.6666 5.33334C10.927 5.07299 11.3491 5.07299 11.6094 5.33334L13.9225 7.64645C14.1178 7.84172 14.1178 8.1583 13.9225 8.35356L11.6094 10.6667C11.3491 10.927 10.927 10.927 10.6666 10.6667C10.4063 10.4063 10.4063 9.98422 10.6666 9.72387L12.3905 8.00001L10.6666 6.27615ZM5.33334 9.72387C5.59369 9.98422 5.59369 10.4063 5.33334 10.6667C5.07299 10.927 4.65088 10.927 4.39053 10.6667L2.07742 8.35356C1.88215 8.1583 1.88215 7.84172 2.07742 7.64646L4.39053 5.33334C4.65088 5.07299 5.07299 5.07299 5.33334 5.33334C5.59369 5.59369 5.59369 6.0158 5.33334 6.27615L3.60948 8.00001L5.33334 9.72387Z" fill="currentColor"/>
</svg>
