<svg width="20" height="20" viewBox="0 0 20 20" fill="none" xmlns="http://www.w3.org/2000/svg">
<path d="M12.7771 7.2559L8.95563 11.0774L7.63414 9.7559C7.3087 9.43046 6.78107 9.43046 6.45563 9.7559C6.13019 10.0813 6.13019 10.609 6.45563 10.9344L8.36637 12.8452C8.69181 13.1706 9.21945 13.1706 9.54488 12.8452L13.9556 8.43441C14.2811 8.10898 14.2811 7.58134 13.9556 7.2559C13.6302 6.93046 13.1026 6.93047 12.7771 7.2559Z" fill="currentColor"/>
<path fill-rule="evenodd" clip-rule="evenodd" d="M9.99967 19.1666C4.93706 19.1666 0.833008 15.0626 0.833008 9.99998C0.833008 4.93737 4.93706 0.833313 9.99967 0.833313C15.0623 0.833313 19.1663 4.93737 19.1663 9.99998C19.1663 15.0626 15.0623 19.1666 9.99967 19.1666ZM9.99967 17.5C14.1418 17.5 17.4997 14.1421 17.4997 9.99998C17.4997 5.85784 14.1418 2.49998 9.99967 2.49998C5.85754 2.49998 2.49967 5.85784 2.49967 9.99998C2.49967 14.1421 5.85754 17.5 9.99967 17.5Z" fill="currentColor"/>
</svg>
