<svg width="20" height="20" viewBox="0 0 20 20" fill="none" xmlns="http://www.w3.org/2000/svg">
  <path fill-rule="evenodd" clip-rule="evenodd" d="M9.16667 15C9.62064 15.0757 10.05 14.769 10.1257 14.315L11.5183 5.95899C11.594 5.50501 11.2873 5.07566 10.8333 4.99999C10.3794 4.92433 9.95 5.23101 9.87434 5.68499L8.48167 14.041C8.40601 14.495 8.71269 14.9243 9.16667 15ZM6.66667 12.1548C6.99211 12.4802 6.99211 13.0079 6.66667 13.3333C6.34123 13.6588 5.81359 13.6588 5.48816 13.3333L2.50838 10.3535C2.31312 10.1583 2.31312 9.84169 2.50838 9.64643L5.48816 6.66665C5.81359 6.34121 6.34123 6.34121 6.66667 6.66665C6.99211 6.99208 6.99211 7.51972 6.66667 7.84516L4.51185 9.99998L6.66667 12.1548ZM13.3333 7.84516C13.0078 7.51972 13.0078 6.99208 13.3333 6.66665C13.6587 6.34121 14.1863 6.34121 14.5118 6.66665L17.4916 9.64643C17.6868 9.84169 17.6868 10.1583 17.4916 10.3535L14.5118 13.3333C14.1863 13.6588 13.6587 13.6588 13.3333 13.3333C13.0078 13.0079 13.0078 12.4802 13.3333 12.1548L15.4881 9.99998L13.3333 7.84516Z" fill="currentColor"/>
</svg>
