<svg width="24" height="24" viewBox="0 0 24 24" fill="none" xmlns="http://www.w3.org/2000/svg">
<g id="copy-to-clipboard">
<path id="icon" fill-rule="evenodd" clip-rule="evenodd" d="M10.5 1.5H19.5C21.2284 1.5 22.5 2.77157 22.5 4.5V13.5C22.5 15.2284 21.2284 16.5 19.5 16.5H16.5V19.5C16.5 21.2284 15.2284 22.5 13.5 22.5H4.5C2.77157 22.5 1.5 21.2284 1.5 19.5V10.5C1.5 8.77157 2.77157 7.5 4.5 7.5H7.5V4.5C7.5 2.77157 8.77157 1.5 10.5 1.5ZM7.5 10.5H4.5V19.5H13.5V16.5H10.5C8.77157 16.5 7.5 15.2284 7.5 13.5V10.5ZM10.5 4.5V13.5H19.5V4.5H10.5Z" fill="currentColor"/>
</g>
</svg>
