<svg width="24" height="24" viewBox="0 0 24 24" fill="none" xmlns="http://www.w3.org/2000/svg">
<path fill-rule="evenodd" clip-rule="evenodd" d="M15.5858 9L13 11.5858V4C13 3.44772 12.5523 3 12 3C11.4477 3 11 3.44771 11 4V11.5858L8.41421 9C8.02369 8.60948 7.39052 8.60948 7 9C6.60948 9.39052 6.60948 10.0237 7 10.4142L11.2929 14.7071C11.6834 15.0976 12.3166 15.0976 12.7071 14.7071L17 10.4142C17.3905 10.0237 17.3905 9.39052 17 9C16.6095 8.60948 15.9763 8.60948 15.5858 9ZM22 16C22 15.4477 21.5523 15 21 15C20.4477 15 20 15.4477 20 16V19H4V16C4 15.4477 3.55228 15 3 15C2.44772 15 2 15.4477 2 16V19C2 20.1046 2.89543 21 4 21H20C21.1046 21 22 20.1046 22 19V16Z" fill="#272C2E"/>
</svg>
