<svg width="15" height="17" viewBox="0 0 15 17" fill="none" xmlns="http://www.w3.org/2000/svg">
<path d="M13.2692 0H1.73077C1.27174 0 0.831513 0.185282 0.50693 0.515088C0.182348 0.844893 0 1.29221 0 1.75862V3.51724C9.82724e-05 3.96497 0.168257 4.3958 0.470192 4.7219L4.61538 9.19759V15.2414C4.61538 15.568 4.70489 15.8881 4.87387 16.1659C5.04286 16.4438 5.28464 16.6683 5.57213 16.8143C5.85962 16.9604 6.18146 17.0222 6.50159 16.9929C6.82171 16.9636 7.12748 16.8442 7.38461 16.6483L9.69231 14.8897C9.90726 14.7258 10.0817 14.5134 10.2019 14.2692C10.3221 14.025 10.3846 13.7558 10.3846 13.4828V9.19759L14.5298 4.7219C14.8317 4.3958 14.9999 3.96497 15 3.51724V1.75862C15 1.29221 14.8177 0.844893 14.4931 0.515088C14.1685 0.185282 13.7283 0 13.2692 0ZM13.2692 3.51724L8.65385 8.5V13.4828L6.34615 15.2414V8.5L1.73077 3.51724V1.75862H13.2692V3.51724Z" fill="currentColor"/>
</svg>
