<svg width="16" height="16" viewBox="0 0 16 16" fill="none" xmlns="http://www.w3.org/2000/svg">
<path fill-rule="evenodd" clip-rule="evenodd" d="M11 2V5H14C14.5523 5 15 5.44772 15 6C15 6.55228 14.5523 7 14 7H10C9.44772 7 9 6.55228 9 6V2C9 1.44772 9.44771 1 10 1C10.5523 1 11 1.44772 11 2ZM5.77219 3.52375C6.26662 3.27767 6.59003 2.73792 6.44709 2.20445C6.30414 1.67099 5.75174 1.34791 5.24406 1.56535C4.42774 1.91498 3.6825 2.41801 3.05025 3.05026C2.18139 3.91912 1.55655 5.00138 1.23852 6.18827C0.920494 7.37516 0.920494 8.62485 1.23852 9.81174C1.55654 10.9986 2.18139 12.0809 3.05025 12.9498C3.91911 13.8186 5.00138 14.4435 6.18827 14.7615C7.37515 15.0795 8.62485 15.0795 9.81173 14.7615C10.9986 14.4435 12.0809 13.8186 12.9497 12.9498C13.582 12.3175 14.085 11.5723 14.4347 10.7559C14.6521 10.2483 14.329 9.69586 13.7956 9.55292C13.2621 9.40998 12.7223 9.73338 12.4763 10.2278C12.2364 10.7098 11.9193 11.1518 11.5355 11.5355C10.9149 12.1562 10.1419 12.6025 9.2941 12.8296C8.44632 13.0568 7.55368 13.0568 6.7059 12.8296C5.85813 12.6025 5.08508 12.1562 4.46447 11.5355C3.84385 10.9149 3.39753 10.1419 3.17037 9.2941C2.94321 8.44632 2.94321 7.55369 3.17037 6.70591C3.39753 5.85813 3.84385 5.08509 4.46447 4.46447C4.84822 4.08072 5.29025 3.76361 5.77219 3.52375Z" fill="currentColor"/>
</svg>
