<svg width="24" height="24" viewBox="0 0 24 24" fill="none" xmlns="http://www.w3.org/2000/svg">
  <path d="M15.2206 4.93696H17.6934L12.2837 10.3467C11.9054 10.7249 11.9054 11.3381 12.2837 11.7163C12.6619 12.0946 13.2751 12.0946 13.6533 11.7163L19.063 6.3066V8.77937C19.063 9.31425 19.4966 9.74786 20.0315 9.74786C20.5664 9.74786 21 9.31425 21 8.77937V3.96848C21 3.4336 20.5664 3 20.0315 3H15.2206C14.6857 3 14.2521 3.4336 14.2521 3.96848C14.2521 4.50336 14.6857 4.93696 15.2206 4.93696Z" fill="currentColor"/>
  <path d="M8.14166 7.72461C9.21328 7.14398 10.4363 6.90347 11.648 7.0351C12.1971 7.09475 12.6905 6.698 12.7502 6.14895C12.8098 5.59989 12.4131 5.10645 11.864 5.0468C10.2484 4.87129 8.6177 5.19196 7.18887 5.96614C5.76004 6.74032 4.60087 7.93128 3.86563 9.38053C3.13038 10.8298 2.85394 12.4686 3.07308 14.0788C3.29222 15.6891 3.99657 17.1944 5.09236 18.3944C6.18816 19.5945 7.62345 20.4324 9.2072 20.7965C10.791 21.1607 12.4481 21.0339 13.958 20.4331C15.4679 19.8322 16.759 18.7857 17.6595 17.433C18.56 16.0802 19.0271 14.4852 18.9988 12.8604C18.9891 12.3082 18.5337 11.8684 17.9815 11.878C17.4293 11.8876 16.9895 12.3431 16.9991 12.8953C17.0204 14.1139 16.67 15.3101 15.9946 16.3247C15.3193 17.3393 14.3509 18.1242 13.2185 18.5748C12.086 19.0255 10.8432 19.1205 9.6554 18.8474C8.46759 18.5743 7.39112 17.9459 6.56927 17.0458C5.74743 16.1458 5.21917 15.0168 5.05481 13.8091C4.89045 12.6014 5.09779 11.3723 5.64922 10.2854C6.20066 9.19846 7.07003 8.30524 8.14166 7.72461Z" fill="currentColor"/>
</svg>
