<svg width="20" height="20" viewBox="0 0 20 20" fill="none" xmlns="http://www.w3.org/2000/svg">
  <path fill-rule="evenodd" clip-rule="evenodd" d="M11.1129 9.04326L11.1129 9.04327L11.1129 9.04328C10.9046 9.09858 10.6934 9.15468 10.4489 9.21777L10.4342 9.22171C10.3147 9.2538 10.3023 9.25714 10.1911 9.12888C10.0578 8.97777 9.96 8.87999 9.77333 8.7911C9.21333 8.51555 8.67111 8.59555 8.16444 8.92444C7.56 9.31555 7.24889 9.89333 7.25778 10.6133C7.26666 11.3244 7.75555 11.9111 8.45778 12.0089C9.06222 12.0889 9.56889 11.8755 9.96889 11.4222C10.0282 11.3497 10.0827 11.2723 10.1431 11.1863C10.1642 11.1564 10.1859 11.1255 10.2089 11.0933H8.49333C8.30667 11.0933 8.26222 10.9778 8.32444 10.8267C8.44 10.5511 8.65333 10.0889 8.77778 9.85777C8.80444 9.80444 8.86667 9.71555 9 9.71555H11.8606C11.989 9.30852 12.1975 8.92391 12.4755 8.55999C13.1244 7.70666 13.9067 7.26222 14.9644 7.07555C15.8711 6.91555 16.7244 7.00444 17.4978 7.52888C18.2 8.00888 18.6355 8.65777 18.7511 9.51111C18.9022 10.7111 18.5555 11.6889 17.7289 12.5244C17.1422 13.12 16.4222 13.4933 15.5955 13.6622C15.4379 13.6914 15.2802 13.7053 15.125 13.7189C15.044 13.726 14.9637 13.7331 14.8844 13.7422C14.0755 13.7244 13.3378 13.4933 12.7155 12.96C12.2779 12.5817 11.9765 12.1168 11.8267 11.5755C11.7227 11.7855 11.5984 11.9865 11.4533 12.1778C10.8133 13.0222 9.97778 13.5467 8.92 13.6889C8.04889 13.8044 7.24 13.6355 6.52889 13.1022C5.87111 12.6044 5.49777 11.9467 5.4 11.1289C5.28444 10.16 5.56889 9.28888 6.15555 8.52444C6.78666 7.69777 7.62222 7.17333 8.64444 6.98666C9.48 6.83555 10.28 6.93333 11 7.42222C11.4711 7.73333 11.8089 8.15999 12.0311 8.67555C12.0844 8.75555 12.0489 8.79999 11.9422 8.82666C11.6307 8.90578 11.3741 8.9739 11.1129 9.04326ZM1.90666 8.98666C1.8711 8.98666 1.86221 8.96889 1.87999 8.94222L2.06666 8.70222C2.08443 8.67555 2.12888 8.65778 2.16443 8.65778H5.33776C5.37332 8.65778 5.38221 8.68444 5.36443 8.71111L5.21332 8.94222C5.19554 8.96889 5.1511 8.99555 5.12443 8.99555L1.90666 8.98666ZM0.564433 9.80445C0.528877 9.80445 0.519988 9.78667 0.537766 9.76L0.724433 9.52C0.742211 9.49333 0.786655 9.47556 0.822211 9.47556H4.87554C4.9111 9.47556 4.92888 9.50222 4.91999 9.52889L4.84888 9.74222C4.83999 9.77778 4.80443 9.79556 4.76888 9.79556L0.564433 9.80445ZM2.68887 10.5689C2.6711 10.5956 2.67999 10.6222 2.71554 10.6222L4.65332 10.6311C4.67999 10.6311 4.71554 10.6044 4.71554 10.5689L4.73332 10.3556C4.73332 10.32 4.71554 10.2933 4.67999 10.2933H2.90221C2.86665 10.2933 2.8311 10.32 2.81332 10.3467L2.68887 10.5689ZM16.9938 10.056C16.9956 10.0859 16.9974 10.1174 17 10.1511C16.9555 10.9155 16.5733 11.4844 15.8711 11.8489C15.4 12.0889 14.9111 12.1156 14.4222 11.9022C13.7822 11.6178 13.4444 10.9156 13.6044 10.2222C13.8 9.38666 14.3333 8.86222 15.16 8.67555C16.0044 8.47999 16.8133 8.97777 16.9733 9.85777C16.9859 9.92071 16.9896 9.98365 16.9938 10.056Z" fill="currentColor"/>
</svg>
