<svg width="24" height="24" viewBox="0 0 24 24" fill="none" xmlns="http://www.w3.org/2000/svg">
  <path d="M11.7695 1.20001C11.4381 1.20005 11.1695 1.49853 11.1695 1.86671C11.1695 1.87236 11.1706 1.87776 11.1708 1.88338C11.1703 1.93341 11.1679 1.99368 11.1695 2.03723C11.1774 2.24959 11.2237 2.41212 11.2515 2.60777C11.302 3.02653 11.3443 3.37365 11.3182 3.69629C11.2928 3.81795 11.2032 3.92922 11.1233 4.00656L11.1092 4.26042C10.7491 4.29025 10.3866 4.34488 10.0246 4.42709C8.46656 4.78084 7.12514 5.58338 6.10387 6.66694C6.0376 6.62173 5.92166 6.53856 5.88719 6.51309C5.78006 6.52756 5.67178 6.56061 5.53076 6.47847C5.26224 6.29772 5.01767 6.04822 4.72175 5.74767C4.58615 5.6039 4.48796 5.467 4.32686 5.32842C4.29027 5.29695 4.23444 5.25438 4.19352 5.222C4.06757 5.12158 3.91901 5.06921 3.77555 5.0643C3.59109 5.05799 3.41352 5.1301 3.29732 5.27585C3.09074 5.53496 3.15688 5.93098 3.44476 6.16051C3.44768 6.16283 3.45079 6.16464 3.45374 6.16692C3.4933 6.19899 3.54174 6.24008 3.5781 6.26692C3.74906 6.39315 3.90522 6.45776 4.07556 6.55796C4.43443 6.77959 4.73194 6.96335 4.96791 7.18492C5.06006 7.28314 5.07617 7.45623 5.08843 7.53109L5.28075 7.70289C4.25122 9.25224 3.77475 11.166 4.05633 13.116L3.80504 13.1891C3.73881 13.2746 3.64522 13.4092 3.54733 13.4493C3.23859 13.5466 2.89113 13.5823 2.47164 13.6263C2.27469 13.6426 2.10476 13.6329 1.89597 13.6724C1.85002 13.6811 1.78599 13.6978 1.73571 13.7096C1.73396 13.71 1.73233 13.7105 1.73058 13.7109C1.72784 13.7115 1.72424 13.7128 1.7216 13.7134C1.36794 13.7989 1.14074 14.124 1.21389 14.4442C1.28705 14.7646 1.6325 14.9594 1.98828 14.8827C1.99085 14.8821 1.99458 14.882 1.99726 14.8814C2.00127 14.8805 2.00481 14.8786 2.0088 14.8776C2.05839 14.8667 2.12055 14.8546 2.16393 14.843C2.36921 14.788 2.51787 14.7073 2.70242 14.6366C3.09944 14.4942 3.42827 14.3752 3.74862 14.3289C3.88242 14.3184 4.02339 14.4114 4.09351 14.4507L4.35506 14.4058C4.95694 16.2718 6.2183 17.7801 7.81548 18.7265L7.7065 18.9881C7.74578 19.0896 7.78911 19.227 7.75985 19.3273C7.64339 19.6293 7.4439 19.9481 7.21674 20.3035C7.10675 20.4677 6.99418 20.5951 6.89493 20.783C6.87118 20.828 6.84093 20.897 6.818 20.9446C6.66378 21.2745 6.77691 21.6546 7.07314 21.7972C7.37124 21.9407 7.74125 21.7893 7.90139 21.4587C7.90163 21.4582 7.90244 21.4579 7.90266 21.4574C7.90283 21.457 7.9025 21.4565 7.90266 21.4561C7.92547 21.4092 7.95779 21.3476 7.97703 21.3036C8.06204 21.1088 8.09033 20.9419 8.15011 20.7535C8.30887 20.3547 8.3961 19.9363 8.61465 19.6756C8.6745 19.6042 8.77207 19.5767 8.87322 19.5496L9.00913 19.3035C10.4015 19.8379 11.9601 19.9813 13.517 19.6278C13.8722 19.5472 14.2151 19.4428 14.5466 19.3176C14.5848 19.3853 14.6558 19.5155 14.6748 19.5483C14.7776 19.5818 14.8898 19.5991 14.9812 19.7342C15.1447 20.0136 15.2565 20.3441 15.3928 20.7433C15.4526 20.9316 15.4821 21.0985 15.5671 21.2933C15.5865 21.3377 15.6187 21.4002 15.6415 21.4471C15.8013 21.7789 16.1725 21.9307 16.471 21.7869C16.7672 21.6442 16.8805 21.2642 16.7262 20.9343C16.7032 20.8868 16.6717 20.8177 16.648 20.7728C16.5487 20.5849 16.4361 20.4587 16.3261 20.2945C16.099 19.9392 15.9105 19.6439 15.7941 19.3419C15.7454 19.1862 15.8023 19.0893 15.8402 18.9881C15.8175 18.962 15.7689 18.8149 15.7402 18.7457C17.4001 17.7657 18.6244 16.2012 19.1994 14.3942C19.277 14.4064 19.4119 14.4303 19.4558 14.4391C19.546 14.3796 19.629 14.3019 19.7917 14.3148C20.1121 14.3611 20.4409 14.4801 20.8379 14.6225C21.0224 14.6932 21.1711 14.7752 21.3764 14.8302C21.4198 14.8418 21.4819 14.8526 21.5315 14.8635C21.5355 14.8645 21.539 14.8664 21.5431 14.8673C21.5457 14.8679 21.5495 14.868 21.552 14.8686C21.9078 14.9452 22.2534 14.7505 22.3264 14.4301C22.3995 14.1098 22.1724 13.7847 21.8187 13.6993C21.7673 13.6876 21.6943 13.6678 21.6443 13.6583C21.4356 13.6188 21.2656 13.6285 21.0687 13.6122C20.6492 13.5682 20.3017 13.5324 19.993 13.4352C19.8671 13.3864 19.7775 13.2366 19.734 13.175L19.4917 13.1044C19.6173 12.1955 19.5834 11.2495 19.366 10.303C19.1466 9.3477 18.7588 8.47397 18.2416 7.70417C18.3038 7.64767 18.4212 7.54372 18.4544 7.51314C18.4642 7.40548 18.4558 7.29259 18.5673 7.17338C18.8032 6.9518 19.1008 6.76807 19.4596 6.54643C19.63 6.44621 19.7874 6.38162 19.9584 6.25539C19.997 6.22684 20.0498 6.18164 20.0904 6.14897C20.3782 5.91937 20.4445 5.52336 20.2379 5.26431C20.0312 5.00526 19.6308 4.98086 19.343 5.21046C19.302 5.24291 19.2464 5.28524 19.2096 5.31688C19.0485 5.45547 18.949 5.59235 18.8134 5.73613C18.5175 6.0367 18.2729 6.28745 18.0044 6.46822C17.8881 6.53596 17.7176 6.51252 17.6403 6.50796L17.4121 6.67079C16.1107 5.30619 14.3389 4.43374 12.4311 4.26426C12.4258 4.18431 12.4188 4.03979 12.417 3.9963C12.3389 3.92156 12.2445 3.85776 12.2208 3.69629C12.1947 3.37365 12.2383 3.02653 12.2888 2.60777C12.3166 2.41212 12.3629 2.24959 12.3708 2.03723C12.3726 1.98896 12.3697 1.91891 12.3696 1.86671C12.3695 1.49853 12.1009 1.19998 11.7695 1.20001H11.7695ZM11.0182 5.85408L10.84 9.00167L10.8272 9.00808C10.8152 9.28967 10.5835 9.51452 10.2989 9.51452C10.1824 9.51452 10.0748 9.47709 9.98738 9.41323L9.98226 9.41579L7.40136 7.58622C8.19458 6.80624 9.20916 6.22983 10.3784 5.96435C10.592 5.91585 10.8055 5.87987 11.0182 5.85408ZM12.5221 5.85408C13.8873 6.02198 15.1497 6.64012 16.1172 7.5875L13.5529 9.40554L13.544 9.40169C13.3164 9.56792 12.9957 9.52668 12.8183 9.30425C12.7456 9.21313 12.7075 9.10599 12.7029 8.99783L12.7003 8.99655L12.5221 5.85408ZM6.46542 8.76192L8.82194 10.8697L8.81938 10.8825C9.03208 11.0674 9.06345 11.3883 8.88605 11.6108C8.81338 11.7019 8.71611 11.763 8.61168 11.7915L8.60911 11.8018L5.58846 12.6736C5.43471 11.2678 5.76605 9.90126 6.46542 8.76192ZM17.057 8.7632C17.4071 9.33071 17.6722 9.96457 17.8301 10.6517C17.986 11.3307 18.0252 12.0084 17.9608 12.6634L14.9248 11.789L14.9222 11.7762C14.6504 11.7019 14.4833 11.4253 14.5466 11.1479C14.5725 11.0343 14.6328 10.9382 14.7145 10.8671L14.7133 10.8607L17.057 8.7632H17.057ZM11.2862 11.0325H12.2516L12.8516 11.7826L12.6362 12.7185L11.7695 13.1352L10.9002 12.7172L10.6849 11.7813L11.2862 11.0325ZM14.3812 13.5993C14.4222 13.5973 14.4631 13.601 14.503 13.6083L14.5081 13.6019L17.6326 14.1301C17.1753 15.4148 16.3003 16.5278 15.1312 17.2726L13.9183 14.343L13.9222 14.3378C13.8108 14.0789 13.9223 13.7754 14.1786 13.6519C14.2442 13.6203 14.3128 13.6028 14.3812 13.5993H14.3812ZM9.1335 13.6121C9.37194 13.6155 9.58581 13.781 9.64121 14.0237C9.66715 14.1373 9.65453 14.2499 9.61173 14.3494L9.6207 14.3609L8.42064 17.261C7.29865 16.5411 6.40499 15.463 5.92693 14.1404L9.02452 13.6147L9.02965 13.6211C9.06429 13.6147 9.09943 13.6117 9.1335 13.6122V13.6121ZM11.7503 14.8827C11.8333 14.8797 11.9176 14.8967 11.9977 14.9353C12.1027 14.9859 12.1839 15.0655 12.2349 15.1609H12.2465L13.7735 17.9201C13.5753 17.9865 13.3716 18.0433 13.1632 18.0906C11.9953 18.3557 10.8312 18.2754 9.77712 17.9162L11.3003 15.1622H11.3028C11.3942 14.9914 11.5676 14.8894 11.7503 14.8827Z" fill="currentColor"/>
</svg>
