<svg width="174" height="32" viewBox="0 0 174 32" fill="none" xmlns="http://www.w3.org/2000/svg">
<g clip-path="url(#clip0)">
<path d="M1.71337 6.57041C1.49189 6.56685 1.27188 6.60695 1.0659 6.68843C0.859927 6.76992 0.672019 6.89118 0.512912 7.04529C0.353805 7.1994 0.226616 7.38335 0.13861 7.58662C0.0506033 7.7899 0.00350341 8.00852 0 8.23L0 8.33756C0.00350341 8.55904 0.0506033 8.77766 0.13861 8.98094C0.226616 9.18421 0.353805 9.36816 0.512912 9.52227C0.672019 9.67638 0.859927 9.79764 1.0659 9.87912C1.27188 9.9606 1.49189 10.0007 1.71337 9.99715C1.93485 10.0007 2.15486 9.9606 2.36084 9.87912C2.56682 9.79764 2.75472 9.67638 2.91383 9.52227C3.07294 9.36816 3.20013 9.18421 3.28813 8.98094C3.37614 8.77766 3.42324 8.55904 3.42674 8.33756V8.23C3.42324 8.00852 3.37614 7.7899 3.28813 7.58662C3.20013 7.38335 3.07294 7.1994 2.91383 7.04529C2.75472 6.89118 2.56682 6.76992 2.36084 6.68843C2.15486 6.60695 1.93485 6.56685 1.71337 6.57041V6.57041Z" fill="#8273F1"/>
<path d="M24.5654 6.57037L20.1686 2.1813L20.1129 2.13136L20.0553 2.0891C19.9186 2.00018 19.7555 1.96082 19.5933 1.9776C19.4311 1.99438 19.2796 2.06628 19.164 2.1813L18.4399 2.92081C18.342 3.01804 18.2851 3.14906 18.2808 3.28694C18.2765 3.42483 18.3252 3.55913 18.4168 3.66225C19.5404 4.95278 20.1559 6.6081 20.1485 8.31919C20.1411 10.0303 19.5112 11.6802 18.3765 12.9609C18.3164 13.0453 18.2823 13.1455 18.2785 13.2491V13.2932C18.2785 13.2932 18.2785 13.3124 18.2785 13.3201C18.2785 13.3278 18.2785 13.3317 18.2785 13.3374C18.2785 13.3432 18.2785 13.3547 18.2785 13.3624C18.2785 13.3701 18.2785 13.3739 18.2785 13.3797V13.4046V13.4239C18.2777 13.4315 18.2777 13.4392 18.2785 13.4469C18.2777 13.4533 18.2777 13.4597 18.2785 13.4661C18.2777 13.4731 18.2777 13.4802 18.2785 13.4872C18.2828 13.4937 18.2861 13.5008 18.2881 13.5084C18.2887 13.5141 18.2887 13.5199 18.2881 13.5257L18.3016 13.5487V13.5641C18.3069 13.5732 18.3133 13.5816 18.3208 13.589V13.6025L18.3515 13.6371L19.0968 14.3823C19.1628 14.4485 19.2412 14.5011 19.3276 14.5369C19.414 14.5728 19.5065 14.5912 19.6 14.5912C19.6935 14.5912 19.7861 14.5728 19.8725 14.5369C19.9588 14.5011 20.0373 14.4485 20.1033 14.3823L24.4962 9.98943C24.7257 9.76972 24.9095 9.50689 25.0372 9.216C25.1649 8.92511 25.234 8.61188 25.2404 8.29425C25.2468 7.97663 25.1905 7.66086 25.0747 7.36504C24.9588 7.06922 24.7858 6.79917 24.5654 6.57037Z" fill="#8273F1"/>
<path d="M13.707 1H9.84997C9.14027 1 8.56494 1.57533 8.56494 2.28503C8.56494 2.99473 9.14027 3.57006 9.84997 3.57006H13.707C14.4167 3.57006 14.992 2.99473 14.992 2.28503C14.992 1.57533 14.4167 1 13.707 1Z" fill="#8273F1"/>
<path d="M13.707 12.9955H9.84997C9.14027 12.9955 8.56494 13.5709 8.56494 14.2806C8.56494 14.9903 9.14027 15.5656 9.84997 15.5656H13.707C14.4167 15.5656 14.992 14.9903 14.992 14.2806C14.992 13.5709 14.4167 12.9955 13.707 12.9955Z" fill="#8273F1"/>
<path d="M16.277 6.99872H7.28375C6.57404 6.99872 5.99872 7.57405 5.99872 8.28375C5.99872 8.99345 6.57404 9.56878 7.28375 9.56878H16.277C16.9867 9.56878 17.5621 8.99345 17.5621 8.28375C17.5621 7.57405 16.9867 6.99872 16.277 6.99872Z" fill="#8273F1"/>
<path d="M41.8239 9.42669V15.4408C41.8234 15.4742 41.8099 15.5062 41.7863 15.5299C41.7626 15.5535 41.7306 15.5671 41.6972 15.5675H39.2846C39.251 15.5675 39.2187 15.5542 39.195 15.5304C39.1712 15.5066 39.1578 15.4744 39.1578 15.4408V9.99333C39.1578 8.57769 38.3492 7.6288 37.1179 7.6288C35.6024 7.6288 34.6209 8.63915 34.6209 11.1036V15.4408C34.6204 15.4742 34.6069 15.5062 34.5832 15.5299C34.5595 15.5535 34.5276 15.5671 34.4941 15.5675H32.0777C32.0442 15.5671 32.0123 15.5535 31.9886 15.5299C31.9649 15.5062 31.9514 15.4742 31.9509 15.4408V1.1518C31.9509 1.11818 31.9643 1.08593 31.9881 1.06216C32.0118 1.03838 32.0441 1.02502 32.0777 1.02502H34.4902C34.5239 1.02502 34.5561 1.03838 34.5799 1.06216C34.6037 1.08593 34.617 1.11818 34.617 1.1518V6.10751C34.6174 6.13159 34.6246 6.15507 34.6379 6.17518C34.6511 6.1953 34.6698 6.21122 34.6918 6.2211C34.7138 6.23097 34.7381 6.23439 34.7619 6.23094C34.7858 6.22749 34.8081 6.21733 34.8264 6.20163C35.5947 5.53895 36.5705 5.18552 37.7883 5.18552C40.2085 5.18552 41.8239 6.92194 41.8239 9.42669Z" fill="#E7F5F4"/>
<path d="M47.4442 19H44.7551C44.7342 18.9998 44.7137 18.9944 44.6954 18.9844C44.6771 18.9743 44.6616 18.9599 44.6502 18.9425C44.6388 18.925 44.6319 18.9049 44.6301 18.8842C44.6283 18.8634 44.6316 18.8424 44.6398 18.8233L46.1573 15.2928C46.164 15.277 46.1674 15.26 46.1674 15.2429C46.1674 15.2257 46.164 15.2087 46.1573 15.1929L42.0659 5.64452C42.0577 5.62518 42.0543 5.60409 42.0562 5.58314C42.0581 5.5622 42.0652 5.54205 42.0768 5.52452C42.0884 5.50699 42.1042 5.49262 42.1228 5.48272C42.1414 5.47282 42.1621 5.46769 42.1831 5.4678H44.8723C44.8975 5.46757 44.9221 5.47497 44.9431 5.48903C44.964 5.50308 44.9801 5.52314 44.9894 5.54656L47.5096 11.6336C47.5187 11.657 47.5347 11.677 47.5554 11.6912C47.5762 11.7053 47.6007 11.7128 47.6258 11.7128C47.6509 11.7128 47.6754 11.7053 47.6961 11.6912C47.7168 11.677 47.7328 11.657 47.742 11.6336L50.3773 5.54271C50.3876 5.5201 50.404 5.50086 50.4248 5.48726C50.4455 5.47365 50.4697 5.46624 50.4945 5.46588H53.1837C53.2045 5.46609 53.225 5.47145 53.2433 5.48148C53.2616 5.49152 53.2772 5.50591 53.2886 5.5234C53.3 5.54088 53.3069 5.56091 53.3087 5.5817C53.3105 5.6025 53.3071 5.62341 53.2989 5.6426L47.5518 18.9231C47.5431 18.9449 47.5283 18.9636 47.5092 18.9772C47.4902 18.9909 47.4676 18.9987 47.4442 19V19Z" fill="#E7F5F4"/>
<path d="M65.1311 10.5368C65.1311 13.7081 62.7474 15.869 60.1831 15.869C59.0648 15.9003 57.966 15.5717 57.0483 14.9317C57.0295 14.9203 57.0079 14.914 56.9859 14.9135C56.9639 14.913 56.9421 14.9182 56.9227 14.9287C56.9033 14.9392 56.887 14.9545 56.8753 14.9732C56.8637 14.9919 56.8571 15.0134 56.8563 15.0354V18.877C56.8563 18.8937 56.853 18.9102 56.8466 18.9255C56.8402 18.9409 56.8309 18.9549 56.8191 18.9667C56.8074 18.9784 56.7934 18.9878 56.778 18.9942C56.7626 19.0005 56.7461 19.0038 56.7295 19.0038H54.3112C54.2945 19.0041 54.2779 19.001 54.2624 18.9947C54.2469 18.9884 54.2328 18.9791 54.221 18.9672C54.2091 18.9554 54.1998 18.9413 54.1935 18.9258C54.1872 18.9103 54.1841 18.8937 54.1844 18.877V5.60992C54.1841 5.59321 54.1872 5.5766 54.1935 5.56111C54.1998 5.54561 54.2091 5.53153 54.221 5.5197C54.2328 5.50788 54.2469 5.49855 54.2624 5.49227C54.2779 5.48599 54.2945 5.48289 54.3112 5.48315H56.7237C56.7409 5.48237 56.758 5.48507 56.774 5.4911C56.7901 5.49712 56.8047 5.50633 56.8171 5.51818C56.8295 5.53003 56.8394 5.54427 56.8461 5.56004C56.8528 5.57581 56.8563 5.59278 56.8563 5.60992V6.03058C56.8574 6.05244 56.8642 6.07362 56.876 6.09207C56.8878 6.11052 56.9042 6.1256 56.9235 6.13585C56.9428 6.1461 56.9645 6.15117 56.9864 6.15056C57.0083 6.14996 57.0296 6.14369 57.0483 6.13239C57.9589 5.47855 59.0587 5.1412 60.1793 5.17198C62.7474 5.18542 65.1311 7.36748 65.1311 10.5368ZM62.5457 10.5368C62.5457 8.67939 61.3337 7.50769 59.7183 7.50769C58.2834 7.50769 56.8563 8.68324 56.8563 10.5368C56.8563 12.3904 58.2892 13.5468 59.724 13.5468C61.3337 13.5468 62.5457 12.3962 62.5457 10.5368Z" fill="#E7F5F4"/>
<path d="M76.1336 11.2437H68.7404C68.7214 11.2435 68.7026 11.2477 68.6854 11.2558C68.6682 11.2639 68.653 11.2758 68.641 11.2905C68.629 11.3053 68.6205 11.3225 68.6161 11.341C68.6117 11.3595 68.6115 11.3788 68.6155 11.3974C68.9209 12.7611 69.9217 13.5871 71.1126 13.5871C71.8809 13.5871 72.8413 13.491 73.5712 12.3309C73.5851 12.3088 73.6055 12.2914 73.6295 12.2811C73.6535 12.2708 73.6801 12.2681 73.7057 12.2732L75.8474 12.7266C75.8661 12.7303 75.8837 12.7383 75.8989 12.7498C75.9141 12.7614 75.9265 12.7762 75.9352 12.7931C75.9438 12.8101 75.9486 12.8289 75.949 12.8479C75.9494 12.867 75.9456 12.8859 75.9377 12.9033C75.0253 14.9067 73.2601 15.869 71.1087 15.869C68.2621 15.869 65.9398 13.7081 65.9398 10.5368C65.9398 7.36556 68.2621 5.18542 71.1491 5.18542C73.8382 5.18542 76.1586 7.26567 76.2604 10.3351V11.1169C76.2604 11.1505 76.247 11.1828 76.2232 11.2066C76.1995 11.2303 76.1672 11.2437 76.1336 11.2437ZM68.8345 9.36705H73.3619C73.3819 9.36656 73.4017 9.36138 73.4194 9.35191C73.4371 9.34244 73.4524 9.32895 73.464 9.31251C73.4755 9.29608 73.4831 9.27717 73.4861 9.25728C73.489 9.2374 73.4873 9.2171 73.4809 9.19802C73.3379 8.69534 73.03 8.25537 72.6067 7.9488C72.1834 7.64223 71.6694 7.48687 71.1472 7.5077C70.6157 7.49953 70.095 7.65823 69.6585 7.96145C69.2219 8.26466 68.8914 8.69714 68.7135 9.19802C68.7071 9.21741 68.7054 9.23805 68.7085 9.25822C68.7117 9.2784 68.7196 9.29754 68.7316 9.31405C68.7436 9.33057 68.7594 9.34399 68.7776 9.3532C68.7958 9.36242 68.816 9.36716 68.8364 9.36705H68.8345Z" fill="#E7F5F4"/>
<path d="M84.4546 5.52739L84.3239 7.87271C84.322 7.90516 84.3079 7.93568 84.2843 7.95813C84.2608 7.98058 84.2297 7.99329 84.1972 7.99372H83.7304C81.266 7.99372 80.1366 9.50733 80.1366 12.3156V15.4407C80.1361 15.4742 80.1226 15.5062 80.0989 15.5298C80.0752 15.5535 80.0433 15.567 80.0098 15.5675H77.6011C77.5675 15.5675 77.5352 15.5542 77.5114 15.5304C77.4877 15.5066 77.4743 15.4744 77.4743 15.4407V5.60998C77.4741 5.59326 77.4772 5.57666 77.4834 5.56116C77.4897 5.54567 77.499 5.53159 77.5109 5.51976C77.5227 5.50794 77.5368 5.49861 77.5523 5.49233C77.5678 5.48605 77.5844 5.48295 77.6011 5.48321H80.0136C80.0303 5.48321 80.0468 5.48649 80.0622 5.49286C80.0775 5.49923 80.0915 5.50857 80.1033 5.52034C80.1151 5.53211 80.1244 5.54609 80.1308 5.56147C80.1371 5.57685 80.1404 5.59333 80.1404 5.60998V6.93727C80.14 6.96364 80.148 6.98946 80.1631 7.01103C80.1783 7.03261 80.1999 7.04882 80.2249 7.05735C80.2498 7.06588 80.2768 7.06629 80.302 7.05852C80.3272 7.05075 80.3493 7.0352 80.3651 7.0141C80.7586 6.49023 81.2698 6.06632 81.8574 5.77667C82.445 5.48703 83.0926 5.33977 83.7477 5.34683C83.9501 5.33757 84.1528 5.35436 84.3508 5.39677C84.3808 5.40268 84.4077 5.41907 84.4267 5.443C84.4457 5.46693 84.4556 5.49685 84.4546 5.52739Z" fill="#E7F5F4"/>
<path d="M94.0376 15.022C94.0474 15.0507 94.0466 15.082 94.0354 15.1102C94.0241 15.1384 94.0031 15.1616 93.9761 15.1756C92.9773 15.7019 92.2704 15.871 91.4483 15.871C89.0646 15.871 87.4895 14.6186 87.4895 11.8526V7.79584C87.489 7.76237 87.4755 7.73041 87.4518 7.70675C87.4281 7.68308 87.3962 7.66956 87.3627 7.66907H85.4553C85.4386 7.66933 85.422 7.66622 85.4065 7.65994C85.391 7.65367 85.3769 7.64434 85.3651 7.63251C85.3533 7.62069 85.344 7.60661 85.3377 7.59111C85.3314 7.57561 85.3283 7.55901 85.3286 7.54229V5.60995C85.3283 5.59323 85.3314 5.57663 85.3377 5.56113C85.344 5.54563 85.3533 5.53155 85.3651 5.51973C85.3769 5.5079 85.391 5.49857 85.4065 5.4923C85.422 5.48602 85.4386 5.48291 85.4553 5.48317H87.3627C87.3962 5.48268 87.4281 5.46916 87.4518 5.44549C87.4755 5.42183 87.489 5.38987 87.4895 5.3564V2.56545C87.4892 2.54873 87.4923 2.53213 87.4986 2.51663C87.5049 2.50113 87.5142 2.48705 87.526 2.47523C87.5379 2.4634 87.5519 2.45408 87.5674 2.4478C87.5829 2.44152 87.5995 2.43842 87.6163 2.43867H90.0288C90.0624 2.43867 90.0947 2.45203 90.1185 2.47581C90.1422 2.49958 90.1556 2.53183 90.1556 2.56545V5.36216C90.1556 5.39578 90.1689 5.42803 90.1927 5.45181C90.2165 5.47558 90.2487 5.48894 90.2824 5.48894H93.5689C93.5856 5.48868 93.6022 5.49178 93.6177 5.49806C93.6332 5.50434 93.6473 5.51367 93.6591 5.52549C93.6709 5.53731 93.6803 5.55139 93.6865 5.56689C93.6928 5.58239 93.6959 5.59899 93.6957 5.61571V7.53653C93.6959 7.55325 93.6928 7.56985 93.6865 7.58535C93.6803 7.60085 93.6709 7.61493 93.6591 7.62675C93.6473 7.63857 93.6332 7.6479 93.6177 7.65418C93.6022 7.66046 93.5856 7.66356 93.5689 7.6633H90.2785C90.2449 7.6633 90.2126 7.67666 90.1889 7.70044C90.1651 7.72421 90.1517 7.75646 90.1517 7.79008V11.649C90.1517 12.861 90.7376 13.3777 91.625 13.3777C92.1643 13.3458 92.6913 13.2033 93.1732 12.959C93.1895 12.9512 93.2072 12.947 93.2252 12.9465C93.2432 12.946 93.2611 12.9493 93.2778 12.9562C93.2944 12.9631 93.3095 12.9734 93.3219 12.9864C93.3343 12.9995 93.3439 13.015 93.3499 13.032L94.0376 15.022Z" fill="#E7F5F4"/>
<path d="M102.086 5.52739L101.957 7.87271C101.955 7.90516 101.941 7.93568 101.918 7.95813C101.894 7.98058 101.863 7.99329 101.83 7.99372H101.364C98.9011 7.99372 97.7697 9.50733 97.7697 12.3156V15.4407C97.7692 15.4742 97.7557 15.5062 97.732 15.5298C97.7084 15.5535 97.6764 15.567 97.643 15.5675H95.2304C95.1968 15.5675 95.1645 15.5542 95.1408 15.5304C95.117 15.5066 95.1036 15.4744 95.1036 15.4407V5.60998C95.1034 5.59326 95.1065 5.57666 95.1127 5.56116C95.119 5.54567 95.1284 5.53159 95.1402 5.51976C95.152 5.50794 95.1661 5.49861 95.1816 5.49233C95.1971 5.48605 95.2137 5.48295 95.2304 5.48321H97.643C97.6596 5.48321 97.6761 5.48649 97.6915 5.49286C97.7068 5.49923 97.7208 5.50857 97.7326 5.52034C97.7444 5.53211 97.7537 5.54609 97.7601 5.56147C97.7665 5.57685 97.7697 5.59334 97.7697 5.60998V6.93727C97.77 6.96356 97.7784 6.98911 97.7938 7.0104C97.8092 7.03169 97.8309 7.04766 97.8558 7.0561C97.8807 7.06454 97.9076 7.06503 97.9328 7.05751C97.958 7.04998 97.9802 7.03482 97.9964 7.0141C98.3894 6.48804 98.9012 6.06229 99.4901 5.77155C100.079 5.48081 100.728 5.33331 101.385 5.34107C101.587 5.33173 101.79 5.34851 101.988 5.39101C102.018 5.39825 102.044 5.416 102.062 5.44102C102.08 5.46605 102.089 5.49669 102.086 5.52739V5.52739Z" fill="#E7F5F4"/>
<path d="M113.275 15.5674H110.862C110.829 15.567 110.797 15.5534 110.773 15.5298C110.749 15.5061 110.736 15.4741 110.735 15.4407V15.0354C110.735 15.0131 110.729 14.9913 110.717 14.9723C110.706 14.9532 110.689 14.9376 110.67 14.927C110.65 14.9164 110.628 14.9113 110.606 14.9121C110.584 14.9129 110.562 14.9197 110.543 14.9317C109.625 15.5711 108.527 15.8996 107.408 15.869C104.844 15.869 102.46 13.7081 102.46 10.5368C102.46 7.36555 104.844 5.18542 107.408 5.18542C108.676 5.18542 109.713 5.52925 110.541 6.14583C110.56 6.15775 110.581 6.1645 110.603 6.1654C110.626 6.16631 110.647 6.16133 110.667 6.15097C110.687 6.14062 110.703 6.12526 110.715 6.10647C110.726 6.08768 110.733 6.06613 110.733 6.04403V5.60993C110.733 5.5763 110.747 5.54406 110.77 5.52028C110.794 5.49651 110.826 5.48315 110.86 5.48315H113.273C113.289 5.48289 113.306 5.48599 113.321 5.49227C113.337 5.49855 113.351 5.50788 113.363 5.51971C113.375 5.53153 113.384 5.54561 113.39 5.56111C113.397 5.5766 113.4 5.59321 113.399 5.60993V15.4407C113.399 15.474 113.386 15.5059 113.363 15.5296C113.34 15.5534 113.308 15.5669 113.275 15.5674V15.5674ZM110.735 10.5368C110.735 8.67939 109.302 7.50769 107.867 7.50769C106.252 7.50769 105.04 8.67939 105.04 10.5368C105.04 12.3943 106.252 13.5467 107.867 13.5467C109.295 13.5467 110.735 12.3962 110.735 10.5368Z" fill="#E7F5F4"/>
<path d="M122.704 11.4954L124.932 12.0717C124.965 12.0803 124.993 12.1014 125.01 12.1305C125.027 12.1597 125.032 12.1944 125.024 12.2273C124.415 14.4573 122.366 15.8768 120.007 15.8768C117.057 15.8768 114.613 13.7159 114.613 10.5446C114.613 7.37335 117.057 5.19322 120.007 5.19322C121.116 5.17734 122.202 5.51765 123.103 6.16417C124.005 6.81069 124.676 7.72934 125.017 8.78515C125.022 8.80128 125.024 8.81832 125.022 8.83523C125.021 8.85213 125.016 8.86855 125.008 8.88347C125 8.89839 124.988 8.9115 124.975 8.92201C124.962 8.93252 124.947 8.9402 124.93 8.94458L122.614 9.6015C122.581 9.6104 122.546 9.60612 122.517 9.58959C122.487 9.57306 122.465 9.5456 122.456 9.51314C122.072 8.18778 121.144 7.6365 120.007 7.6365C118.33 7.6365 117.199 8.82933 117.199 10.5446C117.199 12.2599 118.33 13.4259 120.007 13.4259C121.146 13.4259 122.076 12.8899 122.554 11.5761C122.565 11.5465 122.586 11.5218 122.613 11.5069C122.641 11.492 122.673 11.4879 122.704 11.4954V11.4954Z" fill="#E7F5F4"/>
<path d="M136.057 11.2437H128.664C128.645 11.2435 128.626 11.2477 128.609 11.2558C128.592 11.2639 128.577 11.2758 128.565 11.2905C128.553 11.3053 128.544 11.3225 128.54 11.341C128.535 11.3595 128.535 11.3788 128.539 11.3974C128.845 12.7611 129.845 13.5871 131.036 13.5871C131.805 13.5871 132.765 13.491 133.493 12.3309C133.507 12.3088 133.527 12.2914 133.551 12.2811C133.575 12.2708 133.602 12.2681 133.628 12.2732L135.771 12.7266C135.79 12.7307 135.807 12.7388 135.822 12.7504C135.837 12.762 135.849 12.7768 135.858 12.7937C135.867 12.8105 135.871 12.8291 135.872 12.8481C135.873 12.867 135.869 12.8859 135.861 12.9033C134.951 14.9067 133.188 15.869 131.036 15.869C128.188 15.869 125.866 13.7081 125.866 10.5368C125.866 7.36556 128.188 5.18542 131.077 5.18542C133.766 5.18542 136.086 7.26567 136.186 10.3351V11.1169C136.186 11.1338 136.183 11.1506 136.177 11.1662C136.17 11.1818 136.161 11.196 136.149 11.2078C136.137 11.2197 136.123 11.229 136.107 11.2351C136.091 11.2413 136.074 11.2442 136.057 11.2437V11.2437ZM128.758 9.36705H133.286C133.306 9.36686 133.326 9.36189 133.344 9.35255C133.362 9.3432 133.377 9.32975 133.389 9.31327C133.401 9.2968 133.409 9.27778 133.412 9.25775C133.415 9.23772 133.413 9.21726 133.407 9.19802C133.263 8.69552 132.955 8.25574 132.532 7.94922C132.109 7.6427 131.595 7.48721 131.073 7.5077C130.541 7.49942 130.02 7.65804 129.583 7.96124C129.146 8.26445 128.816 8.69699 128.637 9.19802C128.631 9.21741 128.629 9.23805 128.632 9.25822C128.635 9.2784 128.643 9.29754 128.655 9.31405C128.667 9.33057 128.683 9.34399 128.701 9.3532C128.72 9.36242 128.74 9.36716 128.76 9.36705H128.758Z" fill="#E7F5F4"/>
</g>
<path d="M34.7192 24.328C33.9467 24.328 33.2906 24.709 32.9626 25.2593V22H32.116V29.7249H32.8567L32.9096 28.8042C33.2271 29.418 33.9044 29.8307 34.7086 29.8307C36.0208 29.8307 37.1319 28.8042 37.1319 27.0794C37.1319 25.3545 36.0313 24.328 34.7192 24.328ZM34.6239 29.0899C33.6292 29.0899 32.9626 28.3175 32.9626 27.1005C32.9626 25.8836 33.6398 25.0688 34.6345 25.0688C35.6821 25.0688 36.2853 25.8624 36.2853 27.0794C36.2853 28.2963 35.6716 29.0899 34.6239 29.0899Z" fill="#9AA5A5"/>
<path d="M42.733 24.4339H41.8229L40.5848 27.7778L40.2039 28.8254L39.8758 27.8836L38.5531 24.4339H37.5901L39.8018 29.7143L39.5266 30.4021C39.2621 31.1005 38.934 31.2593 38.5637 31.2593C38.2568 31.2593 37.9182 31.1429 37.643 30.8889L37.4102 31.6296C37.7171 31.8624 38.1192 32 38.606 32C39.3573 32 39.8335 31.6508 40.2462 30.6138L42.733 24.4339Z" fill="#9AA5A5"/>
<path d="M51.5342 22.7407H45.8199V23.5344H48.2537V29.7249H49.1003V23.5344H51.5342V22.7407Z" fill="#9AA5A5"/>
<path d="M51.9064 29.7249H52.753V26.8677C52.753 25.6825 53.5255 25.1217 54.1921 25.1217C54.5308 25.1217 54.6789 25.1534 54.8376 25.2063L54.9858 24.4339C54.8271 24.3492 54.5837 24.328 54.4038 24.328C53.5784 24.328 53.007 24.6561 52.7107 25.3016L52.5943 24.4339H51.9064V29.7249Z" fill="#9AA5A5"/>
<path d="M60.2083 29.0794C59.9438 29.0794 59.8062 28.9524 59.8062 28.6984V26.1376C59.8062 24.8995 58.9068 24.328 57.7639 24.328C56.6316 24.328 55.8486 24.8571 55.5628 25.6508L56.2507 26.0741C56.4835 25.3757 57.0126 25.0688 57.7427 25.0688C58.5152 25.0688 58.9597 25.5238 58.9597 26.3069V26.5079L57.0337 26.8889C56.0919 27.0794 55.5311 27.5979 55.5311 28.3915C55.5311 29.3545 56.3353 29.8307 57.2771 29.8307C57.8909 29.8307 58.5999 29.5767 58.9702 29.0265C59.0655 29.545 59.4888 29.7989 60.0073 29.7989C60.2401 29.7989 60.4306 29.7566 60.5575 29.6931L60.5999 29.0265C60.4835 29.0582 60.3247 29.0794 60.2083 29.0794ZM57.3935 29.0899C56.7586 29.0899 56.3988 28.7831 56.3988 28.3492C56.3988 27.8942 56.7269 27.672 57.4253 27.5238L58.9597 27.2063V27.7672C58.9597 28.6772 58.2083 29.0899 57.3935 29.0899Z" fill="#9AA5A5"/>
<path d="M63.8423 24.328C62.3502 24.328 61.2814 25.3651 61.2814 27.0794C61.2814 28.7937 62.3502 29.8307 63.8423 29.8307C64.964 29.8307 65.7259 29.2487 66.0857 28.2751L65.3026 28C65.1439 28.6984 64.6465 29.0899 63.8211 29.0899C62.7629 29.0899 62.128 28.3386 62.128 27.0794C62.128 25.8201 62.7629 25.0688 63.8211 25.0688C64.5513 25.0688 65.0063 25.4392 65.2285 26.1164L66.0327 25.7354C65.6412 24.8677 64.9322 24.328 63.8423 24.328Z" fill="#9AA5A5"/>
<path d="M71.8589 26.7302C71.8589 25.3757 71.0017 24.328 69.5203 24.328C68.0494 24.328 66.9912 25.3651 66.9912 27.0794C66.9912 28.7937 68.0599 29.8307 69.5732 29.8307C70.5996 29.8307 71.3509 29.3757 71.7531 28.6561L71.0864 28.2646C70.7901 28.7725 70.3245 29.0899 69.552 29.0899C68.5573 29.0899 67.9118 28.4339 67.8271 27.3228H71.8166C71.8377 27.1746 71.8589 26.9735 71.8589 26.7302ZM69.4991 25.0688C70.3774 25.0688 70.9806 25.6085 71.0123 26.5714H67.8589C68.007 25.619 68.6102 25.0688 69.4991 25.0688Z" fill="#9AA5A5"/>
<path d="M77.5959 29.0794C77.3314 29.0794 77.1938 28.9524 77.1938 28.6984V26.1376C77.1938 24.8995 76.2943 24.328 75.1515 24.328C74.0192 24.328 73.2361 24.8571 72.9504 25.6508L73.6382 26.0741C73.871 25.3757 74.4001 25.0688 75.1303 25.0688C75.9028 25.0688 76.3472 25.5238 76.3472 26.3069V26.5079L74.4213 26.8889C73.4795 27.0794 72.9187 27.5979 72.9187 28.3915C72.9187 29.3545 73.7229 29.8307 74.6647 29.8307C75.2784 29.8307 75.9874 29.5767 76.3578 29.0265C76.453 29.545 76.8763 29.7989 77.3948 29.7989C77.6277 29.7989 77.8181 29.7566 77.9451 29.6931L77.9874 29.0265C77.871 29.0582 77.7123 29.0794 77.5959 29.0794ZM74.7811 29.0899C74.1462 29.0899 73.7864 28.7831 73.7864 28.3492C73.7864 27.8942 74.1144 27.672 74.8128 27.5238L76.3472 27.2063V27.7672C76.3472 28.6772 75.5959 29.0899 74.7811 29.0899Z" fill="#9AA5A5"/>
<path d="M81.6425 24.328C80.87 24.328 80.214 24.709 79.8859 25.2593V22H79.0394V29.7249H79.7801L79.833 28.8042C80.1505 29.418 80.8277 29.8307 81.6319 29.8307C82.9441 29.8307 84.0552 28.8042 84.0552 27.0794C84.0552 25.3545 82.9547 24.328 81.6425 24.328ZM81.5473 29.0899C80.5526 29.0899 79.8859 28.3175 79.8859 27.1005C79.8859 25.8836 80.5632 25.0688 81.5579 25.0688C82.6055 25.0688 83.2087 25.8624 83.2087 27.0794C83.2087 28.2963 82.5949 29.0899 81.5473 29.0899Z" fill="#9AA5A5"/>
<path d="M86.2664 22H85.4198V28.4127C85.4198 29.3757 85.8325 29.8307 86.6897 29.8307C86.9648 29.8307 87.2505 29.7778 87.4727 29.6825L87.6103 28.9418C87.3034 29.0582 87.1764 29.0899 86.8907 29.0899C86.4568 29.0899 86.2664 28.9206 86.2664 28.381V22Z" fill="#9AA5A5"/>
<path d="M92.9824 26.7302C92.9824 25.3757 92.1253 24.328 90.6438 24.328C89.1729 24.328 88.1147 25.3651 88.1147 27.0794C88.1147 28.7937 89.1835 29.8307 90.6967 29.8307C91.7231 29.8307 92.4745 29.3757 92.8766 28.6561L92.2099 28.2646C91.9136 28.7725 91.448 29.0899 90.6755 29.0899C89.6808 29.0899 89.0353 28.4339 88.9506 27.3228H92.9401C92.9612 27.1746 92.9824 26.9735 92.9824 26.7302ZM90.6226 25.0688C91.5009 25.0688 92.1041 25.6085 92.1358 26.5714H88.9824C89.1305 25.619 89.7337 25.0688 90.6226 25.0688Z" fill="#9AA5A5"/>
<rect x="143" y="5" width="31" height="10" rx="5" fill="#8273F1"/>
<path d="M147.774 13H150.465C151.878 13 152.634 12.397 152.634 11.371C152.634 10.678 152.175 10.12 151.347 10.003V9.994C152.094 9.868 152.481 9.319 152.481 8.68C152.481 7.654 151.815 7.06 150.375 7.06H147.774V13ZM148.98 9.553V8.023H150.213C150.87 8.023 151.194 8.275 151.194 8.788C151.194 9.301 150.87 9.553 150.213 9.553H148.98ZM148.98 12.064V10.507H150.357C151.023 10.507 151.347 10.786 151.347 11.281C151.347 11.776 151.023 12.064 150.357 12.064H148.98Z" fill="#272C2E"/>
<path d="M153.821 13H158.402V12.001H155.063V10.489H157.592V9.535H155.063V8.059H158.276V7.06H153.821V13Z" fill="#272C2E"/>
<path d="M164.214 7.06H158.985V8.059H160.983V13H162.225V8.059H164.214V7.06Z" fill="#272C2E"/>
<path d="M168.334 13H169.621L167.452 7.06H165.967L163.798 13H165.067L165.553 11.551H167.848L168.334 13ZM165.868 10.633L166.435 8.941L166.687 8.059H166.705L166.975 8.959L167.542 10.633H165.868Z" fill="#272C2E"/>
<defs>
<clipPath id="clip0">
<rect width="136.184" height="18" fill="white" transform="translate(0 1)"/>
</clipPath>
</defs>
</svg>
