<svg width="20" height="20" viewBox="0 0 20 20" fill="none" xmlns="http://www.w3.org/2000/svg">
<path d="M10.836 11.6653H11.6688V13.3319H8.33545V11.6653H9.16878V9.99861H8.33545V8.33194H10.836V11.6653Z" fill="currentColor"/>
<path d="M10.8336 6.66527C10.8336 7.12551 10.4603 7.49861 9.99995 7.49861C9.53956 7.49861 9.16634 7.12551 9.16634 6.66527C9.16634 6.20504 9.53956 5.83194 9.99995 5.83194C10.4603 5.83194 10.8336 6.20504 10.8336 6.66527Z" fill="currentColor"/>
<path fill-rule="evenodd" clip-rule="evenodd" d="M0.833008 9.99998C0.833008 15.0626 4.93706 19.1666 9.99967 19.1666C15.0623 19.1666 19.1663 15.0626 19.1663 9.99998C19.1663 4.93737 15.0623 0.833313 9.99967 0.833313C4.93706 0.833313 0.833008 4.93737 0.833008 9.99998ZM17.4997 9.99998C17.4997 14.1421 14.1418 17.5 9.99967 17.5C5.85754 17.5 2.49967 14.1421 2.49967 9.99998C2.49967 5.85784 5.85754 2.49998 9.99967 2.49998C14.1418 2.49998 17.4997 5.85784 17.4997 9.99998Z" fill="currentColor"/>
</svg>
