<svg width="24" height="24" viewBox="0 0 24 24" fill="none" xmlns="http://www.w3.org/2000/svg">
  <path d="M9.14166 6.72461C10.2133 6.14398 11.4363 5.90347 12.648 6.0351C13.1971 6.09475 13.6905 5.698 13.7502 5.14895C13.8098 4.59989 13.4131 4.10645 12.864 4.0468C11.2484 3.87129 9.6177 4.19196 8.18887 4.96614C6.76004 5.74032 5.60087 6.93128 4.86563 8.38053C4.13038 9.82978 3.85394 11.4686 4.07308 13.0788C4.29222 14.6891 4.99657 16.1944 6.09236 17.3944C7.18816 18.5945 8.62345 19.4324 10.2072 19.7965C11.791 20.1607 13.4481 20.0339 14.958 19.4331C16.4679 18.8322 17.759 17.7857 18.6595 16.433C19.56 15.0802 20.0271 13.4852 19.9988 11.8604C19.9891 11.3082 19.5337 10.8684 18.9815 10.878C18.4293 10.8876 17.9895 11.3431 17.9991 11.8953C18.0204 13.1139 17.67 14.3101 16.9946 15.3247C16.3193 16.3393 15.3509 17.1242 14.2185 17.5748C13.086 18.0255 11.8432 18.1205 10.6554 17.8474C9.46759 17.5743 8.39112 16.9459 7.56927 16.0458C6.74743 15.1458 6.21917 14.0168 6.05481 12.8091C5.89045 11.6014 6.09779 10.3723 6.64922 9.2854C7.20066 8.19846 8.07003 7.30524 9.14166 6.72461Z" fill="currentColor"/>
  <path d="M14.7794 13.063L12.3066 13.063L19.7163 5.6533C20.0946 5.27509 20.0946 4.66188 19.7163 4.28366C19.3381 3.90545 18.7249 3.90545 18.3467 4.28366L10.937 11.6934V9.22063C10.937 8.68575 10.5034 8.25214 9.96848 8.25214C9.4336 8.25214 9 8.68575 9 9.22062L9 14.0315C9 14.5664 9.4336 15 9.96848 15L14.7794 15C15.3143 15 15.7479 14.5664 15.7479 14.0315C15.7479 13.4966 15.3143 13.063 14.7794 13.063Z" fill="currentColor"/>
</svg>
