<svg width="16" height="20" viewBox="0 0 16 20" fill="none" xmlns="http://www.w3.org/2000/svg">
  <path d="M5.77163 15.4607C5.77163 15.4607 5.00872 15.9044 6.31457 16.0545C7.89658 16.235 8.70512 16.2091 10.4485 15.8791C10.4485 15.8791 10.9069 16.1665 11.547 16.4154C7.63878 18.0905 2.70195 16.3184 5.77163 15.4607Z" fill="currentColor"/>
  <path d="M5.29416 13.2749C5.29416 13.2749 4.43847 13.9083 5.7453 14.0435C7.43525 14.2178 8.76984 14.2321 11.0792 13.7874C11.0792 13.7874 11.3986 14.1112 11.9009 14.2883C7.17562 15.6701 1.91254 14.3973 5.29416 13.2749Z" fill="currentColor"/>
  <path d="M9.32015 9.56713C10.2831 10.6758 9.06713 11.6735 9.06713 11.6735C9.06713 11.6735 11.5123 10.4112 10.3893 8.83058C9.34054 7.35652 8.53625 6.62412 12.8904 4.09888C12.8904 4.09888 6.05583 5.80583 9.32015 9.56713Z" fill="currentColor"/>
  <path d="M14.489 17.0773C14.489 17.0773 15.0536 17.5425 13.8673 17.9024C11.6114 18.5857 4.4781 18.7921 2.4965 17.9296C1.78417 17.6197 3.12 17.1897 3.5402 17.0994C3.97843 17.0044 4.22886 17.0221 4.22886 17.0221C3.43667 16.464 -0.89152 18.1179 2.03035 18.5915C9.99872 19.8837 16.5559 18.0096 14.489 17.0773Z" fill="currentColor"/>
  <path d="M6.13873 11.0101C6.13873 11.0101 2.51028 11.8719 4.8538 12.1849C5.84331 12.3174 7.81587 12.2874 9.65326 12.1334C11.1549 12.0068 12.6627 11.7374 12.6627 11.7374C12.6627 11.7374 12.1332 11.9642 11.7501 12.2258C8.06549 13.1948 0.947483 12.744 2.99667 11.7528C4.72966 10.9151 6.13873 11.0101 6.13873 11.0101Z" fill="currentColor"/>
  <path d="M12.6477 14.6483C16.3933 12.702 14.6615 10.8315 13.4527 11.0835C13.1564 11.1452 13.0243 11.1986 13.0243 11.1986C13.0243 11.1986 13.1343 11.0263 13.3444 10.9517C15.7358 10.111 17.5749 13.4314 12.5724 14.7464C12.5724 14.7465 12.6304 14.6947 12.6477 14.6483Z" fill="currentColor"/>
  <path d="M10.3893 0.0212402C10.3893 0.0212402 12.4636 2.09631 8.42181 5.28717C5.18068 7.8468 7.68273 9.30622 8.42046 10.9737C6.52856 9.26673 5.14016 7.76409 6.07161 6.36557C7.43875 4.31268 11.2262 3.31736 10.3893 0.0212402Z" fill="currentColor"/>
  <path d="M6.50669 19.9226C10.102 20.1528 15.623 19.7949 15.7537 18.0938C15.7537 18.0938 15.5024 18.7387 12.7824 19.2508C9.71375 19.8283 5.92899 19.7609 3.6842 19.3908C3.68426 19.3907 4.14374 19.7711 6.50669 19.9226Z" fill="currentColor"/>
</svg>
