<svg width="24" height="24" viewBox="0 0 24 24" fill="none" xmlns="http://www.w3.org/2000/svg">
<path fill-rule="evenodd" clip-rule="evenodd" d="M16 15.915V18C16 20.2091 14.2091 22 12 22C9.79086 22 8 20.2091 8 18V15.915C8 15.7197 7.93083 15.5067 7.76746 15.2262C7.6625 15.046 7.52518 14.848 7.318 14.5739L7.24831 14.483C7.10998 14.3027 6.80784 13.9089 6.6963 13.7583C5.56644 12.2322 5 10.8699 5 9C5 5.13401 8.13401 2 12 2C15.866 2 19 5.13401 19 9C19 10.9108 18.4258 12.3248 17.3056 13.848C17.1868 14.0094 16.8873 14.3987 16.7099 14.6292C16.6405 14.7195 16.5898 14.7854 16.5759 14.8039C16.3495 15.105 16.2089 15.3185 16.1175 15.5039C16.0347 15.6717 16 15.8013 16 15.915ZM14.0437 15.4393C14.0947 15.1627 14.1895 14.8913 14.3238 14.6191C14.4817 14.2991 14.6824 13.9943 14.9772 13.6022C14.9974 13.5753 15.0624 13.4908 15.1463 13.3816C15.3264 13.1474 15.594 12.7996 15.6944 12.663C16.583 11.4548 17 10.4279 17 9C17 6.23858 14.7614 4 12 4C9.23858 4 7 6.23858 7 9C7 10.3785 7.40666 11.3566 8.3037 12.5682C8.39996 12.6982 8.67174 13.0526 8.81868 13.2442L8.91348 13.3679C9.16474 13.7003 9.3425 13.9566 9.49567 14.2196C9.73422 14.6291 9.89259 15.0283 9.9612 15.4423C10.5844 15.8163 11.258 16 12 16C12.7439 16 13.4192 15.8153 14.0437 15.4393ZM14 18V17.6624C13.3675 17.8869 12.6993 18 12 18C11.3007 18 10.6325 17.8869 10 17.6624V18C10 19.1046 10.8954 20 12 20C13.1046 20 14 19.1046 14 18Z" fill="currentColor"/>
</svg>
