<svg width="12" height="18" viewBox="0 0 12 18" fill="none" xmlns="http://www.w3.org/2000/svg">
<path fill-rule="evenodd" clip-rule="evenodd" d="M9.33334 12.2626V14.0001C9.33334 15.841 7.84096 17.3334 6.00001 17.3334C4.15906 17.3334 2.66667 15.841 2.66667 14.0001V12.2626C2.66667 12.0999 2.60903 11.9223 2.47289 11.6886C2.38542 11.5384 2.27099 11.3734 2.09834 11.145L2.04026 11.0693C1.92499 10.919 1.67321 10.5909 1.58026 10.4653C0.638707 9.1936 0.166672 8.0583 0.166672 6.50008C0.166672 3.27842 2.77834 0.666748 6.00001 0.666748C9.22167 0.666748 11.8333 3.27842 11.8333 6.50008C11.8333 8.09238 11.3549 9.27077 10.4213 10.5401C10.3224 10.6746 10.0728 10.999 9.92494 11.1911C9.86708 11.2663 9.82481 11.3212 9.81324 11.3366C9.62461 11.5876 9.50744 11.7655 9.43123 11.92C9.36226 12.0598 9.33334 12.1678 9.33334 12.2626ZM7.70308 11.8662C7.74559 11.6357 7.82463 11.4095 7.93654 11.1827C8.06809 10.916 8.23536 10.662 8.48098 10.3352C8.49781 10.3128 8.55197 10.2424 8.62196 10.1514C8.77203 9.95628 8.99497 9.66642 9.07869 9.55259C9.81921 8.54574 10.1667 7.69 10.1667 6.50008C10.1667 4.19889 8.30119 2.33341 6.00001 2.33341C3.69882 2.33341 1.83334 4.19889 1.83334 6.50008C1.83334 7.64887 2.17222 8.46393 2.91975 9.47359C2.99997 9.58194 3.22645 9.87723 3.3489 10.0369L3.4279 10.14C3.63729 10.417 3.78543 10.6306 3.91307 10.8497C4.11185 11.191 4.24383 11.5237 4.301 11.8686C4.8203 12.1803 5.38167 12.3334 6.00001 12.3334C6.61996 12.3334 7.18265 12.1795 7.70308 11.8662ZM7.66667 14.0001V13.7188C7.13962 13.9058 6.58279 14.0001 6.00001 14.0001C5.41722 14.0001 4.8604 13.9058 4.33334 13.7188V14.0001C4.33334 14.9206 5.07953 15.6667 6.00001 15.6667C6.92048 15.6667 7.66667 14.9206 7.66667 14.0001Z" fill="currentColor"/>
</svg>
