<svg
  width="316"
  height="300"
  viewBox="0 0 316 300"
  fill="none"
  xmlns="http://www.w3.org/2000/svg"
>
  <path
    d="M156.361 163.366V61.7302c-.38-.0927-.754-.2256-1.106-.3987l-89.99 70.4025c.1823.513.2874 1.051.3121 1.595.0093.192.0093.383 0 .575l90.7839 29.462ZM159.146 163.366l117.942-38.236h.003c.034-.377.108-.748.22-1.11L161.188 60.8858c-.621.4512-1.332.7664-2.083.9302l.041 101.55ZM95.0835 253.925a5.6114 5.6114 0 0 1 1.2826 2.924l139.7869 21c.219-.414.485-.803.797-1.152l-79.174-109.081-62.6925 86.309ZM282.808 119.321c1.787.074 3.434.995 4.432 2.481l27.204-8.86L159.15 0v50.8179c2.432.5223 4.231 2.5745 4.431 5.0531l117.413 63.802c.584-.219 1.196-.34 1.817-.355l-.003.003ZM239.214 275.153c.606-.244 1.252-.377 1.904-.399l38.502-144.882a5.5974 5.5974 0 0 1-1.771-1.907l-117.855 38.06 79.22 109.128ZM63.0009 138.064l28.0903 113.915a5.644 5.644 0 0 1 1.774.355l62.6498-86.31-90.9157-29.509a5.5567 5.5567 0 0 1-1.5947 1.551l-.0037-.002ZM55.0733 130.532a5.67 5.67 0 0 1 4.8738-2.924c.4667.028.9303.118 1.3723.266l90.9156-71.2006v-.3554c.034-2.5404 1.752-4.7502 4.209-5.4054V.0046L.8809 112.986l54.1924 17.546ZM243.463 285.691c-2.572 1.162-5.603.207-7.047-2.216L94.1926 262.162h.003a5.5979 5.5979 0 0 1-3.3687 1.243 5.7538 5.7538 0 0 1-2.2159-.445L61.6734 300H253.829l-10.366-14.309ZM315.461 115.602l-27.071 8.861h-.003c.016.219.016.442 0 .664-.009 2.238-1.326 4.265-3.366 5.183l-38.99 147.366c1.276 1.96 1.097 4.528-.442 6.29l10.501 14.269 59.371-182.633ZM59.4564 298.232l26.9834-37.131c-1.6534-1.845-1.8017-4.589-.3554-6.601L57.4197 138.417c-1.9347-.943-3.1709-2.899-3.1894-5.053L0 115.643l59.4564 182.589Z"
    fill="#E1E4E5"
  />

  <linearGradient id="shimmer-gradient" x1="0" x2="1" y1="0" y2="0">
    <stop class="stop1" offset="0%" />
    <stop class="stop2" offset="50%" />
    <stop class="stop3" offset="100%" />
  </linearGradient>

  <rect x="0" y="0" class="shimmer" width="50%" height="100%" />

  <style>
    .stop1 {
      stop-color: rgb(255, 255, 255);
      stop-opacity: 0.1;
    }
    .stop2 {
      stop-color: rgb(255, 255, 255);
      stop-opacity: 0.6;
    }
    .stop3 {
      stop-color: rgb(255, 255, 255);
      stop-opacity: 0.1;
    }

    .shimmer {
      fill: url(#shimmer-gradient);
      transform: translateX(-100%);
      animation: skeleton-animation 1.2s infinite;
    }
    @keyframes skeleton-animation {
      from {
        transform: translateX(-100%);
      }
      to {
        transform: translateX(100%);
      }
    }
  </style>
</svg>
