<svg
  width="1140" height="242" viewBox="0 0 1140 242"
  fill="none"
  xmlns="http://www.w3.org/2000/svg"
>
  <g>
    <path d="M240 18h8.861C260.743 18 262.83 33.6734 267 48.4138 269.97 58.9138 275.941 74 286.337 74H300" stroke="#E1E4E5" stroke-dasharray="2 2"/>
    <path d="M240 18h8.861C260.743 18 262.83 49.3468 267 78.8276c2.97 21 8.941 51.1724 19.337 51.1724H300" stroke="#E1E4E5" stroke-dasharray="2 2"/>
    <path d="M240 18h8.861c11.882 0 13.969 47.0202 18.139 91.241 2.97 31.5 8.941 76.759 19.337 76.759H300M240 18h60M540 74h8.861c11.882 0 13.969 15.6734 18.139 30.414 2.97 10.5 8.941 25.586 19.337 25.586H600" stroke="#E1E4E5" stroke-dasharray="2 2"/>
    <path d="M540 18h8.861C560.743 18 562.83 49.3468 567 78.8276c2.97 21 8.941 51.1724 19.337 51.1724H600" stroke="#E1E4E5" stroke-dasharray="2 2"/>
    <path d="M540 131h8.861c11.882 0 13.969-15.953 18.139-30.957C569.97 89.3556 575.941 74 586.337 74H600M540 187h60M840 130h8.861c11.882 0 13.969 15.673 18.139 30.414 2.97 10.5 8.941 25.586 19.337 25.586H900" stroke="#E1E4E5" stroke-dasharray="2 2"/>
    <path d="M840 74h8.861c11.882 0 13.969 31.347 18.139 60.828 2.97 21 8.941 51.172 19.337 51.172H900" stroke="#E1E4E5" stroke-dasharray="2 2"/>
    <rect x="900" y="168" width="240" height="36" rx="8" fill="#E1E4E5"/>
    <rect x="600" y="56" width="240" height="36" rx="8" fill="#E1E4E5"/>
    <rect x="600.5" y="112.5" width="239" height="35" rx="7.5" fill="#E1E4E5" stroke="#E1E4E5"/>
    <rect x="600" y="168" width="240" height="36" rx="8" fill="#E1E4E5"/>
    <rect x="300" width="240" height="36" rx="8" fill="#E1E4E5"/>
    <rect x="300.5" y="56.5" width="239" height="35" rx="7.5" fill="#E1E4E5" stroke="#E1E4E5"/>
    <rect x="300" y="112" width="240" height="36" rx="8" fill="#E1E4E5"/>
    <rect x="300" y="168" width="240" height="36" rx="8" fill="#E1E4E5"/>
    <rect width="240" height="36" rx="8" fill="#E1E4E5"/>
  </g>

  <linearGradient id="shimmer-gradient" x1="0" x2="1" y1="0" y2="0">
    <stop class="stop1" offset="0%" />
    <stop class="stop2" offset="50%" />
    <stop class="stop3" offset="100%" />
  </linearGradient>

  <rect x="0" y="0" class="shimmer" width="50%" height="100%" />

  <style>
    .stop1 {
      stop-color: rgb(255, 255, 255);
      stop-opacity: 0.1;
    }
    .stop2 {
      stop-color: rgb(255, 255, 255);
      stop-opacity: 0.6;
    }
    .stop3 {
      stop-color: rgb(255, 255, 255);
      stop-opacity: 0.1;
    }

    .shimmer {
      fill: url(#shimmer-gradient);
      transform: translateX(-100%);
      animation: skeleton-animation 1.2s infinite;
    }
    @keyframes skeleton-animation {
      from {
        transform: translateX(-100%);
      }
      to {
        transform: translateX(100%);
      }
    }
  </style>
</svg>
