<svg width="100%" height="100%">
  <defs>
    <pattern
      id="pattern-cartesian"
      x="0"
      y="0"
      width="300"
      height="100%"
      viewBox="0 0 310 66"
      patternUnits="userSpaceOnUse"
    >
      <path x="0" y="0" d="M30.8409 24.8271L0 29.5V65.5H312.5V29.5L279.521 24.9196C277.539 24.6443 275.656 23.8773 274.046 22.6886L259.737 12.1271C257.036 10.1341 253.625 9.36289 250.33 10.0006L213.734 17.0837C210.696 17.6717 207.548 17.0635 204.948 15.3859L184.454 2.16372C180.52 -0.374419 175.469 -0.392766 171.516 2.11673L147.278 17.506C146.76 17.8349 146.218 18.1235 145.656 18.3694L111.811 33.1766C108.456 34.6444 104.614 34.4999 101.379 32.7842L79.8719 21.379C75.9508 19.2997 71.2023 19.5544 67.5261 22.0412L60.7281 26.6398C58.0265 28.4674 54.6974 29.1165 51.5071 28.4377L35.1359 24.9544C33.7236 24.6539 32.2686 24.6108 30.8409 24.8271Z" fill="#E1E4E5"/>
    </pattern>
  </defs>

  <linearGradient id="shimmer-gradient" x1="0" x2="1" y1="0" y2="0">
    <stop class="stop1" offset="0%" />
    <stop class="stop2" offset="50%" />
    <stop class="stop3" offset="100%" />
  </linearGradient>

  <rect
    x="0"
    y="0"
    width="100%"
    height="100%"
    fill="url(#pattern-cartesian)"
  ></rect>

  <rect x="0" y="0" class="shimmer" width="50%" height="100%" />

  <style>
    .stop1 {
      stop-color: rgb(255, 255, 255);
      stop-opacity: 0.1;
    }
    .stop2 {
      stop-color: rgb(255, 255, 255);
      stop-opacity: 0.6;
    }
    .stop3 {
      stop-color: rgb(255, 255, 255);
      stop-opacity: 0.1;
    }

    .shimmer {
      fill: url(#shimmer-gradient);
      transform: translateX(-100%);
      animation: skeleton-animation 1.2s infinite;
    }
    @keyframes skeleton-animation {
      from {
        transform: translateX(-100%);
      }
      to {
        transform: translateX(100%);
      }
    }
  </style>
</svg>
