<svg width="100%" height="100%">
  <defs>
    <pattern
      id="pattern-cartesian"
      x="0"
      y="0"
      width="300"
      height="100%"
      viewBox="0 0 308 87"
      patternUnits="userSpaceOnUse"
    >
      <path
        x="0"
        y="0"
        d="m27.4097 44.3119-13.5948-5.6105C7.2322 35.9847 0 40.8238 0 47.9451V87h308.5V40.0795c0-7.644-8.228-12.4616-14.894-8.7205L261.78 49.2205a10.0003 10.0003 0 0 1-4.894 1.2795h-9.018a10 10 0 0 1-5.3-1.52l-24.726-15.4535c-3-1.8755-6.769-2.0254-9.909-.3941L182.781 46.198c-4.663 2.4225-10.406.8224-13.144-3.6626L146.621 4.8439c-3.373-5.525-11.028-6.4372-15.605-1.8596L108.429 25.571a9.9997 9.9997 0 0 1-7.071 2.9289H70.7456c-1.4786 0-2.9389.3279-4.2756.9601L35.5001 44.108a9.9997 9.9997 0 0 1-8.0904.2039Z"
        fill="#E1E4E5"
      />
    </pattern>
  </defs>

  <linearGradient id="shimmer-gradient" x1="0" x2="1" y1="0" y2="0">
    <stop class="stop1" offset="0%" />
    <stop class="stop2" offset="50%" />
    <stop class="stop3" offset="100%" />
  </linearGradient>

  <rect
    x="0"
    y="0"
    width="100%"
    height="100%"
    fill="url(#pattern-cartesian)"
  ></rect>

  <rect x="0" y="0" class="shimmer" width="50%" height="100%" />

  <style>
    .stop1 {
      stop-color: rgb(255, 255, 255);
      stop-opacity: 0.1;
    }
    .stop2 {
      stop-color: rgb(255, 255, 255);
      stop-opacity: 0.6;
    }
    .stop3 {
      stop-color: rgb(255, 255, 255);
      stop-opacity: 0.1;
    }

    .shimmer {
      fill: url(#shimmer-gradient);
      transform: translateX(-100%);
      animation: skeleton-animation 1.2s infinite;
    }
    @keyframes skeleton-animation {
      from {
        transform: translateX(-100%);
      }
      to {
        transform: translateX(100%);
      }
    }
  </style>
</svg>
