<svg
  width="230"
  height="266"
  viewBox="0 0 230 266"
  fill="none"
  xmlns="http://www.w3.org/2000/svg"
>
  <path
    d="M162.961 231h-39.76v-89.6h39.76c-.561-2.52-.84-5.321-.84-8.401 0-2.8.279-5.599.84-8.4h-39.76v-89.6h39.76c-.561-2.5196-.84-5.3205-.84-8.4005 0-2.8008.279-5.5995.84-8.4005h-48.16c-4.48 0-8.4 3.6406-8.4 8.4005v97.9995H66.6405c.5606 2.801.8399 5.6.8399 8.401s-.2793 5.599-.8399 8.4h39.7605v98c0 4.481 3.64 8.401 8.4 8.401h48.16c-.561-2.52-.84-5.321-.84-8.401s.279-5.88.84-8.399ZM26.881 106.12c14.8455 0 26.881 12.035 26.881 26.881s-12.035 26.881-26.881 26.881S0 147.847 0 133.001s12.035-26.881 26.881-26.881ZM202.721 0c14.845 0 26.881 12.035 26.881 26.881 0 14.844-12.035 26.879-26.881 26.879S175.84 41.725 175.84 26.881C175.84 12.0355 187.875 0 202.721 0ZM202.721 212.24c14.845 0 26.881 12.035 26.881 26.879 0 14.845-12.035 26.881-26.881 26.881s-26.881-12.035-26.881-26.881c0-14.844 12.035-26.879 26.881-26.879ZM202.721 106.12c14.845 0 26.881 12.035 26.881 26.881s-12.035 26.881-26.881 26.881-26.881-12.035-26.881-26.881 12.035-26.881 26.881-26.881Z"
    fill="#E1E4E5"
  />

  <linearGradient id="shimmer-gradient" x1="0" x2="1" y1="0" y2="0">
    <stop class="stop1" offset="0%" />
    <stop class="stop2" offset="50%" />
    <stop class="stop3" offset="100%" />
  </linearGradient>

  <rect x="0" y="0" class="shimmer" width="50%" height="100%" />

  <style>
    .stop1 {
      stop-color: rgb(255, 255, 255);
      stop-opacity: 0.1;
    }
    .stop2 {
      stop-color: rgb(255, 255, 255);
      stop-opacity: 0.6;
    }
    .stop3 {
      stop-color: rgb(255, 255, 255);
      stop-opacity: 0.1;
    }

    .shimmer {
      fill: url(#shimmer-gradient);
      transform: translateX(-100%);
      animation: skeleton-animation 1.2s infinite;
    }
    @keyframes skeleton-animation {
      from {
        transform: translateX(-100%);
      }
      to {
        transform: translateX(100%);
      }
    }
  </style>
</svg>
