<svg width="18" height="12" viewBox="0 0 18 12" fill="none" xmlns="http://www.w3.org/2000/svg">
<path fill-rule="evenodd" clip-rule="evenodd" d="M2.25 0H15.75C16.5784 0 17.25 0.596954 17.25 1.33333V10.6667C17.25 11.403 16.5784 12 15.75 12H2.25C1.42157 12 0.75 11.403 0.75 10.6667V1.33333C0.75 0.596954 1.42157 0 2.25 0ZM2.75 1.5C2.47386 1.5 2.25 1.72386 2.25 2V2.1573L9 5.53264L15.75 2.15765V2C15.75 1.72386 15.5261 1.5 15.25 1.5H2.75ZM15.75 3.8347L8.99997 7.20971L2.25 3.83439V10C2.25 10.2761 2.47386 10.5 2.75 10.5H15.25C15.5261 10.5 15.75 10.2761 15.75 10V3.8347Z" fill="currentColor"/>
</svg>
