<svg width="20" height="20" viewBox="0 0 20 20" fill="none" xmlns="http://www.w3.org/2000/svg">
<path d="M5.8335 10C5.8335 10.4602 6.20659 10.8333 6.66683 10.8333H13.3335C13.7937 10.8333 14.1668 10.4602 14.1668 10C14.1668 9.53976 13.7937 9.16667 13.3335 9.16667H6.66683C6.20659 9.16667 5.8335 9.53976 5.8335 10Z" fill="white"/>
<path fill-rule="evenodd" clip-rule="evenodd" d="M10.0002 19.1667C4.93755 19.1667 0.833496 15.0626 0.833496 10C0.833496 4.93739 4.93755 0.833336 10.0002 0.833336C15.0628 0.833336 19.1668 4.93739 19.1668 10C19.1668 15.0626 15.0628 19.1667 10.0002 19.1667ZM10.0002 17.5C14.1423 17.5 17.5002 14.1421 17.5002 10C17.5002 5.85787 14.1423 2.5 10.0002 2.5C5.85803 2.5 2.50016 5.85787 2.50016 10C2.50016 14.1421 5.85803 17.5 10.0002 17.5Z" fill="white"/>
</svg>
