<svg width="20" height="20" viewBox="0 0 20 20" fill="none" xmlns="http://www.w3.org/2000/svg">
<path fill-rule="evenodd" clip-rule="evenodd" d="M18.3332 15.8333C18.3332 16.7538 17.587 17.5 16.6665 17.5H3.33317C2.4127 17.5 1.6665 16.7538 1.6665 15.8333V9.82895L4.25181 3.79938C4.62736 3.03451 5.10103 2.56084 5.83317 2.5H14.1665L14.2755 2.50716C14.9029 2.58995 15.3624 3.04946 15.7658 3.8384L18.3332 9.82895V15.8333ZM3.33317 10.8333V15.8333H16.6665V10.8333H13.3332C13.3332 11.7538 12.587 12.5 11.6665 12.5H8.33317C7.4127 12.5 6.6665 11.7538 6.6665 10.8333H3.33317ZM3.76362 9.16667H8.33317V10.8333H11.6665V9.16667H16.2365L14.2587 4.54774C14.1654 4.3662 14.0792 4.23879 14.0096 4.16661L5.97977 4.16353C5.91542 4.23288 5.83594 4.35441 5.76579 4.49493L3.76362 9.16667Z" fill="currentColor"/>
</svg>
