<svg width="24" height="24" viewBox="0 0 24 24" fill="none" xmlns="http://www.w3.org/2000/svg">
  <path fill-rule="evenodd" clip-rule="evenodd" d="M11.0007 22.9552C5.39389 22.4503 1 17.7383 1 12C1 5.92487 5.92487 1 12 1C17.7383 1 22.4503 5.39389 22.9552 11.0007C23.0048 11.5508 22.5523 12 22 12C21.4477 12 21.0058 11.5506 20.9452 11.0016C20.4485 6.50088 16.6331 3 12 3C7.02944 3 3 7.02944 3 12C3 13.9042 3.59138 15.6703 4.6005 17.1246C5.72595 15.6381 8.3706 15 12 15C12.3697 15 12.7291 15.0066 13.0778 15.0201C13.599 15.0402 14 15.4771 14 15.9988C14 16.5511 13.5523 17 13 17H12C8.43062 17 6.328 17.6874 6.03532 18.7398C7.38916 19.9388 9.10691 20.7362 11.0019 20.9453C11.5508 21.0058 12 21.4477 12 22C12 22.5523 11.5508 23.0048 11.0007 22.9552ZM12 15C9.76086 15 8 13.4274 8 10C8 7.75576 9.5791 6 12 6C14.4142 6 16 7.92158 16 10.2C16 13.4796 14.2181 15 12 15ZM10 10C10 12.2693 10.8182 13 12 13C13.1777 13 14 12.2984 14 10.2C14 8.95042 13.2157 8 12 8C10.7337 8 10 8.81582 10 10ZM20.4142 16.1716L19 17.5858L17.5858 16.1716C17.1953 15.781 16.5621 15.781 16.1716 16.1716C15.781 16.5621 15.781 17.1953 16.1716 17.5858L17.5858 19L16.1716 20.4142C15.781 20.8047 15.781 21.4379 16.1716 21.8284C16.5621 22.219 17.1953 22.219 17.5858 21.8284L19 20.4142L20.4142 21.8284C20.8047 22.219 21.4379 22.219 21.8284 21.8284C22.219 21.4379 22.219 20.8047 21.8284 20.4142L20.4142 19L21.8284 17.5858C22.219 17.1953 22.219 16.5621 21.8284 16.1716C21.4379 15.781 20.8047 15.781 20.4142 16.1716Z" fill="currentColor"/>
</svg>
