<svg width="14" height="14" viewBox="0 0 14 14" fill="none" xmlns="http://www.w3.org/2000/svg">
<path d="M3.66665 9.66671C3.66665 10.0349 3.96512 10.3334 4.33331 10.3334H6.99998C7.36817 10.3334 7.66665 10.0349 7.66665 9.66671C7.66665 9.29852 7.36817 9.00004 6.99998 9.00004H4.33331C3.96512 9.00004 3.66665 9.29852 3.66665 9.66671Z" fill="currentColor"/>
<path d="M4.33331 7.66671C3.96512 7.66671 3.66665 7.36823 3.66665 7.00004C3.66665 6.63185 3.96512 6.33337 4.33331 6.33337H9.66665C10.0348 6.33337 10.3333 6.63185 10.3333 7.00004C10.3333 7.36823 10.0348 7.66671 9.66665 7.66671H4.33331Z" fill="currentColor"/>
<path d="M3.66665 4.33337C3.66665 4.70156 3.96512 5.00004 4.33331 5.00004H9.66665C10.0348 5.00004 10.3333 4.70156 10.3333 4.33337C10.3333 3.96518 10.0348 3.66671 9.66665 3.66671H4.33331C3.96512 3.66671 3.66665 3.96518 3.66665 4.33337Z" fill="currentColor"/>
<path fill-rule="evenodd" clip-rule="evenodd" d="M0.333313 12.3334C0.333313 13.0698 0.930267 13.6667 1.66665 13.6667H10.0572C10.4108 13.6667 10.7499 13.5262 11 13.2762L13.2761 11C13.5262 10.75 13.6666 10.4109 13.6666 10.0572V1.66671C13.6666 0.930328 13.0697 0.333374 12.3333 0.333374H1.66665C0.930267 0.333374 0.333313 0.930328 0.333313 1.66671V12.3334ZM1.66665 1.66671H12.3333V9.00004H10.3333C9.59693 9.00004 8.99998 9.59699 8.99998 10.3334V12.3334H1.66665V1.66671ZM10.3333 10.3334H12.0572L10.3333 12.0572V10.3334Z" fill="currentColor"/>
</svg>
