<svg width="16" height="16" viewBox="0 0 16 16" fill="none" xmlns="http://www.w3.org/2000/svg">
<path fill-rule="evenodd" clip-rule="evenodd" d="M13.3333 3.33331C13.7015 3.33331 14 3.63179 14 3.99998C14 4.36817 13.7015 4.66665 13.3333 4.66665H5.33333C4.96514 4.66665 4.66667 4.36817 4.66667 3.99998C4.66667 3.63179 4.96514 3.33331 5.33333 3.33331H13.3333ZM14 7.99998C14 7.63179 13.7015 7.33331 13.3333 7.33331H5.33333C4.96514 7.33331 4.66667 7.63179 4.66667 7.99998C4.66667 8.36817 4.96514 8.66665 5.33333 8.66665H13.3333C13.7015 8.66665 14 8.36817 14 7.99998ZM14 12C14 11.6318 13.7015 11.3333 13.3333 11.3333H5.33333C4.96514 11.3333 4.66667 11.6318 4.66667 12C4.66667 12.3682 4.96514 12.6666 5.33333 12.6666H13.3333C13.7015 12.6666 14 12.3682 14 12ZM2 12C2 12.3682 2.29848 12.6666 2.66667 12.6666C3.03486 12.6666 3.33333 12.3682 3.33333 12C3.33333 11.6318 3.03486 11.3333 2.66667 11.3333C2.29848 11.3333 2 11.6318 2 12ZM2.66667 8.66665C2.29848 8.66665 2 8.36817 2 7.99998C2 7.63179 2.29848 7.33331 2.66667 7.33331C3.03486 7.33331 3.33333 7.63179 3.33333 7.99998C3.33333 8.36817 3.03486 8.66665 2.66667 8.66665ZM2 3.99998C2 4.36817 2.29848 4.66665 2.66667 4.66665C3.03486 4.66665 3.33333 4.36817 3.33333 3.99998C3.33333 3.63179 3.03486 3.33331 2.66667 3.33331C2.29848 3.33331 2 3.63179 2 3.99998Z" fill="currentColor"/>
</svg>
