<svg width="24" height="24" viewBox="0 0 24 24" fill="none" xmlns="http://www.w3.org/2000/svg">
<path d="M20 20C20.5523 20 21 19.5523 21 19L21 5C21 4.44772 20.5523 4 20 4L18 4C17.4477 4 17 4.44772 17 5C17 5.55228 17.4477 6 18 6L19 6L19 18L18 18C17.4477 18 17 18.4477 17 19C17 19.5523 17.4477 20 18 20L20 20Z" fill="currentColor"/>
<path d="M4 13L11.5858 13L9 15.5858C8.60948 15.9763 8.60948 16.6095 9 17C9.39053 17.3905 10.0237 17.3905 10.4142 17L14.7071 12.7071C15.0976 12.3166 15.0976 11.6834 14.7071 11.2929L10.4142 6.99998C10.0237 6.60946 9.39053 6.60946 9 6.99998C8.60948 7.39051 8.60948 8.02367 9 8.4142L11.5858 11L4 11C3.44772 11 3 11.4477 3 12C3 12.5523 3.44772 13 4 13Z" fill="currentColor"/>
</svg>
