<svg width="24" height="24" viewBox="0 0 24 24" fill="none" xmlns="http://www.w3.org/2000/svg">
  <path d="M6.20195 14.6384C6.20195 15.7948 5.25733 16.7394 4.10098 16.7394C2.94463 16.7394 2 15.7948 2 14.6384C2 13.4821 2.94463 12.5374 4.10098 12.5374H6.20195V14.6384Z" fill="#E01E5A"/>
  <path d="M7.26062 14.6384C7.26062 13.4821 8.20525 12.5374 9.3616 12.5374C10.518 12.5374 11.4626 13.4821 11.4626 14.6384V19.899C11.4626 21.0554 10.518 22 9.3616 22C8.20525 22 7.26062 21.0554 7.26062 19.899V14.6384Z" fill="#E01E5A"/>
  <path d="M9.3616 6.20195C8.20525 6.20195 7.26062 5.25733 7.26062 4.10098C7.26062 2.94463 8.20525 2 9.3616 2C10.518 2 11.4626 2.94463 11.4626 4.10098V6.20195H9.3616Z" fill="#36C5F0"/>
  <path d="M9.36157 7.26059C10.5179 7.26059 11.4625 8.20521 11.4625 9.36156C11.4625 10.5179 10.5179 11.4625 9.36157 11.4625H4.10098C2.94463 11.4625 2 10.5179 2 9.36156C2 8.20521 2.94463 7.26059 4.10098 7.26059H9.36157Z" fill="#36C5F0"/>
  <path d="M17.798 9.36156C17.798 8.20521 18.7427 7.26059 19.899 7.26059C21.0554 7.26059 22 8.20521 22 9.36156C22 10.5179 21.0554 11.4625 19.899 11.4625H17.798V9.36156Z" fill="#2EB67D"/>
  <path d="M16.7394 9.36156C16.7394 10.5179 15.7948 11.4625 14.6384 11.4625C13.4821 11.4625 12.5374 10.5179 12.5374 9.36156V4.10098C12.5374 2.94463 13.4821 2 14.6384 2C15.7948 2 16.7394 2.94463 16.7394 4.10098V9.36156Z" fill="#2EB67D"/>
  <path d="M14.6384 17.798C15.7947 17.798 16.7394 18.7427 16.7394 19.899C16.7394 21.0554 15.7947 22 14.6384 22C13.482 22 12.5374 21.0554 12.5374 19.899V17.798H14.6384Z" fill="#ECB22E"/>
  <path d="M14.6384 16.7394C13.4821 16.7394 12.5374 15.7948 12.5374 14.6384C12.5374 13.4821 13.4821 12.5374 14.6384 12.5374H19.899C21.0554 12.5374 22 13.4821 22 14.6384C22 15.7948 21.0554 16.7394 19.899 16.7394H14.6384Z" fill="#ECB22E"/>
</svg>
