<svg width="15" height="15" viewBox="0 0 15 15" fill="none" xmlns="http://www.w3.org/2000/svg">
    <path
        d="M5 4.375C5 4.02982 4.72018 3.75 4.375 3.75H3.19631C4.40291 2.36961 5.72451 1.875 7.5 1.875C10.6066 1.875 13.125 4.3934 13.125 7.5C13.125 10.6066 10.6066 13.125 7.5 13.125C4.3934 13.125 1.875 10.6066 1.875 7.5H0.625C0.625 11.297 3.70304 14.375 7.5 14.375C11.297 14.375 14.375 11.297 14.375 7.5C14.375 3.70304 11.297 0.625 7.5 0.625C5.49164 0.625 3.89817 1.1941 2.5 2.66028V1.86951C2.5 1.52433 2.22018 1.24451 1.875 1.24451C1.52982 1.24451 1.25 1.52433 1.25 1.86951V4C1.25 4.55228 1.69772 5 2.25 5H4.375C4.72018 5 5 4.72018 5 4.375Z"
        fill="currentColor" />
    <path
        d="M10.625 7.5C10.625 7.15482 10.3452 6.875 10 6.875H8.125V4.375C8.125 4.02982 7.84518 3.75 7.5 3.75C7.15482 3.75 6.875 4.02982 6.875 4.375V7.5C6.875 7.84518 7.15482 8.125 7.5 8.125H10C10.3452 8.125 10.625 7.84518 10.625 7.5Z"
        fill="currentColor" />
</svg>