<svg width="24" height="24" viewBox="0 0 24 24" fill="none" xmlns="http://www.w3.org/2000/svg">
<path d="M12 3C7.04148 3 3 7.04148 3 12C3 16.0665 4.7821 19.9706 5.66229 21.6508C5.91652 22.1361 6.52079 22.2871 6.99078 22.0055L7.00863 21.9948C7.47885 21.7131 7.63917 21.1044 7.39269 20.6148C6.58323 19.0068 5 15.4241 5 12C5 8.12252 8.12252 5 12 5C15.8775 5 19 8.12252 19 12C19 12.565 18.565 13 18 13C17.435 13 17 12.565 17 12C17 9.25048 14.7495 7 12 7C9.25048 7 7 9.25048 7 12C7 17.1567 10.9205 20.2559 12.6965 21.3953C13.1594 21.6923 13.7543 21.4914 14.0003 20.9995V20.9995C14.246 20.508 14.055 19.8972 13.5988 19.5908C12.0677 18.5623 9 16.0023 9 12C9 10.3315 10.3315 9 12 9C13.6685 9 15 10.3315 15 12C15 13.645 16.355 15 18 15C19.645 15 21 13.645 21 12C21 7.04148 16.9585 3 12 3ZM12 11C11.4477 11 10.995 11.4491 11.0593 11.9976C11.2381 13.5242 11.8399 15.2689 13.1113 16.7715C14.5275 18.4451 16.7954 19.742 20.0006 19.9658C20.5515 20.0042 21 19.5523 21 19V19C21 18.4477 20.5507 18.0051 20.0001 17.9628C17.3385 17.7586 15.7023 16.7355 14.6387 15.4785C13.7333 14.4085 13.2574 13.1155 13.0813 11.9955C12.9955 11.4499 12.5523 11 12 11V11Z" fill="currentColor"/>
</svg>
