<svg width="17" height="15" viewBox="0 0 17 15" fill="none" xmlns="http://www.w3.org/2000/svg">
    <path
        d="M3.52041 15C3.29932 15 3.1165 14.9277 2.97194 14.7832C2.82738 14.6386 2.7551 14.4558 2.7551 14.2347C2.7551 14.0136 2.82738 13.8308 2.97194 13.6862C3.1165 13.5417 3.29932 13.4694 3.52041 13.4694H10.1276C11.318 13.4694 12.3427 13.074 13.2015 12.2832C14.0604 11.4923 14.4898 10.5102 14.4898 9.33673C14.4898 8.16327 14.0604 7.18112 13.2015 6.39031C12.3427 5.59949 11.318 5.20408 10.1276 5.20408H2.60204L4.97449 7.57653C5.12755 7.72959 5.20408 7.90816 5.20408 8.11224C5.20408 8.31633 5.12755 8.4949 4.97449 8.64796C4.82143 8.80102 4.64286 8.87755 4.43878 8.87755C4.23469 8.87755 4.05612 8.80102 3.90306 8.64796L0.229592 4.97449C0.144558 4.88946 0.0850337 4.80442 0.0510201 4.71939C0.0170065 4.63435 0 4.54082 0 4.43878C0 4.33673 0.0170065 4.2432 0.0510201 4.15816C0.0850337 4.07313 0.144558 3.9881 0.229592 3.90306L3.90306 0.229592C4.05612 0.0765305 4.23469 0 4.43878 0C4.64286 0 4.82143 0.0765305 4.97449 0.229592C5.12755 0.382653 5.20408 0.561224 5.20408 0.765306C5.20408 0.969388 5.12755 1.14796 4.97449 1.30102L2.60204 3.67347H10.102C11.7177 3.67347 13.108 4.21769 14.273 5.30612C15.4379 6.39456 16.0204 7.73809 16.0204 9.33673C16.0204 10.9354 15.4379 12.2789 14.273 13.3673C13.108 14.4558 11.7177 15 10.102 15H3.52041Z"
        fill="currentColor" />
</svg>