<svg width="24" height="24" viewBox="0 0 24 24" fill="none" xmlns="http://www.w3.org/2000/svg">
<g id="application-flow [24]">
<g id="icon">
<path d="M17.5858 7.99998L17.0093 7.99997C14.9891 8.01878 14.1695 8.88235 12.849 11.7638C12.7006 12.0885 12.6217 12.2609 12.5478 12.4205C10.7759 16.2489 8.96371 17.9389 5 18H3.99997C3.4477 18 3 17.5523 3 17C3 16.4478 3.44774 16 4.00003 16.0001L4.98456 16.0001C7.99779 15.9536 9.24866 14.7871 10.7328 11.5805C10.8046 11.4254 10.8813 11.2576 11.0308 10.9306C12.6438 7.41094 13.9561 6.02831 17 6.00001H17.5858L17 5.41423C16.6095 5.0237 16.6095 4.39054 17 4.00001C17.3905 3.60949 18.0237 3.60949 18.4142 4.00001L21.4142 7.00001L17.7071 10.7071L16.2929 9.29291L17.5858 7.99998Z" fill="currentColor"/>
<path d="M17.5858 18H17C15.067 17.982 13.8323 17.4179 12.7755 16.1072C13.1678 15.5431 13.5362 14.917 13.8909 14.2284C14.7313 15.5397 15.5624 15.9866 17.0093 16.0001L17.5858 16L16.2929 14.7071L17.7071 13.2929L21.4142 17L18.4142 20C18.0237 20.3905 17.3905 20.3905 17 20C16.6095 19.6095 16.6095 18.9763 17 18.5858L17.5858 18Z" fill="currentColor"/>
<path d="M4.98456 7.9999C7.02213 8.03135 8.25385 8.57495 9.29676 9.91516C9.62455 9.21041 9.95039 8.57242 10.2864 7.9992C8.998 6.66601 7.39018 6.03684 5 6.00001H3.99997C3.4477 6.00001 3 6.44772 3 6.99998C3 7.55228 3.44774 7.99999 4.00003 7.99995L4.98456 7.9999Z" fill="currentColor"/>
</g>
</g>
</svg>
