<svg width="24" height="24" viewBox="0 0 24 24" fill="none" xmlns="http://www.w3.org/2000/svg">
<path fill-rule="evenodd" clip-rule="evenodd" d="M3 6C3 3.52331 7.06216 2 12 2C16.9378 2 21 3.52331 21 6V18C21 20.4767 16.9378 22 12 22C7.06216 22 3 20.4767 3 18V6ZM5 12V8.62081C6.65544 9.50509 9.18547 10 12 10C14.8145 10 17.3446 9.50509 19 8.62081V12C19 12.837 15.8987 14 12 14C8.10128 14 5 12.837 5 12ZM19 14.6208V18C19 18.837 15.8987 20 12 20C8.10128 20 5 18.837 5 18V14.6208C6.65544 15.5051 9.18547 16 12 16C14.8145 16 17.3446 15.5051 19 14.6208ZM12 8C15.8987 8 19 6.83702 19 6C19 5.16298 15.8987 4 12 4C8.10128 4 5 5.16298 5 6C5 6.83702 8.10128 8 12 8Z" fill="currentColor"/>
<rect x="2" y="15" width="20" height="8" rx="1" fill="#2478FF"/>
<path d="M7.12429 17.04V18.666H5.37829V17.04H4.55029V21H5.37829V19.332H7.12429V21H7.95229V17.04H7.12429Z" fill="white"/>
<path d="M12.1178 17.04H8.63184V17.706H9.96384V21H10.7918V17.706H12.1178V17.04Z" fill="white"/>
<path d="M15.9264 17.04H12.4404V17.706H13.7724V21H14.6004V17.706H15.9264V17.04Z" fill="white"/>
<path d="M18.265 17.04H16.603V21H17.431V19.596H18.265C19.171 19.596 19.723 19.122 19.723 18.318C19.723 17.514 19.171 17.04 18.265 17.04ZM18.139 18.942H17.431V17.694H18.139C18.637 17.694 18.883 17.904 18.883 18.318C18.883 18.732 18.637 18.942 18.139 18.942Z" fill="white"/>
</svg>
