<svg width="24" height="24" viewBox="0 0 24 24" fill="none" xmlns="http://www.w3.org/2000/svg">
<path d="M22.1377 17.5394C20.9637 18.1518 14.8824 20.6521 13.5876 21.3269C12.2929 22.0017 11.5737 21.9953 10.5508 21.5066C9.52777 21.0178 3.05627 18.4038 1.88982 17.8462C1.30659 17.5674 1.00098 17.333 1.00098 17.1113V14.8875C1.00098 14.8875 9.42687 13.0532 10.7875 12.5651C12.1482 12.0769 12.6189 12.0594 13.7772 12.4834C14.9355 12.9074 21.8566 14.1561 23.0003 14.5755V16.7684C23.0003 16.9883 22.7367 17.235 22.1389 17.5406L22.1377 17.5394Z" fill="#A41E11"/>
<path d="M22.1378 15.315C20.9638 15.9274 14.8825 18.4277 13.5877 19.1025C12.2929 19.7773 11.5738 19.7708 10.5508 19.2821C9.52784 18.7934 3.05634 16.1793 1.88988 15.6218C0.723425 15.0642 0.700096 14.681 1.84497 14.2325L10.787 10.7705C12.1471 10.2829 12.6184 10.2648 13.7767 10.6888C14.9349 11.1128 20.9795 13.5186 22.1226 13.9444C23.2658 14.3702 23.3107 14.7084 22.1366 15.3208L22.1378 15.315Z" fill="#D82C20"/>
<path d="M22.1377 13.9129C20.9637 14.5253 14.8824 17.0256 13.5876 17.7004C12.2929 18.3752 11.5737 18.3688 10.5508 17.88C9.52777 17.3913 3.05627 14.7773 1.88982 14.2197C1.30659 13.9409 1.00098 13.7064 1.00098 13.4848V11.261C1.00098 11.261 9.42687 9.42672 10.7875 8.93856C12.1482 8.4504 12.6189 8.4329 13.7772 8.8569C14.9355 9.28091 21.8566 10.5296 23.0003 10.9489V13.1419C23.0003 13.3618 22.7367 13.6085 22.1389 13.9141L22.1377 13.9129Z" fill="#A41E11"/>
<path d="M22.1378 11.6891C20.9638 12.3014 14.8825 14.8017 13.5877 15.4765C12.2929 16.1513 11.5738 16.1449 10.5508 15.6562C9.52784 15.1674 3.05634 12.5534 1.88988 11.9958C0.723425 11.4383 0.700096 11.0551 1.84497 10.6066L10.787 7.14513C12.1471 6.65697 12.6184 6.63947 13.7767 7.06348C14.9349 7.48749 20.9795 9.89388 22.1238 10.3121C23.2681 10.7302 23.3118 11.0761 22.1378 11.6885V11.6891Z" fill="#D82C20"/>
<path d="M22.1377 10.1523C20.9637 10.7647 14.8824 13.2649 13.5876 13.9403C12.2929 14.6157 11.5737 14.6087 10.5508 14.12C9.52777 13.6312 3.05627 11.0172 1.88982 10.4596C1.30659 10.1808 1.00098 9.94638 1.00098 9.72476V7.49974C1.00098 7.49974 9.42687 5.66549 10.7875 5.17733C12.1482 4.68917 12.6189 4.67167 13.7772 5.09567C14.9355 5.51968 21.8566 6.76837 23.0003 7.18771V9.38065C23.0003 9.60053 22.7367 9.84723 22.1389 10.1528L22.1377 10.1523Z" fill="#A41E11"/>
<path d="M22.1378 7.92783C20.9638 8.54022 14.8825 11.0405 13.5877 11.7153C12.2929 12.3901 11.5738 12.3837 10.5508 11.8949C9.52784 11.4062 3.05634 8.79217 1.88988 8.23461C0.723425 7.67704 0.700096 7.29386 1.84497 6.84536L10.787 3.3839C12.1471 2.89574 12.6184 2.87824 13.7767 3.30225C14.9349 3.72626 20.9795 6.13265 22.1238 6.55083C23.2681 6.969 23.3118 7.31486 22.1378 7.92725V7.92783Z" fill="#D82C20"/>
<path d="M12.549 7.01098L11.8596 5.86494L9.65848 5.66664L11.3008 5.07408L10.808 4.16425L12.3454 4.76497L13.7953 4.29022L13.4034 5.23039L14.8813 5.78445L12.9753 5.98275L12.549 7.01098ZM8.87695 9.29257L13.9744 8.50988L12.4346 10.7681L8.87695 9.29257Z" fill="white"/>
<path d="M7.50316 8.46963C9.00805 8.46963 10.228 7.99674 10.228 7.4134C10.228 6.83007 9.00805 6.35718 7.50316 6.35718C5.99827 6.35718 4.77832 6.83007 4.77832 7.4134C4.77832 7.99674 5.99827 8.46963 7.50316 8.46963Z" fill="white"/>
<path d="M20.1524 7.25944L17.1371 8.45039L17.1348 6.06674L20.1524 7.25944Z" fill="#7A0C00"/>
<path d="M17.1374 8.45039L16.8108 8.5787L13.7979 7.38775L17.1357 6.06732L17.1374 8.45039Z" fill="#AD2115"/>
</svg>
